Pretension2-Italic.ufo
<glyph name="exclam" format="2">
  <advance width="608"/>
  <unicode hex="0021"/>
  <outline>
    <contour>
      <point x="206" y="480" type="line"/>
      <point x="361" y="1490" type="line"/>
      <point x="555" y="1490" type="line"/>
      <point x="376" y="480" type="line"/>
    </contour>
    <contour>
      <point x="220" y="-12" type="qcurve" smooth="yes"/>
      <point x="162" y="-12"/>
      <point x="92" y="72"/>
      <point x="102" y="130" type="qcurve" smooth="yes"/>
      <point x="110" y="180"/>
      <point x="193" y="250"/>
      <point x="242" y="250" type="qcurve" smooth="yes"/>
      <point x="301" y="250"/>
      <point x="370" y="166"/>
      <point x="360" y="108" type="qcurve" smooth="yes"/>
      <point x="352" y="58"/>
      <point x="270" y="-12"/>
    </contour>
  </outline>
</glyph>
<glyph name="numbersign" format="2">
  <advance width="1292"/>
  <unicode hex="0023"/>
  <outline>
    <contour>
      <point x="730" y="0" type="line"/>
      <point x="1000" y="1490" type="line"/>
      <point x="1146" y="1490" type="line"/>
      <point x="876" y="0" type="line"/>
    </contour>
    <contour>
      <point x="60" y="414" type="line"/>
      <point x="86" y="558" type="line"/>
      <point x="1198" y="558" type="line"/>
      <point x="1170" y="414" type="line"/>
    </contour>
    <contour>
      <point x="206" y="0" type="line"/>
      <point x="478" y="1490" type="line"/>
      <point x="622" y="1490" type="line"/>
      <point x="352" y="0" type="line"/>
    </contour>
    <contour>
      <point x="156" y="930" type="line"/>
      <point x="182" y="1076" type="line"/>
      <point x="1294" y="1076" type="line"/>
      <point x="1266" y="930" type="line"/>
    </contour>
  </outline>
</glyph>
<glyph name="dollar" format="2">
  <advance width="1312"/>
  <unicode hex="0024"/>
  <anchor x="685" y="0" name="m.uni0326"/>
  <anchor x="939" y="1490" name="m.uni030F_1"/>
  <anchor x="679" y="0" name="m.uni0327_3"/>
  <outline>
    <contour>
      <point x="468" y="-218" type="line"/>
      <point x="787" y="1708" type="line"/>
      <point x="907" y="1708" type="line"/>
      <point x="588" y="-218" type="line"/>
    </contour>
    <contour>
      <point x="575" y="-26" type="curve" smooth="yes"/>
      <point x="468" y="-26"/>
      <point x="377" y="-9"/>
      <point x="301" y="26" type="curve" smooth="yes"/>
      <point x="149" y="94"/>
      <point x="71" y="223"/>
      <point x="87" y="390" type="curve"/>
      <point x="282" y="390" type="line"/>
      <point x="278" y="334"/>
      <point x="289" y="288"/>
      <point x="316" y="252" type="curve" smooth="yes"/>
      <point x="369" y="179"/>
      <point x="470" y="144"/>
      <point x="587" y="144" type="curve" smooth="yes"/>
      <point x="654" y="144"/>
      <point x="717" y="155"/>
      <point x="774" y="177" type="curve" smooth="yes"/>
      <point x="889" y="221"/>
      <point x="970" y="302"/>
      <point x="987" y="409" type="curve" smooth="yes"/>
      <point x="995" y="457"/>
      <point x="988" y="496"/>
      <point x="967" y="526" type="curve"/>
      <point x="923" y="585"/>
      <point x="836" y="620"/>
      <point x="732" y="651" type="curve" smooth="yes"/>
      <point x="560" y="702" type="line" smooth="yes"/>
      <point x="453" y="733"/>
      <point x="370" y="780"/>
      <point x="310" y="841" type="curve" smooth="yes"/>
      <point x="249" y="902"/>
      <point x="227" y="985"/>
      <point x="244" y="1089" type="curve" smooth="yes"/>
      <point x="257" y="1173"/>
      <point x="291" y="1247"/>
      <point x="344" y="1310" type="curve" smooth="yes"/>
      <point x="450" y="1437"/>
      <point x="617" y="1510"/>
      <point x="810" y="1510" type="curve" smooth="yes"/>
      <point x="907" y="1510"/>
      <point x="991" y="1493"/>
      <point x="1064" y="1459" type="curve" smooth="yes"/>
      <point x="1208" y="1390"/>
      <point x="1288" y="1266"/>
      <point x="1268" y="1114" type="curve"/>
      <point x="1083" y="1114" type="line"/>
      <point x="1086" y="1186"/>
      <point x="1061" y="1242"/>
      <point x="1007" y="1282" type="curve" smooth="yes"/>
      <point x="953" y="1322"/>
      <point x="881" y="1342"/>
      <point x="792" y="1342" type="curve" smooth="yes"/>
      <point x="727" y="1342"/>
      <point x="669" y="1332"/>
      <point x="618" y="1311" type="curve" smooth="yes"/>
      <point x="515" y="1270"/>
      <point x="447" y="1194"/>
      <point x="431" y="1102" type="curve" smooth="yes"/>
      <point x="422" y="1050"/>
      <point x="431" y="1008"/>
      <point x="458" y="976" type="curve" smooth="yes"/>
      <point x="484" y="944"/>
      <point x="518" y="919"/>
      <point x="560" y="902" type="curve"/>
      <point x="601" y="884"/>
      <point x="640" y="870"/>
      <point x="675" y="859" type="curve" smooth="yes"/>
      <point x="817" y="818" type="line" smooth="yes"/>
      <point x="892" y="797"/>
      <point x="988" y="762"/>
      <point x="1067" y="701" type="curve" smooth="yes"/>
      <point x="1146" y="640"/>
      <point x="1194" y="546"/>
      <point x="1171" y="406" type="curve" smooth="yes"/>
      <point x="1158" y="325"/>
      <point x="1126" y="251"/>
      <point x="1076" y="186" type="curve" smooth="yes"/>
      <point x="975" y="55"/>
      <point x="806" y="-26"/>
    </contour>
  </outline>
</glyph>
<glyph name="percent" format="2">
  <advance width="1900"/>
  <unicode hex="0025"/>
  <outline>
    <contour>
      <point x="304" y="1136" type="qcurve" smooth="yes"/>
      <point x="317" y="1214" type="line" smooth="yes"/>
      <point x="331" y="1296"/>
      <point x="421" y="1432"/>
      <point x="564" y="1514"/>
      <point x="657" y="1514" type="qcurve" smooth="yes"/>
      <point x="752" y="1514"/>
      <point x="866" y="1432"/>
      <point x="909" y="1296"/>
      <point x="895" y="1214" type="qcurve" smooth="yes"/>
      <point x="882" y="1136" type="line" smooth="yes"/>
      <point x="869" y="1055"/>
      <point x="780" y="918"/>
      <point x="638" y="836"/>
      <point x="544" y="836" type="qcurve" smooth="yes"/>
      <point x="450" y="836"/>
      <point x="334" y="918"/>
      <point x="291" y="1055"/>
    </contour>
    <contour>
      <point x="465" y="1214" type="qcurve" smooth="yes"/>
      <point x="452" y="1136" type="line" smooth="yes"/>
      <point x="441" y="1068"/>
      <point x="487" y="962"/>
      <point x="565" y="962" type="qcurve" smooth="yes"/>
      <point x="642" y="962"/>
      <point x="723" y="1068"/>
      <point x="734" y="1136" type="qcurve" smooth="yes"/>
      <point x="747" y="1214" type="line" smooth="yes"/>
      <point x="758" y="1282"/>
      <point x="715" y="1388"/>
      <point x="636" y="1388" type="qcurve" smooth="yes"/>
      <point x="560" y="1388"/>
      <point x="476" y="1282"/>
    </contour>
    <contour>
      <point x="1067" y="276" type="qcurve" smooth="yes"/>
      <point x="1080" y="354" type="line" smooth="yes"/>
      <point x="1094" y="436"/>
      <point x="1184" y="572"/>
      <point x="1327" y="654"/>
      <point x="1420" y="654" type="qcurve" smooth="yes"/>
      <point x="1515" y="654"/>
      <point x="1629" y="572"/>
      <point x="1672" y="436"/>
      <point x="1658" y="354" type="qcurve" smooth="yes"/>
      <point x="1645" y="276" type="line" smooth="yes"/>
      <point x="1632" y="195"/>
      <point x="1543" y="58"/>
      <point x="1401" y="-24"/>
      <point x="1307" y="-24" type="qcurve" smooth="yes"/>
      <point x="1213" y="-24"/>
      <point x="1097" y="58"/>
      <point x="1054" y="195"/>
    </contour>
    <contour>
      <point x="1228" y="354" type="qcurve" smooth="yes"/>
      <point x="1215" y="276" type="line" smooth="yes"/>
      <point x="1204" y="208"/>
      <point x="1250" y="102"/>
      <point x="1328" y="102" type="qcurve" smooth="yes"/>
      <point x="1405" y="102"/>
      <point x="1486" y="208"/>
      <point x="1497" y="276" type="qcurve" smooth="yes"/>
      <point x="1510" y="354" type="line" smooth="yes"/>
      <point x="1521" y="422"/>
      <point x="1478" y="528"/>
      <point x="1399" y="528" type="qcurve" smooth="yes"/>
      <point x="1323" y="528"/>
      <point x="1239" y="422"/>
    </contour>
    <contour>
      <point x="262" y="0" type="line"/>
      <point x="1533" y="1490" type="line"/>
      <point x="1699" y="1490" type="line"/>
      <point x="428" y="0" type="line"/>
    </contour>
  </outline>
</glyph>
<glyph name="ampersand" format="2">
  <advance width="1319"/>
  <unicode hex="0026"/>
  <outline>
    <contour>
      <point x="483" y="-20" type="curve" smooth="yes"/>
      <point x="385" y="-20"/>
      <point x="304" y="-2"/>
      <point x="239" y="34" type="curve" smooth="yes"/>
      <point x="109" y="106"/>
      <point x="50" y="236"/>
      <point x="77" y="396" type="curve" smooth="yes"/>
      <point x="87" y="458"/>
      <point x="109" y="513"/>
      <point x="144" y="561" type="curve" smooth="yes"/>
      <point x="212" y="656"/>
      <point x="321" y="735"/>
      <point x="456" y="818" type="curve"/>
      <point x="704" y="980" type="line"/>
      <point x="749" y="1007"/>
      <point x="787" y="1037"/>
      <point x="817" y="1068" type="curve" smooth="yes"/>
      <point x="847" y="1099"/>
      <point x="866" y="1139"/>
      <point x="875" y="1188" type="curve"/>
      <point x="880" y="1225"/>
      <point x="870" y="1262"/>
      <point x="843" y="1297" type="curve" smooth="yes"/>
      <point x="816" y="1332"/>
      <point x="777" y="1349"/>
      <point x="724" y="1349" type="curve" smooth="yes"/>
      <point x="687" y="1349"/>
      <point x="653" y="1340"/>
      <point x="622" y="1322" type="curve" smooth="yes"/>
      <point x="591" y="1303"/>
      <point x="565" y="1280"/>
      <point x="544" y="1252" type="curve" smooth="yes"/>
      <point x="523" y="1223"/>
      <point x="509" y="1193"/>
      <point x="504" y="1162" type="curve" smooth="yes"/>
      <point x="498" y="1127"/>
      <point x="502" y="1092"/>
      <point x="515" y="1057" type="curve" smooth="yes"/>
      <point x="541" y="986"/>
      <point x="593" y="913"/>
      <point x="646" y="832" type="curve" smooth="yes"/>
      <point x="1192" y="0" type="line"/>
      <point x="977" y="0" type="line"/>
      <point x="523" y="678" type="line" smooth="yes"/>
      <point x="484" y="737"/>
      <point x="447" y="793"/>
      <point x="414" y="844" type="curve" smooth="yes"/>
      <point x="380" y="895"/>
      <point x="354" y="946"/>
      <point x="337" y="997" type="curve" smooth="yes"/>
      <point x="320" y="1048"/>
      <point x="316" y="1103"/>
      <point x="325" y="1162" type="curve" smooth="yes"/>
      <point x="336" y="1230"/>
      <point x="360" y="1290"/>
      <point x="399" y="1341" type="curve" smooth="yes"/>
      <point x="438" y="1392"/>
      <point x="487" y="1432"/>
      <point x="546" y="1461" type="curve" smooth="yes"/>
      <point x="605" y="1490"/>
      <point x="672" y="1504"/>
      <point x="745" y="1504" type="curve" smooth="yes"/>
      <point x="820" y="1504"/>
      <point x="882" y="1490"/>
      <point x="932" y="1461" type="curve" smooth="yes"/>
      <point x="1031" y="1403"/>
      <point x="1075" y="1302"/>
      <point x="1055" y="1189" type="curve"/>
      <point x="1044" y="1118"/>
      <point x="1016" y="1057"/>
      <point x="972" y="1005" type="curve" smooth="yes"/>
      <point x="928" y="952"/>
      <point x="872" y="903"/>
      <point x="803" y="858" type="curve" smooth="yes"/>
      <point x="470" y="637" type="line" smooth="yes"/>
      <point x="397" y="588"/>
      <point x="345" y="541"/>
      <point x="314" y="496" type="curve" smooth="yes"/>
      <point x="282" y="451"/>
      <point x="265" y="418"/>
      <point x="262" y="397" type="curve" smooth="yes"/>
      <point x="255" y="352"/>
      <point x="260" y="309"/>
      <point x="277" y="270" type="curve" smooth="yes"/>
      <point x="311" y="190"/>
      <point x="391" y="137"/>
      <point x="508" y="137" type="curve" smooth="yes"/>
      <point x="619" y="137"/>
      <point x="737" y="187"/>
      <point x="838" y="278" type="curve" smooth="yes"/>
      <point x="938" y="369"/>
      <point x="1015" y="498"/>
      <point x="1040" y="658" type="curve"/>
      <point x="1213" y="658" type="line"/>
      <point x="1197" y="559"/>
      <point x="1173" y="479"/>
      <point x="1141" y="416" type="curve" smooth="yes"/>
      <point x="1109" y="353"/>
      <point x="1076" y="304"/>
      <point x="1042" y="268" type="curve" smooth="yes"/>
      <point x="1008" y="231"/>
      <point x="980" y="203"/>
      <point x="957" y="182" type="curve"/>
      <point x="942" y="167"/>
      <point x="923" y="152"/>
      <point x="908" y="137" type="curve"/>
      <point x="851" y="84"/>
      <point x="783" y="45"/>
      <point x="706" y="19" type="curve" smooth="yes"/>
      <point x="629" y="-7"/>
      <point x="554" y="-20"/>
    </contour>
  </outline>
</glyph>
<glyph name="quotesingle" format="2">
  <advance width="606"/>
  <unicode hex="0027"/>
  <outline>
    <contour>
      <point x="292" y="928" type="line"/>
      <point x="364" y="1490" type="line"/>
      <point x="550" y="1490" type="line"/>
      <point x="436" y="928" type="line"/>
    </contour>
  </outline>
</glyph>
<glyph name="parenleft" format="2">
  <advance width="747"/>
  <unicode hex="0028"/>
  <outline>
    <contour>
      <point x="226" y="608" type="qcurve" smooth="yes"/>
      <point x="253" y="770"/>
      <point x="378" y="1127"/>
      <point x="550" y="1458"/>
      <point x="645" y="1581" type="qcurve"/>
      <point x="820" y="1581" type="line"/>
      <point x="716" y="1422"/>
      <point x="547" y="1083"/>
      <point x="433" y="753"/>
      <point x="409" y="609" type="qcurve" smooth="yes"/>
      <point x="387" y="477"/>
      <point x="395" y="204"/>
      <point x="455" y="-100"/>
      <point x="512" y="-279" type="qcurve"/>
      <point x="337" y="-279" type="line"/>
      <point x="244" y="-58"/>
      <point x="190" y="392"/>
    </contour>
  </outline>
</glyph>
<glyph name="parenright" format="2">
  <advance width="746"/>
  <unicode hex="0029"/>
  <outline>
    <contour>
      <point x="-43" y="-280" type="line"/>
      <point x="34" y="-163"/>
      <point x="99" y="-54"/>
      <point x="153" y="47" type="curve" smooth="yes"/>
      <point x="260" y="248"/>
      <point x="325" y="430"/>
      <point x="354" y="607" type="curve" smooth="yes"/>
      <point x="370" y="704"/>
      <point x="377" y="808"/>
      <point x="376" y="918" type="curve" smooth="yes"/>
      <point x="372" y="1137"/>
      <point x="334" y="1368"/>
      <point x="265" y="1580" type="curve"/>
      <point x="441" y="1580" type="line"/>
      <point x="477" y="1498"/>
      <point x="505" y="1402"/>
      <point x="526" y="1292" type="curve" smooth="yes"/>
      <point x="546" y="1181"/>
      <point x="557" y="1067"/>
      <point x="560" y="948" type="curve" smooth="yes"/>
      <point x="562" y="829"/>
      <point x="554" y="715"/>
      <point x="536" y="606" type="curve" smooth="yes"/>
      <point x="488" y="317"/>
      <point x="352" y="11"/>
      <point x="133" y="-280" type="curve"/>
    </contour>
  </outline>
</glyph>
<glyph name="asterisk" format="2">
  <advance width="1024"/>
  <unicode hex="002A"/>
  <outline>
    <contour>
      <point x="456" y="652" type="line"/>
      <point x="524" y="972" type="line"/>
      <point x="226" y="800" type="line"/>
      <point x="178" y="922" type="line"/>
      <point x="482" y="1070" type="line"/>
      <point x="222" y="1218" type="line"/>
      <point x="312" y="1342" type="line"/>
      <point x="556" y="1170" type="line"/>
      <point x="596" y="1490" type="line"/>
      <point x="736" y="1490" type="line"/>
      <point x="672" y="1170" type="line"/>
      <point x="966" y="1342" type="line"/>
      <point x="1018" y="1218" type="line"/>
      <point x="712" y="1070" type="line"/>
      <point x="974" y="922" type="line"/>
      <point x="884" y="800" type="line"/>
      <point x="640" y="972" type="line"/>
      <point x="596" y="652" type="line"/>
    </contour>
  </outline>
</glyph>
<glyph name="plus" format="2">
  <advance width="1350"/>
  <unicode hex="002B"/>
  <outline>
    <contour>
      <point x="518" y="102" type="line"/>
      <point x="677" y="1062" type="line"/>
      <point x="839" y="1062" type="line"/>
      <point x="680" y="102" type="line"/>
    </contour>
    <contour>
      <point x="185" y="500" type="line"/>
      <point x="212" y="664" type="line"/>
      <point x="1172" y="664" type="line"/>
      <point x="1145" y="500" type="line"/>
    </contour>
  </outline>
</glyph>
<glyph name="comma.ss07" format="2">
  <advance width="589"/>
  <unicode hex="002C"/>
  <unicode hex="E2AB"/>
  <outline>
    <contour>
      <point x="41" y="-273" type="line"/>
      <point x="57" y="-176" type="line"/>
      <point x="85" y="-176" type="line" smooth="yes"/>
      <point x="131" y="-176"/>
      <point x="192" y="-97"/>
      <point x="202" y="-39" type="qcurve" smooth="yes"/>
      <point x="211" y="18" type="line"/>
      <point x="227" y="0" type="line"/>
      <point x="86" y="0" type="line"/>
      <point x="124" y="232" type="line"/>
      <point x="358" y="232" type="line"/>
      <point x="315" y="-31" type="line" smooth="yes"/>
      <point x="296" y="-144"/>
      <point x="165" y="-273"/>
      <point x="69" y="-273" type="qcurve" smooth="yes"/>
    </contour>
  </outline>
</glyph>
<glyph name="hyphen" format="2">
  <advance width="941"/>
  <unicode hex="002D"/>
  <outline>
    <contour>
      <point x="823" y="718" type="line"/>
      <point x="796" y="558" type="line"/>
      <point x="144" y="558" type="line"/>
      <point x="171" y="718" type="line"/>
    </contour>
  </outline>
</glyph>
<glyph name="period" format="2">
  <advance width="582"/>
  <unicode hex="002E"/>
  <outline>
    <contour>
      <point x="207" y="-12" type="qcurve" smooth="yes"/>
      <point x="149" y="-12"/>
      <point x="79" y="72"/>
      <point x="89" y="130" type="qcurve" smooth="yes"/>
      <point x="97" y="180"/>
      <point x="180" y="250"/>
      <point x="229" y="250" type="qcurve" smooth="yes"/>
      <point x="288" y="250"/>
      <point x="357" y="166"/>
      <point x="347" y="108" type="qcurve" smooth="yes"/>
      <point x="339" y="58"/>
      <point x="257" y="-12"/>
    </contour>
  </outline>
</glyph>
<glyph name="slash" format="2">
  <advance width="730"/>
  <unicode hex="002F"/>
  <outline>
    <contour>
      <point x="850" y="1560" type="line"/>
      <point x="76" y="-224" type="line"/>
      <point x="-82" y="-224" type="line"/>
      <point x="692" y="1560" type="line"/>
    </contour>
  </outline>
</glyph>
<glyph name="zero" format="2">
  <advance width="1291"/>
  <unicode hex="0030"/>
  <anchor x="965" y="1490" name="m.uni030F_1"/>
  <outline>
    <contour>
      <point x="550" y="-20" type="curve" smooth="yes"/>
      <point x="439" y="-20"/>
      <point x="350" y="10"/>
      <point x="282" y="70" type="curve" smooth="yes"/>
      <point x="145" y="190"/>
      <point x="99" y="421"/>
      <point x="152" y="744" type="curve" smooth="yes"/>
      <point x="179" y="906"/>
      <point x="222" y="1044"/>
      <point x="283" y="1158" type="curve" smooth="yes"/>
      <point x="404" y="1386"/>
      <point x="584" y="1510"/>
      <point x="803" y="1510" type="curve" smooth="yes"/>
      <point x="912" y="1510"/>
      <point x="1001" y="1480"/>
      <point x="1070" y="1420" type="curve" smooth="yes"/>
      <point x="1206" y="1300"/>
      <point x="1254" y="1070"/>
      <point x="1201" y="747" type="curve" smooth="yes"/>
      <point x="1174" y="584"/>
      <point x="1131" y="445"/>
      <point x="1071" y="331" type="curve" smooth="yes"/>
      <point x="951" y="102"/>
      <point x="771" y="-20"/>
    </contour>
    <contour>
      <point x="577" y="146" type="curve" smooth="yes"/>
      <point x="650" y="146"/>
      <point x="716" y="170"/>
      <point x="775" y="218" type="curve" smooth="yes"/>
      <point x="892" y="313"/>
      <point x="977" y="495"/>
      <point x="1018" y="747" type="curve" smooth="yes"/>
      <point x="1049" y="933"/>
      <point x="1044" y="1079"/>
      <point x="1003" y="1186" type="curve" smooth="yes"/>
      <point x="962" y="1292"/>
      <point x="887" y="1345"/>
      <point x="776" y="1345" type="curve" smooth="yes"/>
      <point x="705" y="1345"/>
      <point x="640" y="1322"/>
      <point x="581" y="1276" type="curve" smooth="yes"/>
      <point x="464" y="1183"/>
      <point x="378" y="1002"/>
      <point x="335" y="743" type="curve" smooth="yes"/>
      <point x="304" y="555"/>
      <point x="310" y="409"/>
      <point x="352" y="304" type="curve" smooth="yes"/>
      <point x="393" y="199"/>
      <point x="468" y="146"/>
    </contour>
  </outline>
</glyph>
<glyph name="one" format="2">
  <advance width="825"/>
  <unicode hex="0031"/>
  <outline>
    <contour>
      <point x="799" y="1490" type="line"/>
      <point x="552" y="0" type="line"/>
      <point x="376" y="0" type="line"/>
      <point x="595" y="1322" type="line"/>
      <point x="585" y="1322" type="line"/>
      <point x="178" y="1053" type="line"/>
      <point x="211" y="1250" type="line"/>
      <point x="575" y="1490" type="line"/>
    </contour>
  </outline>
</glyph>
<glyph name="one.ss01" format="2">
  <advance width="868"/>
  <unicode hex="0031"/>
  <unicode hex="E06C"/>
  <outline>
    <contour>
      <point x="409" y="0" type="line"/>
      <point x="616" y="1253" type="line"/>
      <point x="628" y="1120" type="line"/>
      <point x="575" y="1120"/>
      <point x="498" y="1120"/>
      <point x="420" y="1120" type="curve" smooth="yes"/>
      <point x="348" y="1120"/>
      <point x="275" y="1120"/>
      <point x="220" y="1120" type="curve"/>
      <point x="245" y="1266" type="line"/>
      <point x="269" y="1266"/>
      <point x="293" y="1267"/>
      <point x="317" y="1269" type="curve" smooth="yes"/>
      <point x="487" y="1283"/>
      <point x="608" y="1356"/>
      <point x="680" y="1490" type="curve"/>
      <point x="842" y="1490" type="line"/>
      <point x="595" y="0" type="line"/>
    </contour>
  </outline>
</glyph>
<glyph name="two" format="2">
  <advance width="1249"/>
  <unicode hex="0032"/>
  <anchor x="946" y="1490" name="m.uni030F_1"/>
  <outline>
    <contour>
      <point x="61" y="0" type="line"/>
      <point x="84" y="137" type="line"/>
      <point x="667" y="674" type="line" smooth="yes"/>
      <point x="766" y="765"/>
      <point x="900" y="903"/>
      <point x="975" y="1026"/>
      <point x="986" y="1095" type="qcurve" smooth="yes"/>
      <point x="1005" y="1213"/>
      <point x="879" y="1345"/>
      <point x="762" y="1345" type="qcurve" smooth="yes"/>
      <point x="678" y="1345"/>
      <point x="534" y="1276"/>
      <point x="437" y="1152"/>
      <point x="423" y="1067" type="qcurve"/>
      <point x="242" y="1067" type="line"/>
      <point x="264" y="1199"/>
      <point x="415" y="1398"/>
      <point x="639" y="1510"/>
      <point x="772" y="1510" type="qcurve" smooth="yes"/>
      <point x="906" y="1510"/>
      <point x="1096" y="1398"/>
      <point x="1185" y="1209"/>
      <point x="1165" y="1092" type="qcurve" smooth="yes"/>
      <point x="1155" y="1031"/>
      <point x="1102" y="914"/>
      <point x="1005" y="786"/>
      <point x="850" y="628"/>
      <point x="737" y="526" type="qcurve" smooth="yes"/>
      <point x="353" y="179" type="line"/>
      <point x="351" y="167" type="line"/>
      <point x="1037" y="167" type="line"/>
      <point x="1010" y="0" type="line"/>
    </contour>
  </outline>
</glyph>
<glyph name="three.1" format="2">
  <advance width="1309"/>
  <unicode hex="0033"/>
  <unicode hex="E06D"/>
  <outline>
    <contour>
      <point x="576" y="-20" type="qcurve" smooth="yes"/>
      <point x="444" y="-20"/>
      <point x="229" y="73"/>
      <point x="110" y="248"/>
      <point x="121" y="372" type="qcurve"/>
      <point x="305" y="372" type="line"/>
      <point x="301" y="297"/>
      <point x="368" y="193"/>
      <point x="496" y="140"/>
      <point x="582" y="140" type="qcurve" smooth="yes"/>
      <point x="675" y="140"/>
      <point x="838" y="202"/>
      <point x="949" y="326"/>
      <point x="964" y="418" type="qcurve" smooth="yes"/>
      <point x="978" y="499"/>
      <point x="933" y="638"/>
      <point x="787" y="724"/>
      <point x="649" y="724" type="qcurve" smooth="yes"/>
      <point x="505" y="724" type="line"/>
      <point x="529" y="870" type="line"/>
      <point x="983" y="1318" type="line"/>
      <point x="985" y="1330" type="line"/>
      <point x="353" y="1330" type="line"/>
      <point x="380" y="1490" type="line"/>
      <point x="1262" y="1490" type="line"/>
      <point x="1240" y="1358" type="line"/>
      <point x="681" y="811" type="line"/>
      <point x="686" y="840" type="line"/>
      <point x="851" y="856"/>
      <point x="1068" y="746"/>
      <point x="1163" y="543"/>
      <point x="1142" y="418" type="qcurve" smooth="yes"/>
      <point x="1121" y="291"/>
      <point x="966" y="93"/>
      <point x="726" y="-20"/>
    </contour>
  </outline>
</glyph>
<glyph name="three" format="2">
  <advance width="1304"/>
  <unicode hex="0033"/>
  <anchor x="885" y="1490" name="m.uni030F_1"/>
  <outline>
    <contour>
      <point x="570" y="-20" type="qcurve" smooth="yes"/>
      <point x="426" y="-20"/>
      <point x="213" y="78"/>
      <point x="107" y="255"/>
      <point x="121" y="372" type="qcurve"/>
      <point x="303" y="372" type="line"/>
      <point x="297" y="300"/>
      <point x="366" y="196"/>
      <point x="498" y="140"/>
      <point x="584" y="140" type="qcurve" smooth="yes"/>
      <point x="680" y="140"/>
      <point x="840" y="207"/>
      <point x="945" y="326"/>
      <point x="958" y="404" type="qcurve" smooth="yes"/>
      <point x="978" y="528"/>
      <point x="821" y="684"/>
      <point x="652" y="684" type="qcurve" smooth="yes"/>
      <point x="532" y="684" type="line"/>
      <point x="559" y="844" type="line"/>
      <point x="679" y="844" type="line" smooth="yes"/>
      <point x="767" y="844"/>
      <point x="912" y="908"/>
      <point x="1006" y="1024"/>
      <point x="1019" y="1102" type="qcurve" smooth="yes"/>
      <point x="1038" y="1215"/>
      <point x="915" y="1352"/>
      <point x="791" y="1352" type="qcurve" smooth="yes"/>
      <point x="714" y="1352"/>
      <point x="568" y="1296"/>
      <point x="465" y="1192"/>
      <point x="450" y="1118" type="qcurve"/>
      <point x="276" y="1118" type="line"/>
      <point x="300" y="1235"/>
      <point x="457" y="1411"/>
      <point x="684" y="1510"/>
      <point x="813" y="1510" type="qcurve" smooth="yes"/>
      <point x="951" y="1510"/>
      <point x="1134" y="1399"/>
      <point x="1215" y="1217"/>
      <point x="1197" y="1112" type="qcurve" smooth="yes"/>
      <point x="1176" y="985"/>
      <point x="1016" y="809"/>
      <point x="897" y="774" type="qcurve"/>
      <point x="895" y="762" type="line"/>
      <point x="986" y="747"/>
      <point x="1103" y="649"/>
      <point x="1150" y="499"/>
      <point x="1134" y="404" type="qcurve" smooth="yes"/>
      <point x="1114" y="283"/>
      <point x="955" y="91"/>
      <point x="714" y="-20"/>
    </contour>
  </outline>
</glyph>
<glyph name="three.ss01" format="2">
  <advance width="1318"/>
  <unicode hex="0033"/>
  <unicode hex="E06D"/>
  <anchor x="990" y="1490" name="m.uni030F_1"/>
  <outline>
    <contour>
      <point x="580" y="-20" type="curve" smooth="yes"/>
      <point x="490" y="-20"/>
      <point x="409" y="-4"/>
      <point x="337" y="27" type="curve" smooth="yes"/>
      <point x="264" y="58"/>
      <point x="208" y="104"/>
      <point x="169" y="163" type="curve" smooth="yes"/>
      <point x="129" y="222"/>
      <point x="113" y="293"/>
      <point x="121" y="376" type="curve"/>
      <point x="315" y="376" type="line"/>
      <point x="312" y="327"/>
      <point x="322" y="285"/>
      <point x="344" y="251" type="curve" smooth="yes"/>
      <point x="388" y="182"/>
      <point x="474" y="147"/>
      <point x="587" y="147" type="curve" smooth="yes"/>
      <point x="647" y="147"/>
      <point x="704" y="157"/>
      <point x="757" y="177" type="curve" smooth="yes"/>
      <point x="863" y="217"/>
      <point x="942" y="298"/>
      <point x="962" y="419" type="curve" smooth="yes"/>
      <point x="971" y="472"/>
      <point x="969" y="522"/>
      <point x="954" y="568" type="curve" smooth="yes"/>
      <point x="939" y="613"/>
      <point x="908" y="650"/>
      <point x="861" y="679" type="curve" smooth="yes"/>
      <point x="814" y="707"/>
      <point x="745" y="721"/>
      <point x="654" y="721" type="curve" smooth="yes"/>
      <point x="506" y="721" type="line"/>
      <point x="531" y="872" type="line"/>
      <point x="980" y="1311" type="line"/>
      <point x="982" y="1323" type="line"/>
      <point x="351" y="1323" type="line"/>
      <point x="380" y="1490" type="line"/>
      <point x="1271" y="1490" type="line"/>
      <point x="1247" y="1351" type="line"/>
      <point x="688" y="810" type="line"/>
      <point x="692" y="841" type="line"/>
      <point x="801" y="852"/>
      <point x="893" y="840"/>
      <point x="966" y="804" type="curve" smooth="yes"/>
      <point x="1039" y="767"/>
      <point x="1091" y="715"/>
      <point x="1124" y="648" type="curve" smooth="yes"/>
      <point x="1156" y="580"/>
      <point x="1165" y="504"/>
      <point x="1151" y="419" type="curve" smooth="yes"/>
      <point x="1137" y="335"/>
      <point x="1104" y="260"/>
      <point x="1053" y="194" type="curve" smooth="yes"/>
      <point x="949" y="61"/>
      <point x="783" y="-20"/>
    </contour>
  </outline>
</glyph>
<glyph name="five" format="2">
  <advance width="1245"/>
  <unicode hex="0035"/>
  <outline>
    <contour>
      <point x="523.636" y="-20.3636" type="qcurve" smooth="yes"/>
      <point x="395.636" y="-20.3636"/>
      <point x="206.545" y="81.4545"/>
      <point x="112" y="258.909"/>
      <point x="125.091" y="372.364" type="qcurve"/>
      <point x="299.636" y="372.364" type="line"/>
      <point x="293.091" y="272"/>
      <point x="436.364" y="139.636"/>
      <point x="549.818" y="139.636" type="qcurve" smooth="yes"/>
      <point x="641.455" y="139.636"/>
      <point x="799.273" y="225.455"/>
      <point x="906.182" y="375.273"/>
      <point x="922.182" y="471.273" type="qcurve" smooth="yes"/>
      <point x="938.182" y="568.727"/>
      <point x="878.545" y="722.909"/>
      <point x="744.727" y="811.636"/>
      <point x="648.727" y="811.636" type="qcurve" smooth="yes"/>
      <point x="581.091" y="811.636"/>
      <point x="430.545" y="768.727"/>
      <point x="364.364" y="689.455" type="qcurve"/>
      <point x="192.727" y="689.455" type="line"/>
      <point x="424.727" y="1489.45" type="line"/>
      <point x="1198.55" y="1489.45" type="line"/>
      <point x="1172.36" y="1329.45" type="line"/>
      <point x="549.818" y="1329.45" type="line"/>
      <point x="424.727" y="890.182" type="line"/>
      <point x="433.455" y="890.182" type="line"/>
      <point x="485.818" y="927.273"/>
      <point x="630.545" y="974.545"/>
      <point x="706.909" y="974.545" type="qcurve" smooth="yes"/>
      <point x="843.636" y="974.545"/>
      <point x="1036.36" y="844.364"/>
      <point x="1121.45" y="618.182"/>
      <point x="1096.73" y="474.182" type="qcurve"/>
      <point x="1073.45" y="331.636"/>
      <point x="909.818" y="108.364"/>
      <point x="666.182" y="-20.3636"/>
    </contour>
  </outline>
</glyph>
<glyph name="six.ss01" format="2">
  <advance width="1189"/>
  <unicode hex="0036"/>
  <unicode hex="E06F"/>
  <outline>
    <contour>
      <point x="500" y="-20" type="curve" smooth="yes"/>
      <point x="408" y="-20"/>
      <point x="330" y="1"/>
      <point x="266" y="43" type="curve" smooth="yes"/>
      <point x="201" y="85"/>
      <point x="155" y="143"/>
      <point x="127" y="218" type="curve" smooth="yes"/>
      <point x="98" y="292"/>
      <point x="92" y="377"/>
      <point x="107" y="472" type="curve" smooth="yes"/>
      <point x="115" y="519"/>
      <point x="130" y="568"/>
      <point x="151" y="618" type="curve" smooth="yes"/>
      <point x="194" y="718"/>
      <point x="274" y="836"/>
      <point x="406" y="993" type="curve" smooth="yes"/>
      <point x="825" y="1490" type="line"/>
      <point x="1030" y="1490" type="line"/>
      <point x="412" y="763" type="line"/>
      <point x="393" y="763" type="line"/>
      <point x="411" y="791"/>
      <point x="435" y="817"/>
      <point x="464" y="840" type="curve" smooth="yes"/>
      <point x="523" y="886"/>
      <point x="598" y="915"/>
      <point x="678" y="915" type="curve" smooth="yes"/>
      <point x="769" y="915"/>
      <point x="846" y="896"/>
      <point x="907" y="858" type="curve" smooth="yes"/>
      <point x="968" y="820"/>
      <point x="1011" y="767"/>
      <point x="1036" y="698" type="curve" smooth="yes"/>
      <point x="1061" y="629"/>
      <point x="1066" y="549"/>
      <point x="1051" y="457" type="curve" smooth="yes"/>
      <point x="1036" y="365"/>
      <point x="1002" y="283"/>
      <point x="949" y="212" type="curve" smooth="yes"/>
      <point x="896" y="140"/>
      <point x="831" y="83"/>
      <point x="754" y="42" type="curve" smooth="yes"/>
      <point x="676" y="1"/>
      <point x="591" y="-20"/>
    </contour>
    <contour>
      <point x="526" y="143" type="curve" smooth="yes"/>
      <point x="583" y="143"/>
      <point x="636" y="157"/>
      <point x="685" y="184" type="curve" smooth="yes"/>
      <point x="733" y="211"/>
      <point x="773" y="249"/>
      <point x="806" y="296" type="curve" smooth="yes"/>
      <point x="839" y="343"/>
      <point x="860" y="397"/>
      <point x="870" y="458" type="curve" smooth="yes"/>
      <point x="881" y="521"/>
      <point x="877" y="576"/>
      <point x="860" y="623" type="curve" smooth="yes"/>
      <point x="825" y="718"/>
      <point x="745" y="773"/>
      <point x="630" y="773" type="curve" smooth="yes"/>
      <point x="573" y="773"/>
      <point x="521" y="760"/>
      <point x="473" y="734" type="curve" smooth="yes"/>
      <point x="424" y="708"/>
      <point x="384" y="672"/>
      <point x="351" y="625" type="curve" smooth="yes"/>
      <point x="318" y="578"/>
      <point x="296" y="524"/>
      <point x="285" y="462" type="curve" smooth="yes"/>
      <point x="275" y="400"/>
      <point x="279" y="345"/>
      <point x="296" y="297" type="curve" smooth="yes"/>
      <point x="330" y="201"/>
      <point x="411" y="143"/>
    </contour>
  </outline>
</glyph>
<glyph name="seven" format="2">
  <advance width="1153"/>
  <unicode hex="0037"/>
  <outline>
    <contour>
      <point x="97" y="0" type="line"/>
      <point x="981" y="1318" type="line"/>
      <point x="983" y="1330" type="line"/>
      <point x="226" y="1330" type="line"/>
      <point x="253" y="1490" type="line"/>
      <point x="1209" y="1490" type="line"/>
      <point x="1181" y="1320" type="line"/>
      <point x="298" y="0" type="line"/>
    </contour>
  </outline>
</glyph>
<glyph name="eight" format="2">
  <advance width="1254"/>
  <unicode hex="0038"/>
  <outline>
    <contour>
      <point x="539" y="-20" type="qcurve" smooth="yes"/>
      <point x="389" y="-20"/>
      <point x="174" y="87"/>
      <point x="74" y="275"/>
      <point x="94" y="396" type="qcurve" smooth="yes"/>
      <point x="110" y="490"/>
      <point x="211" y="651"/>
      <point x="359" y="759"/>
      <point x="444" y="774" type="qcurve"/>
      <point x="445" y="782" type="line"/>
      <point x="343" y="810"/>
      <point x="247" y="996"/>
      <point x="266" y="1114" type="qcurve" smooth="yes"/>
      <point x="285" y="1228"/>
      <point x="427" y="1407"/>
      <point x="645" y="1510"/>
      <point x="776" y="1510" type="qcurve" smooth="yes"/>
      <point x="905" y="1510"/>
      <point x="1095" y="1407"/>
      <point x="1187" y="1228"/>
      <point x="1168" y="1114" type="qcurve" smooth="yes"/>
      <point x="1155" y="1035"/>
      <point x="1075" y="898"/>
      <point x="954" y="801"/>
      <point x="881" y="782" type="qcurve"/>
      <point x="880" y="774" type="line"/>
      <point x="958" y="759"/>
      <point x="1071" y="651"/>
      <point x="1122" y="490"/>
      <point x="1106" y="396" type="qcurve" smooth="yes"/>
      <point x="1086" y="275"/>
      <point x="929" y="87"/>
      <point x="688" y="-20"/>
    </contour>
    <contour>
      <point x="549" y="140" type="qcurve" smooth="yes"/>
      <point x="650" y="140"/>
      <point x="812" y="205"/>
      <point x="916" y="324"/>
      <point x="929" y="404" type="qcurve" smooth="yes"/>
      <point x="943" y="488"/>
      <point x="883" y="618"/>
      <point x="751" y="692"/>
      <point x="657" y="692" type="qcurve" smooth="yes"/>
      <point x="561" y="692"/>
      <point x="396" y="618"/>
      <point x="285" y="488"/>
      <point x="271" y="404" type="qcurve" smooth="yes"/>
      <point x="258" y="324"/>
      <point x="313" y="205"/>
      <point x="447" y="140"/>
    </contour>
    <contour>
      <point x="666" y="846" type="qcurve" smooth="yes"/>
      <point x="746" y="846"/>
      <point x="885" y="910"/>
      <point x="980" y="1025"/>
      <point x="992" y="1102" type="qcurve" smooth="yes"/>
      <point x="1005" y="1178"/>
      <point x="958" y="1290"/>
      <point x="848" y="1352"/>
      <point x="766" y="1352" type="qcurve" smooth="yes"/>
      <point x="682" y="1352"/>
      <point x="543" y="1290"/>
      <point x="451" y="1178"/>
      <point x="438" y="1102" type="qcurve" smooth="yes"/>
      <point x="426" y="1025"/>
      <point x="473" y="910"/>
      <point x="584" y="846"/>
    </contour>
  </outline>
</glyph>
<glyph name="nine" format="2">
  <advance width="1257"/>
  <unicode hex="0039"/>
  <outline>
    <contour>
      <point x="517" y="-20" type="qcurve" smooth="yes"/>
      <point x="392" y="-20"/>
      <point x="203" y="80"/>
      <point x="100" y="258"/>
      <point x="102" y="376" type="qcurve"/>
      <point x="280" y="376" type="line"/>
      <point x="288" y="273"/>
      <point x="401" y="140"/>
      <point x="519" y="140" type="qcurve" smooth="yes"/>
      <point x="634" y="140"/>
      <point x="827" y="275"/>
      <point x="965" y="533"/>
      <point x="995" y="716" type="qcurve"/>
      <point x="983" y="716" type="line"/>
      <point x="932" y="655"/>
      <point x="808" y="566"/>
      <point x="669" y="518"/>
      <point x="592" y="518" type="qcurve" smooth="yes"/>
      <point x="464" y="518"/>
      <point x="267" y="645"/>
      <point x="172" y="868"/>
      <point x="196" y="1012" type="qcurve" smooth="yes"/>
      <point x="219" y="1149"/>
      <point x="371" y="1376"/>
      <point x="609" y="1512"/>
      <point x="760" y="1510" type="qcurve" smooth="yes"/>
      <point x="852" y="1509"/>
      <point x="1028" y="1441"/>
      <point x="1160" y="1283"/>
      <point x="1211" y="1011"/>
      <point x="1177" y="806" type="qcurve" smooth="yes"/>
      <point x="1144" y="607"/>
      <point x="1024" y="300"/>
      <point x="855" y="89"/>
      <point x="642" y="-20"/>
    </contour>
    <contour>
      <point x="632" y="678" type="qcurve" smooth="yes"/>
      <point x="701" y="678"/>
      <point x="830" y="733"/>
      <point x="936" y="828"/>
      <point x="1007" y="949"/>
      <point x="1018" y="1016" type="qcurve" smooth="yes"/>
      <point x="1033" y="1103"/>
      <point x="973" y="1256"/>
      <point x="843" y="1350"/>
      <point x="749" y="1350" type="qcurve" smooth="yes"/>
      <point x="658" y="1350"/>
      <point x="497" y="1259"/>
      <point x="387" y="1106"/>
      <point x="372" y="1012" type="qcurve" smooth="yes"/>
      <point x="357" y="919"/>
      <point x="413" y="767"/>
      <point x="541" y="678"/>
    </contour>
  </outline>
</glyph>
<glyph name="nine.ss01" format="2">
  <advance width="1178"/>
  <unicode hex="0039"/>
  <unicode hex="E070"/>
  <outline>
    <contour>
      <point x="746" y="1510" type="qcurve" smooth="yes"/>
      <point x="883" y="1510"/>
      <point x="1073" y="1383"/>
      <point x="1157" y="1161"/>
      <point x="1133" y="1018" type="qcurve" smooth="yes"/>
      <point x="1122" y="949"/>
      <point x="1058" y="799"/>
      <point x="934" y="616"/>
      <point x="832" y="496" type="qcurve" smooth="yes"/>
      <point x="414" y="0" type="line"/>
      <point x="218" y="0" type="line"/>
      <point x="839" y="731" type="line"/>
      <point x="852" y="731" type="line"/>
      <point x="825" y="689"/>
      <point x="739" y="619"/>
      <point x="631" y="578"/>
      <point x="572" y="578" type="qcurve" smooth="yes"/>
      <point x="437" y="578"/>
      <point x="254" y="691"/>
      <point x="177" y="896"/>
      <point x="200" y="1034" type="qcurve" smooth="yes"/>
      <point x="223" y="1172"/>
      <point x="379" y="1387"/>
      <point x="611" y="1510"/>
    </contour>
    <contour>
      <point x="720" y="1354" type="qcurve" smooth="yes"/>
      <point x="633" y="1354"/>
      <point x="486" y="1271"/>
      <point x="387" y="1127"/>
      <point x="372" y="1034" type="qcurve" smooth="yes"/>
      <point x="356" y="939"/>
      <point x="408" y="795"/>
      <point x="528" y="714"/>
      <point x="615" y="714" type="qcurve" smooth="yes"/>
      <point x="703" y="714"/>
      <point x="850" y="795"/>
      <point x="950" y="937"/>
      <point x="965" y="1030" type="qcurve" smooth="yes"/>
      <point x="981" y="1125"/>
      <point x="928" y="1271"/>
      <point x="808" y="1354"/>
    </contour>
  </outline>
</glyph>
<glyph name="less" format="2">
  <advance width="1350"/>
  <unicode hex="003C"/>
  <outline>
    <contour>
      <point x="168" y="524" type="line"/>
      <point x="188" y="640" type="line"/>
      <point x="1202" y="1118" type="line"/>
      <point x="1174" y="930" type="line"/>
      <point x="398" y="584" type="line"/>
      <point x="402" y="596" type="line"/>
      <point x="400" y="568" type="line"/>
      <point x="394" y="578" type="line"/>
      <point x="1058" y="232" type="line"/>
      <point x="1026" y="46" type="line"/>
    </contour>
  </outline>
</glyph>
<glyph name="equal" format="2">
  <advance width="1350"/>
  <unicode hex="003D"/>
  <outline>
    <contour>
      <point x="254" y="718" type="line"/>
      <point x="280" y="876" type="line"/>
      <point x="1176" y="876" type="line"/>
      <point x="1150" y="718" type="line"/>
    </contour>
    <contour>
      <point x="182" y="288" type="line"/>
      <point x="208" y="446" type="line"/>
      <point x="1104" y="446" type="line"/>
      <point x="1078" y="288" type="line"/>
    </contour>
  </outline>
</glyph>
<glyph name="greater" format="2">
  <advance width="1349"/>
  <unicode hex="003E"/>
  <outline>
    <contour>
      <point x="1168" y="524" type="line"/>
      <point x="154" y="46" type="line"/>
      <point x="186" y="232" type="line"/>
      <point x="958" y="578" type="line"/>
      <point x="954" y="568" type="line"/>
      <point x="956" y="596" type="line"/>
      <point x="962" y="584" type="line"/>
      <point x="302" y="930" type="line"/>
      <point x="330" y="1118" type="line"/>
      <point x="1188" y="640" type="line"/>
    </contour>
  </outline>
</glyph>
<glyph name="question" format="2">
  <advance width="1038"/>
  <unicode hex="003F"/>
  <outline>
    <contour>
      <point x="364" y="448" type="line"/>
      <point x="365" y="458" type="line"/>
      <point x="388" y="597"/>
      <point x="468" y="746"/>
      <point x="584" y="833"/>
      <point x="662" y="876" type="qcurve" smooth="yes"/>
      <point x="733" y="914"/>
      <point x="842" y="1039"/>
      <point x="856" y="1126" type="qcurve" smooth="yes"/>
      <point x="868" y="1197"/>
      <point x="818" y="1301"/>
      <point x="715" y="1358"/>
      <point x="646" y="1358" type="qcurve" smooth="yes"/>
      <point x="587" y="1358"/>
      <point x="469" y="1309"/>
      <point x="377" y="1204"/>
      <point x="357" y="1118" type="qcurve"/>
      <point x="175" y="1118" type="line"/>
      <point x="200" y="1241"/>
      <point x="346" y="1417"/>
      <point x="554" y="1510"/>
      <point x="671" y="1510" type="qcurve" smooth="yes"/>
      <point x="800" y="1510"/>
      <point x="973" y="1408"/>
      <point x="1048" y="1231"/>
      <point x="1029" y="1118" type="qcurve" smooth="yes"/>
      <point x="1009" y="997"/>
      <point x="873" y="825"/>
      <point x="768" y="766" type="qcurve" smooth="yes"/>
      <point x="697" y="727"/>
      <point x="607" y="654"/>
      <point x="554" y="548"/>
      <point x="539" y="458" type="qcurve"/>
      <point x="538" y="448" type="line"/>
    </contour>
    <contour>
      <point x="376" y="-12" type="qcurve" smooth="yes"/>
      <point x="322" y="-12"/>
      <point x="258" y="65"/>
      <point x="267" y="119" type="qcurve" smooth="yes"/>
      <point x="276" y="173"/>
      <point x="366" y="250"/>
      <point x="420" y="250" type="qcurve" smooth="yes"/>
      <point x="474" y="250"/>
      <point x="538" y="173"/>
      <point x="529" y="119" type="qcurve" smooth="yes"/>
      <point x="520" y="65"/>
      <point x="430" y="-12"/>
    </contour>
  </outline>
</glyph>
<glyph name="at" format="2">
  <advance width="1975"/>
  <unicode hex="0040"/>
  <outline>
    <contour>
      <point x="901" y="-395" type="curve" smooth="yes"/>
      <point x="604" y="-395"/>
      <point x="384" y="-312"/>
      <point x="249" y="-156" type="curve" smooth="yes"/>
      <point x="113" y="1"/>
      <point x="67" y="232"/>
      <point x="115" y="525" type="curve" smooth="yes"/>
      <point x="138" y="668"/>
      <point x="179" y="795"/>
      <point x="237" y="908" type="curve" smooth="yes"/>
      <point x="294" y="1021"/>
      <point x="367" y="1117"/>
      <point x="456" y="1196" type="curve" smooth="yes"/>
      <point x="545" y="1275"/>
      <point x="647" y="1335"/>
      <point x="764" y="1376" type="curve" smooth="yes"/>
      <point x="881" y="1417"/>
      <point x="1010" y="1438"/>
      <point x="1151" y="1438" type="curve" smooth="yes"/>
      <point x="1426" y="1438"/>
      <point x="1621" y="1343"/>
      <point x="1740" y="1192" type="curve" smooth="yes"/>
      <point x="1859" y="1040"/>
      <point x="1901" y="845"/>
      <point x="1868" y="642" type="curve" smooth="yes"/>
      <point x="1845" y="502"/>
      <point x="1812" y="351"/>
      <point x="1749" y="231" type="curve" smooth="yes"/>
      <point x="1685" y="110"/>
      <point x="1586" y="30"/>
      <point x="1430" y="30" type="curve" smooth="yes"/>
      <point x="1380" y="30"/>
      <point x="1337" y="37"/>
      <point x="1301" y="51" type="curve" smooth="yes"/>
      <point x="1229" y="78"/>
      <point x="1190" y="130"/>
      <point x="1191" y="198" type="curve"/>
      <point x="1183" y="198" type="line"/>
      <point x="1159" y="157"/>
      <point x="1121" y="120"/>
      <point x="1069" y="87" type="curve" smooth="yes"/>
      <point x="1017" y="54"/>
      <point x="952" y="37"/>
      <point x="875" y="37" type="curve" smooth="yes"/>
      <point x="787" y="37"/>
      <point x="716" y="59"/>
      <point x="662" y="102" type="curve" smooth="yes"/>
      <point x="608" y="145"/>
      <point x="571" y="205"/>
      <point x="552" y="280" type="curve" smooth="yes"/>
      <point x="533" y="355"/>
      <point x="531" y="439"/>
      <point x="546" y="533" type="curve" smooth="yes"/>
      <point x="561" y="624"/>
      <point x="591" y="704"/>
      <point x="638" y="775" type="curve" smooth="yes"/>
      <point x="684" y="846"/>
      <point x="741" y="902"/>
      <point x="809" y="943" type="curve" smooth="yes"/>
      <point x="877" y="984"/>
      <point x="951" y="1004"/>
      <point x="1030" y="1004" type="curve" smooth="yes"/>
      <point x="1095" y="1004"/>
      <point x="1149" y="992"/>
      <point x="1190" y="969" type="curve" smooth="yes"/>
      <point x="1231" y="945"/>
      <point x="1258" y="921"/>
      <point x="1271" y="897" type="curve"/>
      <point x="1281" y="897" type="line"/>
      <point x="1295" y="980" type="line"/>
      <point x="1454" y="980" type="line"/>
      <point x="1344" y="321" type="line" smooth="yes"/>
      <point x="1337" y="282"/>
      <point x="1342" y="248"/>
      <point x="1357" y="217" type="curve" smooth="yes"/>
      <point x="1372" y="186"/>
      <point x="1402" y="171"/>
      <point x="1446" y="171" type="curve" smooth="yes"/>
      <point x="1495" y="171"/>
      <point x="1535" y="188"/>
      <point x="1568" y="221" type="curve" smooth="yes"/>
      <point x="1632" y="288"/>
      <point x="1673" y="426"/>
      <point x="1709" y="643" type="curve" smooth="yes"/>
      <point x="1737" y="810"/>
      <point x="1708" y="970"/>
      <point x="1617" y="1094" type="curve" smooth="yes"/>
      <point x="1525" y="1217"/>
      <point x="1369" y="1295"/>
      <point x="1138" y="1295" type="curve" smooth="yes"/>
      <point x="1024" y="1295"/>
      <point x="919" y="1278"/>
      <point x="823" y="1243" type="curve" smooth="yes"/>
      <point x="727" y="1208"/>
      <point x="642" y="1157"/>
      <point x="568" y="1090" type="curve" smooth="yes"/>
      <point x="494" y="1023"/>
      <point x="433" y="941"/>
      <point x="384" y="845" type="curve" smooth="yes"/>
      <point x="335" y="748"/>
      <point x="301" y="639"/>
      <point x="281" y="517" type="curve" smooth="yes"/>
      <point x="241" y="273"/>
      <point x="274" y="82"/>
      <point x="379" y="-49" type="curve" smooth="yes"/>
      <point x="483" y="-180"/>
      <point x="660" y="-249"/>
      <point x="908" y="-249" type="curve" smooth="yes"/>
      <point x="961" y="-249"/>
      <point x="1014" y="-244"/>
      <point x="1068" y="-234" type="curve" smooth="yes"/>
      <point x="1176" y="-214"/>
      <point x="1270" y="-186"/>
      <point x="1311" y="-173" type="curve"/>
      <point x="1330" y="-313" type="line"/>
      <point x="1298" y="-326"/>
      <point x="1258" y="-338"/>
      <point x="1211" y="-351" type="curve" smooth="yes"/>
      <point x="1115" y="-376"/>
      <point x="1004" y="-395"/>
    </contour>
    <contour>
      <point x="899" y="190" type="curve" smooth="yes"/>
      <point x="964" y="190"/>
      <point x="1018" y="203"/>
      <point x="1063" y="229" type="curve" smooth="yes"/>
      <point x="1107" y="255"/>
      <point x="1143" y="294"/>
      <point x="1170" y="347" type="curve" smooth="yes"/>
      <point x="1197" y="399"/>
      <point x="1216" y="464"/>
      <point x="1229" y="543" type="curve" smooth="yes"/>
      <point x="1242" y="622"/>
      <point x="1243" y="684"/>
      <point x="1231" y="729" type="curve" smooth="yes"/>
      <point x="1206" y="819"/>
      <point x="1134" y="853"/>
      <point x="1015" y="853" type="curve" smooth="yes"/>
      <point x="961" y="853"/>
      <point x="912" y="839"/>
      <point x="869" y="811" type="curve" smooth="yes"/>
      <point x="825" y="783"/>
      <point x="789" y="746"/>
      <point x="760" y="699" type="curve" smooth="yes"/>
      <point x="731" y="652"/>
      <point x="712" y="599"/>
      <point x="703" y="542" type="curve" smooth="yes"/>
      <point x="693" y="479"/>
      <point x="692" y="421"/>
      <point x="700" y="368" type="curve" smooth="yes"/>
      <point x="716" y="260"/>
      <point x="778" y="190"/>
    </contour>
  </outline>
</glyph>
<glyph name="B" format="2">
  <advance width="1340"/>
  <unicode hex="0042"/>
  <anchor x="592" y="0" name="m.uni0326"/>
  <anchor x="852" y="1490" name="m.uni030F_1"/>
  <outline>
    <contour>
      <point x="87" y="0" type="line"/>
      <point x="334" y="1490" type="line"/>
      <point x="856" y="1490" type="line" smooth="yes"/>
      <point x="960" y="1490"/>
      <point x="1043" y="1472"/>
      <point x="1106" y="1436" type="curve" smooth="yes"/>
      <point x="1230" y="1363"/>
      <point x="1278" y="1235"/>
      <point x="1254" y="1087" type="curve" smooth="yes"/>
      <point x="1245" y="1026"/>
      <point x="1225" y="975"/>
      <point x="1196" y="934" type="curve" smooth="yes"/>
      <point x="1136" y="851"/>
      <point x="1049" y="803"/>
      <point x="954" y="778" type="curve"/>
      <point x="954" y="768" type="line"/>
      <point x="1001" y="765"/>
      <point x="1045" y="749"/>
      <point x="1087" y="719" type="curve"/>
      <point x="1128" y="688"/>
      <point x="1160" y="645"/>
      <point x="1182" y="590" type="curve" smooth="yes"/>
      <point x="1204" y="534"/>
      <point x="1209" y="467"/>
      <point x="1196" y="388" type="curve" smooth="yes"/>
      <point x="1184" y="313"/>
      <point x="1156" y="247"/>
      <point x="1113" y="189" type="curve" smooth="yes"/>
      <point x="1026" y="72"/>
      <point x="872" y="0"/>
      <point x="639" y="0" type="curve" smooth="yes"/>
    </contour>
    <contour>
      <point x="305" y="167" type="line"/>
      <point x="650" y="167" type="line" smooth="yes"/>
      <point x="768" y="167"/>
      <point x="856" y="192"/>
      <point x="914" y="241" type="curve" smooth="yes"/>
      <point x="972" y="290"/>
      <point x="1006" y="347"/>
      <point x="1017" y="414" type="curve" smooth="yes"/>
      <point x="1025" y="463"/>
      <point x="1020" y="508"/>
      <point x="1001" y="547" type="curve" smooth="yes"/>
      <point x="963" y="626"/>
      <point x="878" y="676"/>
      <point x="755" y="676" type="curve" smooth="yes"/>
      <point x="390" y="676" type="line"/>
    </contour>
    <contour>
      <point x="416" y="836" type="line"/>
      <point x="739" y="836" type="line" smooth="yes"/>
      <point x="792" y="836"/>
      <point x="842" y="847"/>
      <point x="889" y="869" type="curve" smooth="yes"/>
      <point x="984" y="913"/>
      <point x="1056" y="994"/>
      <point x="1073" y="1101" type="curve" smooth="yes"/>
      <point x="1084" y="1163"/>
      <point x="1071" y="1216"/>
      <point x="1036" y="1259" type="curve" smooth="yes"/>
      <point x="1000" y="1302"/>
      <point x="933" y="1323"/>
      <point x="836" y="1323" type="curve" smooth="yes"/>
      <point x="497" y="1323" type="line"/>
    </contour>
  </outline>
</glyph>
<glyph name="C" format="2">
  <advance width="1495"/>
  <unicode hex="0043"/>
  <anchor x="964" y="1490" name="m.uni030F_1"/>
  <anchor x="699" y="1" name="m.uni0327_3"/>
  <outline>
    <contour>
      <point x="698" y="-20" type="curve" smooth="yes"/>
      <point x="585" y="-20"/>
      <point x="487" y="4"/>
      <point x="403" y="52" type="curve" smooth="yes"/>
      <point x="235" y="148"/>
      <point x="139" y="331"/>
      <point x="139" y="580" type="curve" smooth="yes"/>
      <point x="139" y="697"/>
      <point x="157" y="812"/>
      <point x="194" y="923" type="curve" smooth="yes"/>
      <point x="231" y="1034"/>
      <point x="283" y="1133"/>
      <point x="352" y="1222" type="curve" smooth="yes"/>
      <point x="421" y="1310"/>
      <point x="504" y="1380"/>
      <point x="601" y="1432" type="curve" smooth="yes"/>
      <point x="698" y="1484"/>
      <point x="808" y="1510"/>
      <point x="929" y="1510" type="curve" smooth="yes"/>
      <point x="1082" y="1510"/>
      <point x="1213" y="1465"/>
      <point x="1309" y="1381" type="curve" smooth="yes"/>
      <point x="1404" y="1297"/>
      <point x="1459" y="1176"/>
      <point x="1460" y="1021" type="curve"/>
      <point x="1270" y="1021" type="line"/>
      <point x="1266" y="1122"/>
      <point x="1228" y="1200"/>
      <point x="1165" y="1253" type="curve" smooth="yes"/>
      <point x="1102" y="1306"/>
      <point x="1018" y="1334"/>
      <point x="922" y="1334" type="curve" smooth="yes"/>
      <point x="829" y="1334"/>
      <point x="745" y="1313"/>
      <point x="671" y="1270" type="curve" smooth="yes"/>
      <point x="597" y="1227"/>
      <point x="534" y="1170"/>
      <point x="483" y="1098" type="curve" smooth="yes"/>
      <point x="431" y="1026"/>
      <point x="391" y="946"/>
      <point x="364" y="857" type="curve" smooth="yes"/>
      <point x="337" y="768"/>
      <point x="323" y="677"/>
      <point x="323" y="585" type="curve" smooth="yes"/>
      <point x="323" y="492"/>
      <point x="339" y="413"/>
      <point x="372" y="349" type="curve" smooth="yes"/>
      <point x="437" y="221"/>
      <point x="556" y="156"/>
      <point x="705" y="156" type="curve" smooth="yes"/>
      <point x="806" y="156"/>
      <point x="905" y="184"/>
      <point x="990" y="237" type="curve" smooth="yes"/>
      <point x="1074" y="290"/>
      <point x="1142" y="368"/>
      <point x="1179" y="469" type="curve"/>
      <point x="1370" y="469" type="line"/>
      <point x="1318" y="317"/>
      <point x="1227" y="196"/>
      <point x="1108" y="111" type="curve" smooth="yes"/>
      <point x="988" y="26"/>
      <point x="847" y="-20"/>
    </contour>
  </outline>
</glyph>
<glyph name="D" format="2">
  <advance width="1471"/>
  <unicode hex="0044"/>
  <outline>
    <contour>
      <point x="579" y="0" type="qcurve" smooth="yes"/>
      <point x="189" y="0" type="line"/>
      <point x="215" y="160" type="line"/>
      <point x="561" y="160" type="line" smooth="yes"/>
      <point x="746" y="160"/>
      <point x="1013" y="302"/>
      <point x="1177" y="566"/>
      <point x="1207" y="748" type="qcurve" smooth="yes"/>
      <point x="1237" y="928"/>
      <point x="1161" y="1189"/>
      <point x="950" y="1330"/>
      <point x="775" y="1330" type="qcurve" smooth="yes"/>
      <point x="401" y="1330" type="line"/>
      <point x="428" y="1490" type="line"/>
      <point x="790" y="1490" type="line" smooth="yes"/>
      <point x="1007" y="1490"/>
      <point x="1298" y="1312"/>
      <point x="1419" y="979"/>
      <point x="1381" y="748" type="qcurve" smooth="yes"/>
      <point x="1343" y="515"/>
      <point x="1137" y="180"/>
      <point x="806" y="0"/>
    </contour>
    <contour>
      <point x="514" y="1490" type="line"/>
      <point x="267" y="0" type="line"/>
      <point x="87" y="0" type="line"/>
      <point x="334" y="1490" type="line"/>
    </contour>
  </outline>
</glyph>
<glyph name="E" format="2">
  <advance width="1224"/>
  <unicode hex="0045"/>
  <anchor x="549" y="0" name="m.uni0326"/>
  <anchor x="796" y="1490" name="m.uni030F_1"/>
  <anchor x="513" y="0" name="m.uni0327_3"/>
  <anchor x="1110" y="0" name="m.uni0328_4"/>
  <outline>
    <contour>
      <point x="87" y="0" type="line"/>
      <point x="334" y="1490" type="line"/>
      <point x="1234" y="1490" type="line"/>
      <point x="1207" y="1330" type="line"/>
      <point x="487" y="1330" type="line"/>
      <point x="405" y="832" type="line"/>
      <point x="1077" y="832" type="line"/>
      <point x="1050" y="672" type="line"/>
      <point x="378" y="672" type="line"/>
      <point x="293" y="160" type="line"/>
      <point x="1023" y="160" type="line"/>
      <point x="997" y="0" type="line"/>
    </contour>
  </outline>
</glyph>
<glyph name="F" format="2">
  <advance width="1209"/>
  <unicode hex="0046"/>
  <anchor x="286" y="0" name="m.uni0326"/>
  <anchor x="804" y="1490" name="m.uni030F_1"/>
  <outline>
    <contour>
      <point x="87" y="0" type="line"/>
      <point x="334" y="1490" type="line"/>
      <point x="1235" y="1490" type="line"/>
      <point x="1207" y="1323" type="line"/>
      <point x="496" y="1323" type="line"/>
      <point x="411" y="811" type="line"/>
      <point x="1054" y="811" type="line"/>
      <point x="1027" y="644" type="line"/>
      <point x="384" y="644" type="line"/>
      <point x="277" y="0" type="line"/>
    </contour>
  </outline>
</glyph>
<glyph name="G.1" format="2">
  <advance width="1522"/>
  <unicode hex="0047"/>
  <outline>
    <contour>
      <point x="674" y="-20" type="curve" smooth="yes"/>
      <point x="548" y="-20"/>
      <point x="441" y="11"/>
      <point x="354" y="73" type="curve" smooth="yes"/>
      <point x="267" y="135"/>
      <point x="205" y="223"/>
      <point x="168" y="338" type="curve" smooth="yes"/>
      <point x="131" y="452"/>
      <point x="126" y="587"/>
      <point x="152" y="744" type="curve" smooth="yes"/>
      <point x="191" y="980"/>
      <point x="290" y="1171"/>
      <point x="428" y="1304" type="curve" smooth="yes"/>
      <point x="566" y="1437"/>
      <point x="740" y="1510"/>
      <point x="931" y="1510" type="curve" smooth="yes"/>
      <point x="1088" y="1510"/>
      <point x="1218" y="1462"/>
      <point x="1311" y="1375" type="curve" smooth="yes"/>
      <point x="1403" y="1288"/>
      <point x="1457" y="1168"/>
      <point x="1461" y="1024" type="curve"/>
      <point x="1275" y="1024" type="line"/>
      <point x="1259" y="1123"/>
      <point x="1221" y="1201"/>
      <point x="1158" y="1257" type="curve" smooth="yes"/>
      <point x="1095" y="1312"/>
      <point x="1011" y="1342"/>
      <point x="903" y="1342" type="curve" smooth="yes"/>
      <point x="815" y="1342"/>
      <point x="731" y="1319"/>
      <point x="651" y="1274" type="curve" smooth="yes"/>
      <point x="571" y="1228"/>
      <point x="502" y="1161"/>
      <point x="445" y="1072" type="curve" smooth="yes"/>
      <point x="387" y="983"/>
      <point x="347" y="873"/>
      <point x="326" y="744" type="curve" smooth="yes"/>
      <point x="305" y="615"/>
      <point x="308" y="507"/>
      <point x="337" y="418" type="curve" smooth="yes"/>
      <point x="394" y="241"/>
      <point x="534" y="148"/>
      <point x="718" y="148" type="curve" smooth="yes"/>
      <point x="807" y="148"/>
      <point x="888" y="167"/>
      <point x="959" y="206" type="curve" smooth="yes"/>
      <point x="1102" y="283"/>
      <point x="1198" y="428"/>
      <point x="1230" y="624" type="curve"/>
      <point x="1300" y="624" type="line"/>
      <point x="1277" y="484" type="line" smooth="yes"/>
      <point x="1257" y="363"/>
      <point x="1197" y="240"/>
      <point x="1097" y="142" type="curve" smooth="yes"/>
      <point x="996" y="44"/>
      <point x="855" y="-20"/>
    </contour>
    <contour>
      <point x="1157" y="0" type="line"/>
      <point x="1173" y="279" type="line"/>
      <point x="1224" y="585" type="line"/>
      <point x="829" y="585" type="line"/>
      <point x="855" y="745" type="line"/>
      <point x="1424" y="745" type="line"/>
      <point x="1301" y="0" type="line"/>
    </contour>
  </outline>
</glyph>
<glyph name="H" format="2">
  <advance width="1514"/>
  <unicode hex="0048"/>
  <outline>
    <contour>
      <point x="87" y="0" type="line"/>
      <point x="334" y="1490" type="line"/>
      <point x="514" y="1490" type="line"/>
      <point x="406" y="842" type="line"/>
      <point x="1200" y="842" type="line"/>
      <point x="1308" y="1490" type="line"/>
      <point x="1488" y="1490" type="line"/>
      <point x="1241" y="0" type="line"/>
      <point x="1061" y="0" type="line"/>
      <point x="1174" y="682" type="line"/>
      <point x="380" y="682" type="line"/>
      <point x="267" y="0" type="line"/>
    </contour>
  </outline>
</glyph>
<glyph name="I" format="2">
  <advance width="540"/>
  <unicode hex="0049"/>
  <anchor x="232" y="0" name="m.uni0326"/>
  <anchor x="483" y="1490" name="m.uni030F_1"/>
  <anchor x="487" y="0" name="m.uni0328_4"/>
  <outline>
    <contour>
      <point x="514" y="1490" type="line"/>
      <point x="267" y="0" type="line"/>
      <point x="87" y="0" type="line"/>
      <point x="334" y="1490" type="line"/>
    </contour>
  </outline>
</glyph>
<glyph name="J" format="2">
  <advance width="1169"/>
  <unicode hex="004A"/>
  <anchor x="1149" y="1490" name="m.uni030F_1"/>
  <outline>
    <contour>
      <point x="458" y="-20" type="qcurve" smooth="yes"/>
      <point x="283" y="-20"/>
      <point x="70" y="163"/>
      <point x="70" y="332" type="qcurve" smooth="yes"/>
      <point x="70" y="347"/>
      <point x="73" y="384"/>
      <point x="82" y="450"/>
      <point x="91" y="506" type="qcurve"/>
      <point x="281" y="506" type="line"/>
      <point x="273" y="454"/>
      <point x="264" y="397"/>
      <point x="262" y="368"/>
      <point x="262" y="357" type="qcurve" smooth="yes"/>
      <point x="262" y="255"/>
      <point x="377" y="147"/>
      <point x="477" y="147" type="qcurve" smooth="yes"/>
      <point x="589" y="147"/>
      <point x="754" y="287"/>
      <point x="777" y="426" type="qcurve" smooth="yes"/>
      <point x="954" y="1490" type="line"/>
      <point x="1144" y="1490" type="line"/>
      <point x="967" y="426" type="line" smooth="yes"/>
      <point x="932" y="214"/>
      <point x="657" y="-20"/>
    </contour>
  </outline>
</glyph>
<glyph name="K" format="2">
  <advance width="1376"/>
  <unicode hex="004B"/>
  <anchor x="761" y="0" name="m.uni0326"/>
  <anchor x="1008" y="1490" name="m.uni030F_1"/>
  <outline>
    <contour>
      <point x="288" y="426" type="line"/>
      <point x="312" y="629" type="line"/>
      <point x="354" y="676"/>
      <point x="396" y="720"/>
      <point x="437" y="763" type="curve" smooth="yes"/>
      <point x="478" y="806"/>
      <point x="519" y="847"/>
      <point x="561" y="888" type="curve" smooth="yes"/>
      <point x="603" y="929"/>
      <point x="646" y="969"/>
      <point x="689" y="1009" type="curve" smooth="yes"/>
      <point x="1214" y="1490" type="line"/>
      <point x="1472" y="1490" type="line"/>
      <point x="723" y="808" type="line"/>
      <point x="712" y="809" type="line"/>
    </contour>
    <contour>
      <point x="87" y="0" type="line"/>
      <point x="334" y="1490" type="line"/>
      <point x="525" y="1490" type="line"/>
      <point x="440" y="980" type="line"/>
      <point x="383" y="659" type="line"/>
      <point x="371" y="566" type="line"/>
      <point x="278" y="0" type="line"/>
    </contour>
    <contour>
      <point x="1017" y="0" type="line"/>
      <point x="605" y="758" type="line"/>
      <point x="730" y="906" type="line"/>
      <point x="1226" y="0" type="line"/>
    </contour>
  </outline>
</glyph>
<glyph name="L" format="2">
  <advance width="1158"/>
  <unicode hex="004C"/>
  <anchor x="540" y="0" name="m.uni0326"/>
  <anchor x="529" y="1490" name="m.uni030F_1"/>
  <outline>
    <contour>
      <point x="87" y="0" type="line"/>
      <point x="334" y="1490" type="line"/>
      <point x="524" y="1490" type="line"/>
      <point x="304" y="167" type="line"/>
      <point x="994" y="167" type="line"/>
      <point x="967" y="0" type="line"/>
    </contour>
  </outline>
</glyph>
<glyph name="M" format="2">
  <advance width="1850"/>
  <unicode hex="004D"/>
  <anchor x="992" y="0" name="m.uni0326"/>
  <anchor x="1239" y="1490" name="m.uni030F_1"/>
  <outline>
    <contour>
      <point x="87" y="0" type="line"/>
      <point x="334" y="1490" type="line"/>
      <point x="604" y="1490" type="line"/>
      <point x="815" y="550" type="line" smooth="yes"/>
      <point x="820" y="527"/>
      <point x="826" y="499"/>
      <point x="832" y="466" type="curve"/>
      <point x="837" y="432"/>
      <point x="843" y="396"/>
      <point x="849" y="357" type="curve" smooth="yes"/>
      <point x="854" y="318"/>
      <point x="860" y="280"/>
      <point x="865" y="242" type="curve" smooth="yes"/>
      <point x="870" y="204"/>
      <point x="874" y="169"/>
      <point x="877" y="138" type="curve"/>
      <point x="835" y="138" type="line"/>
      <point x="850" y="171"/>
      <point x="867" y="207"/>
      <point x="885" y="246" type="curve" smooth="yes"/>
      <point x="903" y="285"/>
      <point x="921" y="323"/>
      <point x="940" y="362" type="curve" smooth="yes"/>
      <point x="958" y="400"/>
      <point x="975" y="435"/>
      <point x="992" y="468" type="curve" smooth="yes"/>
      <point x="1008" y="501"/>
      <point x="1022" y="528"/>
      <point x="1034" y="550" type="curve" smooth="yes"/>
      <point x="1553" y="1490" type="line"/>
      <point x="1824" y="1490" type="line"/>
      <point x="1577" y="0" type="line"/>
      <point x="1390" y="0" type="line"/>
      <point x="1530" y="851" type="line" smooth="yes"/>
      <point x="1541" y="918"/>
      <point x="1556" y="1003"/>
      <point x="1573" y="1091" type="curve" smooth="yes"/>
      <point x="1589" y="1179"/>
      <point x="1607" y="1267"/>
      <point x="1620" y="1342" type="curve"/>
      <point x="1636" y="1342" type="line"/>
      <point x="1592" y="1249"/>
      <point x="1543" y="1150"/>
      <point x="1499" y="1062" type="curve" smooth="yes"/>
      <point x="1454" y="974"/>
      <point x="1415" y="899"/>
      <point x="1388" y="851" type="curve" smooth="yes"/>
      <point x="914" y="0" type="line"/>
      <point x="749" y="0" type="line"/>
      <point x="552" y="851" type="line" smooth="yes"/>
      <point x="545" y="882"/>
      <point x="537" y="923"/>
      <point x="528" y="975" type="curve" smooth="yes"/>
      <point x="518" y="1026"/>
      <point x="508" y="1084"/>
      <point x="497" y="1148" type="curve" smooth="yes"/>
      <point x="486" y="1212"/>
      <point x="474" y="1277"/>
      <point x="462" y="1342" type="curve"/>
      <point x="481" y="1342" type="line"/>
      <point x="470" y="1262"/>
      <point x="457" y="1172"/>
      <point x="444" y="1085" type="curve" smooth="yes"/>
      <point x="431" y="997"/>
      <point x="419" y="915"/>
      <point x="408" y="851" type="curve" smooth="yes"/>
      <point x="268" y="0" type="line"/>
    </contour>
  </outline>
</glyph>
<glyph name="N" format="2">
  <advance width="1534"/>
  <unicode hex="004E"/>
  <outline>
    <contour>
      <point x="87" y="0" type="line"/>
      <point x="334" y="1490" type="line"/>
      <point x="548" y="1490" type="line"/>
      <point x="1005" y="520" type="line" smooth="yes"/>
      <point x="1020" y="489"/>
      <point x="1068" y="376"/>
      <point x="1125" y="229"/>
      <point x="1150" y="145" type="qcurve"/>
      <point x="1124" y="145" type="line"/>
      <point x="1129" y="232"/>
      <point x="1147" y="387"/>
      <point x="1167" y="514"/>
      <point x="1174" y="559" type="qcurve" smooth="yes"/>
      <point x="1328" y="1490" type="line"/>
      <point x="1508" y="1490" type="line"/>
      <point x="1261" y="0" type="line"/>
      <point x="1045" y="0" type="line"/>
      <point x="638" y="862" type="line" smooth="yes"/>
      <point x="612" y="918"/>
      <point x="558" y="1041"/>
      <point x="489" y="1213"/>
      <point x="438" y="1340" type="qcurve"/>
      <point x="472" y="1340" type="line"/>
      <point x="457" y="1224"/>
      <point x="434" y="1037"/>
      <point x="417" y="902"/>
      <point x="410" y="864" type="qcurve"/>
      <point x="267" y="0" type="line"/>
    </contour>
  </outline>
</glyph>
<glyph name="O" format="2">
  <advance width="1560"/>
  <unicode hex="004F"/>
  <anchor x="663" y="0" name="m.uni0326"/>
  <anchor x="911" y="1490" name="m.uni030F_1"/>
  <anchor x="1490" y="932" name="m.uni0328_4"/>
  <outline>
    <contour>
      <point x="696" y="-20" type="qcurve" smooth="yes"/>
      <point x="528" y="-20"/>
      <point x="277" y="124"/>
      <point x="139" y="393"/>
      <point x="139" y="579" type="qcurve" smooth="yes"/>
      <point x="139" y="756"/>
      <point x="249" y="1088"/>
      <point x="456" y="1354"/>
      <point x="747" y="1510"/>
      <point x="928" y="1510" type="qcurve" smooth="yes"/>
      <point x="1096" y="1510"/>
      <point x="1345" y="1366"/>
      <point x="1482" y="1098"/>
      <point x="1482" y="912" type="qcurve" smooth="yes"/>
      <point x="1482" y="734"/>
      <point x="1372" y="401"/>
      <point x="1166" y="136"/>
      <point x="876" y="-20"/>
    </contour>
    <contour>
      <point x="702" y="148" type="qcurve" smooth="yes"/>
      <point x="844" y="148"/>
      <point x="1068" y="277"/>
      <point x="1226" y="494"/>
      <point x="1309" y="765"/>
      <point x="1309" y="906" type="qcurve" smooth="yes"/>
      <point x="1309" y="1049"/>
      <point x="1210" y="1243"/>
      <point x="1035" y="1342"/>
      <point x="921" y="1342" type="qcurve" smooth="yes"/>
      <point x="780" y="1342"/>
      <point x="554" y="1213"/>
      <point x="396" y="995"/>
      <point x="312" y="726"/>
      <point x="312" y="585" type="qcurve" smooth="yes"/>
      <point x="312" y="442"/>
      <point x="412" y="247"/>
      <point x="588" y="148"/>
    </contour>
  </outline>
</glyph>
<glyph name="P" format="2">
  <advance width="1300"/>
  <unicode hex="0050"/>
  <anchor x="834" y="1490" name="m.uni030F_1"/>
  <outline>
    <contour>
      <point x="87" y="0" type="line"/>
      <point x="334" y="1490" type="line"/>
      <point x="838" y="1490" type="line" smooth="yes"/>
      <point x="1013" y="1490"/>
      <point x="1215" y="1364"/>
      <point x="1288" y="1150"/>
      <point x="1266" y="1018" type="qcurve" smooth="yes"/>
      <point x="1244" y="887"/>
      <point x="1101" y="671"/>
      <point x="857" y="544"/>
      <point x="683" y="544" type="qcurve" smooth="yes"/>
      <point x="323" y="544" type="line"/>
      <point x="350" y="704" type="line"/>
      <point x="704" y="704" type="line" smooth="yes"/>
      <point x="824" y="704"/>
      <point x="984" y="786"/>
      <point x="1073" y="929"/>
      <point x="1088" y="1018" type="qcurve" smooth="yes"/>
      <point x="1103" y="1108"/>
      <point x="1059" y="1249"/>
      <point x="926" y="1330"/>
      <point x="805" y="1330" type="qcurve" smooth="yes"/>
      <point x="487" y="1330" type="line"/>
      <point x="267" y="0" type="line"/>
    </contour>
  </outline>
</glyph>
<glyph name="R" format="2">
  <advance width="1318"/>
  <unicode hex="0052"/>
  <anchor x="662" y="0" name="m.uni0326"/>
  <anchor x="877" y="1490" name="m.uni030F_1"/>
  <outline>
    <contour>
      <point x="87" y="0" type="line"/>
      <point x="334" y="1490" type="line"/>
      <point x="844" y="1490" type="line" smooth="yes"/>
      <point x="961" y="1490"/>
      <point x="1054" y="1470"/>
      <point x="1123" y="1430" type="curve" smooth="yes"/>
      <point x="1259" y="1350"/>
      <point x="1305" y="1206"/>
      <point x="1276" y="1030" type="curve" smooth="yes"/>
      <point x="1261" y="942"/>
      <point x="1230" y="864"/>
      <point x="1183" y="796" type="curve" smooth="yes"/>
      <point x="1088" y="660"/>
      <point x="926" y="578"/>
      <point x="694" y="578" type="curve" smooth="yes"/>
      <point x="289" y="578" type="line"/>
      <point x="317" y="747" type="line"/>
      <point x="712" y="747" type="line" smooth="yes"/>
      <point x="791" y="747"/>
      <point x="857" y="759"/>
      <point x="909" y="782" type="curve" smooth="yes"/>
      <point x="1013" y="828"/>
      <point x="1068" y="915"/>
      <point x="1087" y="1030" type="curve" smooth="yes"/>
      <point x="1102" y="1123"/>
      <point x="1088" y="1195"/>
      <point x="1044" y="1246" type="curve" smooth="yes"/>
      <point x="1000" y="1297"/>
      <point x="921" y="1323"/>
      <point x="806" y="1323" type="curve" smooth="yes"/>
      <point x="496" y="1323" type="line"/>
      <point x="277" y="0" type="line"/>
    </contour>
    <contour>
      <point x="943" y="0" type="line"/>
      <point x="694" y="671" type="line"/>
      <point x="908" y="671" type="line"/>
      <point x="1163" y="0" type="line"/>
    </contour>
  </outline>
</glyph>
<glyph name="S" format="2">
  <advance width="1312"/>
  <unicode hex="0053"/>
  <anchor x="685" y="0" name="m.uni0326"/>
  <anchor x="939" y="1490" name="m.uni030F_1"/>
  <anchor x="679" y="0" name="m.uni0327_3"/>
  <outline>
    <contour>
      <point x="575" y="-26" type="qcurve" smooth="yes"/>
      <point x="415" y="-26"/>
      <point x="187" y="77"/>
      <point x="75" y="265"/>
      <point x="87" y="390" type="qcurve"/>
      <point x="282" y="390" type="line"/>
      <point x="276" y="306"/>
      <point x="356" y="197"/>
      <point x="499" y="144"/>
      <point x="587" y="144" type="qcurve" smooth="yes"/>
      <point x="688" y="144"/>
      <point x="860" y="210"/>
      <point x="974" y="329"/>
      <point x="987" y="409" type="qcurve" smooth="yes"/>
      <point x="999" y="481"/>
      <point x="934" y="570"/>
      <point x="810" y="628"/>
      <point x="732" y="651" type="qcurve" smooth="yes"/>
      <point x="560" y="702" type="line" smooth="yes"/>
      <point x="400" y="749"/>
      <point x="219" y="933"/>
      <point x="244" y="1089" type="qcurve" smooth="yes"/>
      <point x="264" y="1215"/>
      <point x="423" y="1405"/>
      <point x="665" y="1510"/>
      <point x="810" y="1510" type="qcurve" smooth="yes"/>
      <point x="955" y="1510"/>
      <point x="1172" y="1407"/>
      <point x="1283" y="1228"/>
      <point x="1268" y="1114" type="qcurve"/>
      <point x="1083" y="1114" type="line"/>
      <point x="1088" y="1222"/>
      <point x="926" y="1342"/>
      <point x="792" y="1342" type="qcurve" smooth="yes"/>
      <point x="695" y="1342"/>
      <point x="541" y="1280"/>
      <point x="443" y="1171"/>
      <point x="431" y="1102" type="qcurve" smooth="yes"/>
      <point x="418" y="1024"/>
      <point x="497" y="928"/>
      <point x="622" y="875"/>
      <point x="675" y="859" type="qcurve" smooth="yes"/>
      <point x="817" y="818" type="line" smooth="yes"/>
      <point x="873" y="802"/>
      <point x="1008" y="747"/>
      <point x="1126" y="655"/>
      <point x="1188" y="511"/>
      <point x="1171" y="406" type="qcurve" smooth="yes"/>
      <point x="1151" y="284"/>
      <point x="1000" y="88"/>
      <point x="748" y="-26"/>
    </contour>
  </outline>
</glyph>
<glyph name="T" format="2">
  <advance width="1315"/>
  <unicode hex="0054"/>
  <anchor x="658" y="0" name="m.uni0326"/>
  <anchor x="907" y="1490" name="m.uni030F_1"/>
  <anchor x="647" y="0" name="m.uni0327_3"/>
  <outline>
    <contour>
      <point x="226" y="1330" type="line"/>
      <point x="253" y="1490" type="line"/>
      <point x="1371" y="1490" type="line"/>
      <point x="1344" y="1330" type="line"/>
      <point x="876" y="1330" type="line"/>
      <point x="656" y="0" type="line"/>
      <point x="476" y="0" type="line"/>
      <point x="696" y="1330" type="line"/>
    </contour>
  </outline>
</glyph>
<glyph name="U" format="2">
  <advance width="1518"/>
  <unicode hex="0055"/>
  <outline>
    <contour>
      <point x="674" y="-24" type="qcurve" smooth="yes"/>
      <point x="496" y="-24"/>
      <point x="253" y="117"/>
      <point x="147" y="359"/>
      <point x="172" y="512" type="qcurve" smooth="yes"/>
      <point x="334" y="1490" type="line"/>
      <point x="514" y="1490" type="line"/>
      <point x="353" y="514" type="line" smooth="yes"/>
      <point x="335" y="405"/>
      <point x="400" y="238"/>
      <point x="559" y="144"/>
      <point x="681" y="144" type="qcurve" smooth="yes"/>
      <point x="808" y="144"/>
      <point x="1007" y="244"/>
      <point x="1134" y="417"/>
      <point x="1152" y="526" type="qcurve" smooth="yes"/>
      <point x="1312" y="1490" type="line"/>
      <point x="1492" y="1490" type="line"/>
      <point x="1328" y="500" type="line" smooth="yes"/>
      <point x="1303" y="347"/>
      <point x="1124" y="110"/>
      <point x="847" y="-24"/>
    </contour>
  </outline>
</glyph>
<glyph name="V" format="2">
  <advance width="1402"/>
  <unicode hex="0056"/>
  <outline>
    <contour>
      <point x="509" y="0" type="line"/>
      <point x="206" y="1490" type="line"/>
      <point x="394" y="1490" type="line"/>
      <point x="567" y="592" type="line" smooth="yes"/>
      <point x="581" y="519"/>
      <point x="620" y="274"/>
      <point x="644" y="88" type="qcurve"/>
      <point x="610" y="88" type="line"/>
      <point x="694" y="274"/>
      <point x="814" y="519"/>
      <point x="851" y="592" type="qcurve" smooth="yes"/>
      <point x="1314" y="1490" type="line"/>
      <point x="1504" y="1490" type="line"/>
      <point x="713" y="0" type="line"/>
    </contour>
  </outline>
</glyph>
<glyph name="W" format="2">
  <advance width="2018"/>
  <unicode hex="0057"/>
  <anchor x="1137" y="0" name="m.uni0326"/>
  <anchor x="1384" y="1490" name="m.uni030F_1"/>
  <outline>
    <contour>
      <point x="365" y="0" type="line"/>
      <point x="206" y="1490" type="line"/>
      <point x="400" y="1490" type="line"/>
      <point x="484" y="576" type="line" smooth="yes"/>
      <point x="491" y="503"/>
      <point x="500" y="352"/>
      <point x="507" y="197"/>
      <point x="508" y="115" type="qcurve"/>
      <point x="484" y="115" type="line"/>
      <point x="512" y="197"/>
      <point x="570" y="352"/>
      <point x="631" y="503"/>
      <point x="662" y="576" type="qcurve" smooth="yes"/>
      <point x="1055" y="1490" type="line"/>
      <point x="1271" y="1490" type="line"/>
      <point x="1359" y="576" type="line" smooth="yes"/>
      <point x="1366" y="503"/>
      <point x="1377" y="352"/>
      <point x="1385" y="197"/>
      <point x="1387" y="115" type="qcurve"/>
      <point x="1360" y="115" type="line"/>
      <point x="1388" y="197"/>
      <point x="1447" y="352"/>
      <point x="1507" y="503"/>
      <point x="1538" y="576" type="qcurve" smooth="yes"/>
      <point x="1924" y="1490" type="line"/>
      <point x="2120" y="1490" type="line"/>
      <point x="1465" y="0" type="line"/>
      <point x="1244" y="0" type="line"/>
      <point x="1145" y="944" type="line" smooth="yes"/>
      <point x="1135" y="1037"/>
      <point x="1126" y="1250"/>
      <point x="1127" y="1395" type="qcurve"/>
      <point x="1166" y="1395" type="line"/>
      <point x="1122" y="1258"/>
      <point x="1043" y="1045"/>
      <point x="999" y="944" type="qcurve" smooth="yes"/>
      <point x="587" y="0" type="line"/>
    </contour>
  </outline>
</glyph>
<glyph name="X" format="2">
  <advance width="1397"/>
  <unicode hex="0058"/>
  <anchor x="838" y="-6" name="m.uni0326"/>
  <anchor x="1086" y="1490" name="m.uni030F_1"/>
  <outline>
    <contour>
      <point x="-36" y="0" type="line"/>
      <point x="684" y="833" type="line"/>
      <point x="661" y="692" type="line"/>
      <point x="244" y="1490" type="line"/>
      <point x="455" y="1490" type="line"/>
      <point x="617" y="1174" type="line" smooth="yes"/>
      <point x="653" y="1105"/>
      <point x="698" y="1009"/>
      <point x="734" y="917"/>
      <point x="755" y="852" type="qcurve"/>
      <point x="722" y="852" type="line"/>
      <point x="765" y="916"/>
      <point x="833" y="1009"/>
      <point x="911" y="1106"/>
      <point x="970" y="1174" type="qcurve" smooth="yes"/>
      <point x="1242" y="1490" type="line"/>
      <point x="1466" y="1490" type="line"/>
      <point x="785" y="700" type="line"/>
      <point x="808" y="840" type="line"/>
      <point x="1247" y="0" type="line"/>
      <point x="1036" y="0" type="line"/>
      <point x="838" y="378" type="line" smooth="yes"/>
      <point x="806" y="440"/>
      <point x="763" y="529"/>
      <point x="728" y="618"/>
      <point x="707" y="680" type="qcurve"/>
      <point x="747" y="680" type="line"/>
      <point x="707" y="619"/>
      <point x="641" y="529"/>
      <point x="567" y="440"/>
      <point x="514" y="378" type="qcurve" smooth="yes"/>
      <point x="188" y="0" type="line"/>
    </contour>
  </outline>
</glyph>
<glyph name="Y" format="2">
  <advance width="1390"/>
  <unicode hex="0059"/>
  <anchor x="834" y="0" name="m.uni0326"/>
  <anchor x="1070" y="1490" name="m.uni030F_1"/>
  <anchor x="1155" y="0" name="m.uni0328_4"/>
  <outline>
    <contour>
      <point x="507" y="0" type="line"/>
      <point x="608" y="610" type="line"/>
      <point x="206" y="1490" type="line"/>
      <point x="412" y="1490" type="line"/>
      <point x="627" y="1009" type="line" smooth="yes"/>
      <point x="651" y="955"/>
      <point x="672" y="904"/>
      <point x="690" y="855" type="curve" smooth="yes"/>
      <point x="707" y="806"/>
      <point x="724" y="744"/>
      <point x="739" y="669" type="curve"/>
      <point x="663" y="669" type="line"/>
      <point x="703" y="745"/>
      <point x="740" y="808"/>
      <point x="774" y="858" type="curve" smooth="yes"/>
      <point x="808" y="907"/>
      <point x="845" y="958"/>
      <point x="885" y="1009" type="curve" smooth="yes"/>
      <point x="1259" y="1490" type="line"/>
      <point x="1492" y="1490" type="line"/>
      <point x="798" y="610" type="line"/>
      <point x="697" y="0" type="line"/>
    </contour>
  </outline>
</glyph>
<glyph name="Z" format="2">
  <advance width="1290"/>
  <unicode hex="005A"/>
  <anchor x="734" y="0" name="m.uni0326"/>
  <anchor x="995" y="1490" name="m.uni030F_1"/>
  <outline>
    <contour>
      <point x="38" y="0" type="line"/>
      <point x="61" y="134" type="line"/>
      <point x="1056" y="1323" type="line"/>
      <point x="249" y="1323" type="line"/>
      <point x="277" y="1490" type="line"/>
      <point x="1314" y="1490" type="line"/>
      <point x="1291" y="1354" type="line"/>
      <point x="295" y="167" type="line"/>
      <point x="1102" y="167" type="line"/>
      <point x="1074" y="0" type="line"/>
    </contour>
  </outline>
</glyph>
<glyph name="bracketleft" format="2">
  <advance width="738"/>
  <unicode hex="005B"/>
  <outline>
    <contour>
      <point x="87" y="-279" type="line"/>
      <point x="395" y="1581" type="line"/>
      <point x="785" y="1581" type="line"/>
      <point x="761" y="1435" type="line"/>
      <point x="533" y="1435" type="line"/>
      <point x="273" y="-133" type="line"/>
      <point x="501" y="-133" type="line"/>
      <point x="477" y="-279" type="line"/>
    </contour>
  </outline>
</glyph>
<glyph name="backslash" format="2">
  <advance width="728"/>
  <unicode hex="005C"/>
  <outline>
    <contour>
      <point x="398" y="-224" type="line"/>
      <point x="212" y="1560" type="line"/>
      <point x="366" y="1560" type="line"/>
      <point x="550" y="-224" type="line"/>
    </contour>
  </outline>
</glyph>
<glyph name="asciicircum" format="2">
  <advance width="960"/>
  <unicode hex="005E"/>
  <outline>
    <contour>
      <point x="594" y="1362" type="line"/>
      <point x="646" y="1362" type="line"/>
      <point x="634" y="1288" type="line"/>
      <point x="582" y="1288" type="line"/>
    </contour>
    <contour>
      <point x="126" y="814" type="line"/>
      <point x="526" y="1442" type="line"/>
      <point x="724" y="1442" type="line"/>
      <point x="922" y="814" type="line"/>
      <point x="756" y="814" type="line"/>
      <point x="602" y="1318" type="line"/>
      <point x="620" y="1318" type="line"/>
      <point x="306" y="814" type="line"/>
    </contour>
  </outline>
</glyph>
<glyph name="underscore" format="2">
  <advance width="930"/>
  <unicode hex="005F"/>
  <outline>
    <contour>
      <point x="837" y="0" type="line"/>
      <point x="811" y="-160" type="line"/>
      <point x="-119" y="-160" type="line"/>
      <point x="-93" y="0" type="line"/>
    </contour>
  </outline>
</glyph>
<glyph name="a" format="2">
  <advance width="1142"/>
  <unicode hex="0061"/>
  <anchor x="722" y="0" name="m.uni0326"/>
  <anchor x="765" y="1180" name="m.uni030F_1"/>
  <anchor x="1344" y="0" name="m.uni0328_4"/>
  <outline>
    <contour>
      <point x="846" y="674" type="curve"/>
      <point x="556" y="645" type="line" smooth="yes"/>
      <point x="300" y="619"/>
      <point x="39" y="595"/>
      <point x="39" y="286" type="curve" smooth="yes"/>
      <point x="39" y="76"/>
      <point x="231" y="-24"/>
      <point x="418" y="-24" type="curve" smooth="yes"/>
      <point x="536" y="-24"/>
      <point x="668" y="26"/>
      <point x="736" y="126" type="curve"/>
      <point x="748" y="125" type="line"/>
      <point x="725" y="0" type="line"/>
      <point x="898" y="0" type="line"/>
      <point x="1020" y="696" type="line" smooth="yes"/>
      <point x="1026" y="731"/>
      <point x="1030" y="767"/>
      <point x="1030" y="802" type="curve" smooth="yes"/>
      <point x="1030" y="1039"/>
      <point x="829" y="1132"/>
      <point x="619" y="1132" type="curve" smooth="yes"/>
      <point x="404" y="1132"/>
      <point x="268" y="1057"/>
      <point x="157" y="873" type="curve"/>
      <point x="323" y="814" type="line"/>
      <point x="383" y="923"/>
      <point x="487" y="979"/>
      <point x="610" y="979" type="curve" smooth="yes"/>
      <point x="737" y="979"/>
      <point x="857" y="932"/>
      <point x="857" y="786" type="curve" smooth="yes"/>
      <point x="857" y="740"/>
      <point x="854" y="719"/>
    </contour>
    <contour>
      <point x="816" y="537" type="line"/>
      <point x="790" y="379" type="line" smooth="yes"/>
      <point x="764" y="223"/>
      <point x="617" y="127"/>
      <point x="465" y="127" type="curve" smooth="yes"/>
      <point x="359" y="127"/>
      <point x="213" y="165"/>
      <point x="213" y="297" type="curve" smooth="yes"/>
      <point x="213" y="462"/>
      <point x="387" y="481"/>
      <point x="518" y="498" type="curve" smooth="yes"/>
    </contour>
  </outline>
</glyph>
<glyph name="e" format="2">
  <advance width="1173"/>
  <unicode hex="0065"/>
  <anchor x="617" y="0" name="m.uni0326"/>
  <anchor x="845" y="1180" name="m.uni030F_1"/>
  <anchor x="577" y="0" name="m.uni0327_3"/>
  <anchor x="1260" y="311" name="m.uni0328_4"/>
  <outline>
    <contour>
      <point x="532" y="-24" type="qcurve" smooth="yes"/>
      <point x="395" y="-24"/>
      <point x="198" y="84"/>
      <point x="94" y="286"/>
      <point x="94" y="427" type="qcurve" smooth="yes"/>
      <point x="94" y="574"/>
      <point x="189" y="833"/>
      <point x="356" y="1030"/>
      <point x="576" y="1142"/>
      <point x="701" y="1142" type="qcurve" smooth="yes"/>
      <point x="808" y="1142"/>
      <point x="966" y="1068"/>
      <point x="1052" y="932"/>
      <point x="1052" y="839" type="qcurve" smooth="yes"/>
      <point x="1052" y="746"/>
      <point x="957" y="613"/>
      <point x="756" y="529"/>
      <point x="440" y="489"/>
      <point x="219" y="489" type="qcurve"/>
      <point x="243" y="621" type="line"/>
      <point x="426" y="621"/>
      <point x="672" y="643"/>
      <point x="818" y="695"/>
      <point x="881" y="781"/>
      <point x="881" y="845" type="qcurve" smooth="yes"/>
      <point x="881" y="910"/>
      <point x="773" y="988"/>
      <point x="684" y="988" type="qcurve" smooth="yes"/>
      <point x="570" y="988"/>
      <point x="408" y="879"/>
      <point x="305" y="707"/>
      <point x="257" y="513"/>
      <point x="257" y="428" type="qcurve" smooth="yes"/>
      <point x="257" y="344"/>
      <point x="312" y="208"/>
      <point x="438" y="129"/>
      <point x="542" y="129" type="qcurve" smooth="yes"/>
      <point x="649" y="129"/>
      <point x="821" y="224"/>
      <point x="865" y="306" type="qcurve"/>
      <point x="1023" y="258" type="line"/>
      <point x="961" y="128"/>
      <point x="696" y="-24"/>
    </contour>
  </outline>
</glyph>
<glyph name="f" format="2">
  <advance width="764"/>
  <unicode hex="0066"/>
  <anchor x="468" y="0" name="m.uni0326"/>
  <anchor x="919" y="1597" name="m.uni030F_1"/>
  <outline>
    <contour>
      <point x="780" y="1118" type="line"/>
      <point x="756" y="972" type="line"/>
      <point x="89" y="972" type="line"/>
      <point x="113" y="1118" type="line"/>
    </contour>
    <contour>
      <point x="155" y="0" type="line"/>
      <point x="353" y="1195" type="line" smooth="yes"/>
      <point x="366" y="1274"/>
      <point x="390" y="1340"/>
      <point x="425" y="1395" type="curve" smooth="yes"/>
      <point x="494" y="1503"/>
      <point x="605" y="1560"/>
      <point x="749" y="1560" type="curve" smooth="yes"/>
      <point x="801" y="1560"/>
      <point x="846" y="1551"/>
      <point x="894" y="1540" type="curve"/>
      <point x="844" y="1386" type="line"/>
      <point x="833" y="1389"/>
      <point x="815" y="1391"/>
      <point x="790" y="1392" type="curve" smooth="yes"/>
      <point x="765" y="1393"/>
      <point x="743" y="1394"/>
      <point x="723" y="1394" type="curve" smooth="yes"/>
      <point x="670" y="1394"/>
      <point x="628" y="1378"/>
      <point x="597" y="1346" type="curve" smooth="yes"/>
      <point x="566" y="1314"/>
      <point x="545" y="1265"/>
      <point x="534" y="1198" type="curve" smooth="yes"/>
      <point x="336" y="0" type="line"/>
    </contour>
  </outline>
</glyph>
<glyph name="g" format="2">
  <advance width="1256"/>
  <unicode hex="0067"/>
  <anchor x="597" y="-411" name="m.uni0326"/>
  <anchor x="868" y="1180" name="m.uni030F_1"/>
  <outline>
    <contour>
      <point x="456" y="-442" type="curve" smooth="yes"/>
      <point x="370" y="-442"/>
      <point x="298" y="-431"/>
      <point x="240" y="-409" type="curve" smooth="yes"/>
      <point x="124" y="-364"/>
      <point x="57" y="-288"/>
      <point x="25" y="-209" type="curve"/>
      <point x="180" y="-125" type="line"/>
      <point x="191" y="-145"/>
      <point x="206" y="-168"/>
      <point x="225" y="-193" type="curve" smooth="yes"/>
      <point x="244" y="-218"/>
      <point x="271" y="-239"/>
      <point x="308" y="-258" type="curve" smooth="yes"/>
      <point x="345" y="-276"/>
      <point x="395" y="-285"/>
      <point x="460" y="-285" type="curve" smooth="yes"/>
      <point x="552" y="-285"/>
      <point x="632" y="-263"/>
      <point x="699" y="-218" type="curve" smooth="yes"/>
      <point x="766" y="-173"/>
      <point x="808" y="-104"/>
      <point x="823" y="-13" type="curve" smooth="yes"/>
      <point x="860" y="205" type="line"/>
      <point x="844" y="201" type="line"/>
      <point x="827" y="179"/>
      <point x="805" y="154"/>
      <point x="778" y="125" type="curve" smooth="yes"/>
      <point x="751" y="96"/>
      <point x="715" y="71"/>
      <point x="670" y="50" type="curve" smooth="yes"/>
      <point x="625" y="29"/>
      <point x="568" y="18"/>
      <point x="498" y="18" type="curve" smooth="yes"/>
      <point x="419" y="18"/>
      <point x="349" y="35"/>
      <point x="289" y="68" type="curve" smooth="yes"/>
      <point x="168" y="134"/>
      <point x="96" y="262"/>
      <point x="96" y="443" type="curve" smooth="yes"/>
      <point x="96" y="614"/>
      <point x="149" y="783"/>
      <point x="248" y="915" type="curve" smooth="yes"/>
      <point x="297" y="981"/>
      <point x="357" y="1034"/>
      <point x="427" y="1073" type="curve" smooth="yes"/>
      <point x="497" y="1112"/>
      <point x="576" y="1132"/>
      <point x="664" y="1132" type="curve" smooth="yes"/>
      <point x="775" y="1132"/>
      <point x="844" y="1099"/>
      <point x="888" y="1055" type="curve" smooth="yes"/>
      <point x="931" y="1011"/>
      <point x="952" y="963"/>
      <point x="965" y="934" type="curve"/>
      <point x="986" y="939" type="line"/>
      <point x="1016" y="1118" type="line"/>
      <point x="1191" y="1118" type="line"/>
      <point x="999" y="-35" type="line" smooth="yes"/>
      <point x="983" y="-131"/>
      <point x="949" y="-209"/>
      <point x="897" y="-269" type="curve" smooth="yes"/>
      <point x="793" y="-388"/>
      <point x="635" y="-442"/>
    </contour>
    <contour>
      <point x="531" y="178" type="curve" smooth="yes"/>
      <point x="668" y="178"/>
      <point x="769" y="243"/>
      <point x="835" y="343" type="curve" smooth="yes"/>
      <point x="901" y="442"/>
      <point x="932" y="567"/>
      <point x="932" y="690" type="curve" smooth="yes"/>
      <point x="932" y="775"/>
      <point x="912" y="844"/>
      <point x="871" y="895" type="curve" smooth="yes"/>
      <point x="830" y="946"/>
      <point x="768" y="971"/>
      <point x="685" y="971" type="curve" smooth="yes"/>
      <point x="620" y="971"/>
      <point x="563" y="956"/>
      <point x="512" y="926" type="curve" smooth="yes"/>
      <point x="461" y="896"/>
      <point x="419" y="856"/>
      <point x="384" y="806" type="curve" smooth="yes"/>
      <point x="349" y="755"/>
      <point x="322" y="699"/>
      <point x="304" y="638" type="curve" smooth="yes"/>
      <point x="286" y="577"/>
      <point x="277" y="515"/>
      <point x="277" y="453" type="curve" smooth="yes"/>
      <point x="277" y="370"/>
      <point x="298" y="303"/>
      <point x="340" y="253" type="curve" smooth="yes"/>
      <point x="382" y="203"/>
      <point x="446" y="178"/>
    </contour>
  </outline>
</glyph>
<glyph name="h" format="2">
  <advance width="1200"/>
  <unicode hex="0068"/>
  <outline>
    <contour>
      <point x="346" y="672" type="qcurve" smooth="yes"/>
      <point x="235" y="0" type="line"/>
      <point x="65" y="0" type="line"/>
      <point x="312" y="1490" type="line"/>
      <point x="482" y="1490" type="line"/>
      <point x="375" y="848" type="line"/>
      <point x="344" y="848" type="line"/>
      <point x="395" y="951"/>
      <point x="519" y="1076"/>
      <point x="666" y="1132"/>
      <point x="750" y="1132" type="qcurve" smooth="yes"/>
      <point x="863" y="1132"/>
      <point x="1022" y="1040"/>
      <point x="1091" y="853"/>
      <point x="1067" y="710" type="qcurve" smooth="yes"/>
      <point x="949" y="0" type="line"/>
      <point x="779" y="0" type="line"/>
      <point x="895" y="698" type="line" smooth="yes"/>
      <point x="917" y="829"/>
      <point x="803" y="978"/>
      <point x="684" y="978" type="qcurve" smooth="yes"/>
      <point x="603" y="978"/>
      <point x="460" y="906"/>
      <point x="362" y="770"/>
    </contour>
  </outline>
</glyph>
<glyph name="k" format="2">
  <advance width="1114"/>
  <unicode hex="006B"/>
  <anchor x="559" y="0" name="m.uni0326"/>
  <anchor x="504" y="1490" name="m.uni030F_1"/>
  <outline>
    <contour>
      <point x="293" y="408" type="line"/>
      <point x="328" y="620" type="line"/>
      <point x="360" y="620" type="line"/>
      <point x="930" y="1118" type="line"/>
      <point x="1142" y="1118" type="line"/>
      <point x="535" y="590" type="line"/>
      <point x="519" y="590" type="line"/>
    </contour>
    <contour>
      <point x="65" y="0" type="line"/>
      <point x="312" y="1490" type="line"/>
      <point x="482" y="1490" type="line"/>
      <point x="235" y="0" type="line"/>
    </contour>
    <contour>
      <point x="773" y="0" type="line"/>
      <point x="428" y="552" type="line"/>
      <point x="570" y="672" type="line"/>
      <point x="993" y="0" type="line"/>
    </contour>
  </outline>
</glyph>
<glyph name="m" format="2">
  <advance width="1782"/>
  <unicode hex="006D"/>
  <anchor x="947" y="0" name="m.uni0326"/>
  <anchor x="1142" y="1180" name="m.uni030F_1"/>
  <outline>
    <contour>
      <point x="65" y="0" type="line"/>
      <point x="251" y="1118" type="line"/>
      <point x="417" y="1118" type="line"/>
      <point x="376" y="870" type="line"/>
      <point x="362" y="875" type="line"/>
      <point x="400" y="965"/>
      <point x="516" y="1082"/>
      <point x="653" y="1138"/>
      <point x="722" y="1138" type="qcurve" smooth="yes"/>
      <point x="808" y="1138"/>
      <point x="922" y="1065"/>
      <point x="980" y="941"/>
      <point x="981" y="864" type="qcurve"/>
      <point x="959" y="875" type="line"/>
      <point x="992" y="956"/>
      <point x="1114" y="1074"/>
      <point x="1272" y="1138"/>
      <point x="1358" y="1138" type="qcurve" smooth="yes"/>
      <point x="1458" y="1138"/>
      <point x="1607" y="1051"/>
      <point x="1677" y="878"/>
      <point x="1655" y="748" type="qcurve" smooth="yes"/>
      <point x="1531" y="0" type="line"/>
      <point x="1361" y="0" type="line"/>
      <point x="1487" y="760" type="line" smooth="yes"/>
      <point x="1507" y="883"/>
      <point x="1392" y="982"/>
      <point x="1306" y="982" type="qcurve" smooth="yes"/>
      <point x="1226" y="982"/>
      <point x="1098" y="915"/>
      <point x="1016" y="800"/>
      <point x="1004" y="728" type="qcurve" smooth="yes"/>
      <point x="883" y="0" type="line"/>
      <point x="713" y="0" type="line"/>
      <point x="842" y="778" type="line" smooth="yes"/>
      <point x="858" y="873"/>
      <point x="756" y="982"/>
      <point x="664" y="982" type="qcurve" smooth="yes"/>
      <point x="595" y="982"/>
      <point x="462" y="917"/>
      <point x="367" y="791"/>
      <point x="351" y="700" type="qcurve"/>
      <point x="235" y="0" type="line"/>
    </contour>
  </outline>
</glyph>
<glyph name="n" format="2">
  <advance width="1211"/>
  <unicode hex="006E"/>
  <anchor x="682" y="0" name="m.uni0326"/>
  <anchor x="880" y="1180" name="m.uni030F_1"/>
  <outline>
    <contour>
      <point x="356" y="664" type="curve" smooth="yes"/>
      <point x="245" y="0" type="line"/>
      <point x="65" y="0" type="line"/>
      <point x="251" y="1118" type="line"/>
      <point x="424" y="1118" type="line"/>
      <point x="380" y="847" type="line"/>
      <point x="354" y="853" type="line"/>
      <point x="404" y="954"/>
      <point x="463" y="1026"/>
      <point x="531" y="1069" type="curve" smooth="yes"/>
      <point x="599" y="1111"/>
      <point x="675" y="1132"/>
      <point x="758" y="1132" type="curve" smooth="yes"/>
      <point x="835" y="1132"/>
      <point x="901" y="1116"/>
      <point x="954" y="1084" type="curve" smooth="yes"/>
      <point x="1061" y="1020"/>
      <point x="1109" y="893"/>
      <point x="1077" y="704" type="curve" smooth="yes"/>
      <point x="960" y="0" type="line"/>
      <point x="779" y="0" type="line"/>
      <point x="896" y="701" type="line" smooth="yes"/>
      <point x="911" y="788"/>
      <point x="900" y="855"/>
      <point x="865" y="901" type="curve" smooth="yes"/>
      <point x="829" y="947"/>
      <point x="773" y="970"/>
      <point x="698" y="970" type="curve" smooth="yes"/>
      <point x="643" y="970"/>
      <point x="592" y="958"/>
      <point x="544" y="934" type="curve" smooth="yes"/>
      <point x="448" y="885"/>
      <point x="377" y="792"/>
    </contour>
  </outline>
</glyph>
<glyph name="o" format="2">
  <advance width="1223"/>
  <unicode hex="006F"/>
  <anchor x="617" y="0" name="m.uni0326"/>
  <anchor x="815" y="1180" name="m.uni030F_1"/>
  <anchor x="1369" y="586" name="m.uni0328_4"/>
  <outline>
    <contour>
      <point x="524" y="-24" type="qcurve" smooth="yes"/>
      <point x="391" y="-24"/>
      <point x="198" y="89"/>
      <point x="94" y="294"/>
      <point x="94" y="432" type="qcurve" smooth="yes"/>
      <point x="94" y="565"/>
      <point x="177" y="815"/>
      <point x="333" y="1015"/>
      <point x="555" y="1132"/>
      <point x="694" y="1132" type="qcurve" smooth="yes"/>
      <point x="828" y="1132"/>
      <point x="1022" y="1020"/>
      <point x="1127" y="815"/>
      <point x="1127" y="675" type="qcurve" smooth="yes"/>
      <point x="1127" y="540"/>
      <point x="1043" y="290"/>
      <point x="885" y="92"/>
      <point x="662" y="-24"/>
    </contour>
    <contour>
      <point x="528" y="130" type="qcurve" smooth="yes"/>
      <point x="633" y="130"/>
      <point x="792" y="226"/>
      <point x="901" y="385"/>
      <point x="956" y="576"/>
      <point x="956" y="670" type="qcurve" smooth="yes"/>
      <point x="956" y="757"/>
      <point x="901" y="896"/>
      <point x="784" y="978"/>
      <point x="690" y="978" type="qcurve" smooth="yes"/>
      <point x="587" y="978"/>
      <point x="428" y="881"/>
      <point x="320" y="722"/>
      <point x="264" y="530"/>
      <point x="264" y="435" type="qcurve" smooth="yes"/>
      <point x="264" y="307"/>
      <point x="389" y="130"/>
    </contour>
  </outline>
</glyph>
<glyph name="q" format="2">
  <advance width="1255"/>
  <unicode hex="0071"/>
  <anchor x="958" y="-401" name="m.uni0326"/>
  <anchor x="869" y="1180" name="m.uni030F_1"/>
  <outline>
    <contour>
      <point x="935" y="-418" type="line"/>
      <point x="754" y="-418" type="line"/>
      <point x="853" y="172" type="line"/>
      <point x="837" y="172" type="line"/>
      <point x="812" y="135"/>
      <point x="729" y="43"/>
      <point x="595" y="-24"/>
      <point x="492" y="-24" type="qcurve" smooth="yes"/>
      <point x="370" y="-24"/>
      <point x="191" y="85"/>
      <point x="94" y="286"/>
      <point x="94" y="425" type="qcurve" smooth="yes"/>
      <point x="94" y="557"/>
      <point x="171" y="809"/>
      <point x="318" y="1012"/>
      <point x="529" y="1132"/>
      <point x="663" y="1132" type="qcurve" smooth="yes"/>
      <point x="774" y="1132"/>
      <point x="898" y="1057"/>
      <point x="958" y="960"/>
      <point x="973" y="928" type="qcurve"/>
      <point x="983" y="928" type="line"/>
      <point x="1015" y="1118" type="line"/>
      <point x="1190" y="1118" type="line"/>
    </contour>
    <contour>
      <point x="524" y="137" type="qcurve" smooth="yes"/>
      <point x="625" y="137"/>
      <point x="777" y="235"/>
      <point x="879" y="397"/>
      <point x="931" y="591"/>
      <point x="931" y="686" type="qcurve" smooth="yes"/>
      <point x="931" y="817"/>
      <point x="809" y="971"/>
      <point x="684" y="971" type="qcurve" smooth="yes"/>
      <point x="584" y="971"/>
      <point x="432" y="876"/>
      <point x="329" y="719"/>
      <point x="276" y="530"/>
      <point x="276" y="435" type="qcurve" smooth="yes"/>
      <point x="276" y="305"/>
      <point x="397" y="137"/>
    </contour>
  </outline>
</glyph>
<glyph name="r" format="2">
  <advance width="763"/>
  <unicode hex="0072"/>
  <anchor x="265" y="0" name="m.uni0326"/>
  <anchor x="731" y="1180" name="m.uni030F_1"/>
  <outline>
    <contour>
      <point x="66" y="0" type="line"/>
      <point x="251" y="1118" type="line"/>
      <point x="415" y="1118" type="line"/>
      <point x="387" y="948" type="line"/>
      <point x="399" y="948" type="line"/>
      <point x="443" y="1031"/>
      <point x="622" y="1134"/>
      <point x="722" y="1134" type="qcurve" smooth="yes"/>
      <point x="741" y="1134"/>
      <point x="796" y="1132"/>
      <point x="811" y="1132" type="qcurve"/>
      <point x="783" y="958" type="line"/>
      <point x="774" y="960"/>
      <point x="713" y="968"/>
      <point x="678" y="968" type="qcurve" smooth="yes"/>
      <point x="597" y="968"/>
      <point x="458" y="900"/>
      <point x="366" y="782"/>
      <point x="353" y="706" type="qcurve" smooth="yes"/>
      <point x="236" y="0" type="line"/>
    </contour>
  </outline>
</glyph>
<glyph name="s" format="2">
  <advance width="1080"/>
  <unicode hex="0073"/>
  <anchor x="644" y="0" name="m.uni0326"/>
  <anchor x="838" y="1180" name="m.uni030F_1"/>
  <anchor x="632" y="0" name="m.uni0327_3"/>
  <outline>
    <contour>
      <point x="451" y="-24" type="curve" smooth="yes"/>
      <point x="376" y="-24"/>
      <point x="311" y="-13"/>
      <point x="256" y="8" type="curve" smooth="yes"/>
      <point x="144" y="51"/>
      <point x="76" y="133"/>
      <point x="63" y="250" type="curve"/>
      <point x="62" y="255"/>
      <point x="62" y="259"/>
      <point x="62" y="264" type="curve"/>
      <point x="61" y="268"/>
      <point x="61" y="272"/>
      <point x="61" y="277" type="curve"/>
      <point x="235" y="306" type="line"/>
      <point x="240" y="245"/>
      <point x="262" y="201"/>
      <point x="300" y="174" type="curve" smooth="yes"/>
      <point x="338" y="147"/>
      <point x="389" y="134"/>
      <point x="454" y="134" type="curve" smooth="yes"/>
      <point x="508" y="134"/>
      <point x="556" y="142"/>
      <point x="599" y="159" type="curve" smooth="yes"/>
      <point x="684" y="192"/>
      <point x="740" y="250"/>
      <point x="751" y="315" type="curve" smooth="yes"/>
      <point x="762" y="386"/>
      <point x="721" y="433"/>
      <point x="616" y="458" type="curve" smooth="yes"/>
      <point x="437" y="502" type="line" smooth="yes"/>
      <point x="242" y="550"/>
      <point x="157" y="655"/>
      <point x="184" y="818" type="curve" smooth="yes"/>
      <point x="195" y="880"/>
      <point x="221" y="935"/>
      <point x="264" y="982" type="curve" smooth="yes"/>
      <point x="307" y="1029"/>
      <point x="361" y="1066"/>
      <point x="426" y="1093" type="curve" smooth="yes"/>
      <point x="491" y="1119"/>
      <point x="562" y="1132"/>
      <point x="639" y="1132" type="curve" smooth="yes"/>
      <point x="746" y="1132"/>
      <point x="828" y="1110"/>
      <point x="885" y="1067" type="curve" smooth="yes"/>
      <point x="941" y="1023"/>
      <point x="978" y="967"/>
      <point x="996" y="899" type="curve"/>
      <point x="1000" y="886"/>
      <point x="1004" y="872"/>
      <point x="1005" y="857" type="curve"/>
      <point x="840" y="827" type="line"/>
      <point x="831" y="867"/>
      <point x="813" y="902"/>
      <point x="784" y="933" type="curve" smooth="yes"/>
      <point x="755" y="964"/>
      <point x="705" y="979"/>
      <point x="636" y="979" type="curve" smooth="yes"/>
      <point x="590" y="979"/>
      <point x="547" y="971"/>
      <point x="508" y="956" type="curve" smooth="yes"/>
      <point x="429" y="925"/>
      <point x="375" y="872"/>
      <point x="364" y="805" type="curve" smooth="yes"/>
      <point x="351" y="728"/>
      <point x="397" y="687"/>
      <point x="522" y="656" type="curve" smooth="yes"/>
      <point x="684" y="616" type="line" smooth="yes"/>
      <point x="879" y="568"/>
      <point x="963" y="462"/>
      <point x="936" y="303" type="curve" smooth="yes"/>
      <point x="920" y="208"/>
      <point x="864" y="127"/>
      <point x="778" y="68" type="curve" smooth="yes"/>
      <point x="692" y="9"/>
      <point x="579" y="-24"/>
    </contour>
  </outline>
</glyph>
<glyph name="t" format="2">
  <advance width="672"/>
  <unicode hex="0074"/>
  <anchor x="448" y="0" name="m.uni0326"/>
  <anchor x="604" y="1424" name="m.uni030F_1"/>
  <anchor x="570" y="0" name="m.uni0327_3"/>
  <outline>
    <contour>
      <point x="691" y="1118" type="line"/>
      <point x="666" y="964" type="line"/>
      <point x="88" y="964" type="line"/>
      <point x="113" y="1118" type="line"/>
    </contour>
    <contour>
      <point x="326" y="1384" type="line"/>
      <point x="506" y="1384" type="line"/>
      <point x="325" y="290" type="line" smooth="yes"/>
      <point x="308" y="187"/>
      <point x="341" y="146"/>
      <point x="433" y="146" type="curve" smooth="yes"/>
      <point x="444" y="146"/>
      <point x="459" y="147"/>
      <point x="477" y="150" type="curve" smooth="yes"/>
      <point x="495" y="153"/>
      <point x="512" y="155"/>
      <point x="527" y="158" type="curve"/>
      <point x="538" y="6" type="line"/>
      <point x="502" y="-6"/>
      <point x="451" y="-14"/>
      <point x="402" y="-14" type="curve" smooth="yes"/>
      <point x="304" y="-14"/>
      <point x="233" y="12"/>
      <point x="188" y="63" type="curve" smooth="yes"/>
      <point x="143" y="114"/>
      <point x="127" y="185"/>
      <point x="142" y="276" type="curve" smooth="yes"/>
    </contour>
  </outline>
</glyph>
<glyph name="u" format="2">
  <advance width="1212"/>
  <unicode hex="0075"/>
  <anchor x="710" y="0" name="m.uni0326"/>
  <anchor x="881" y="1180" name="m.uni030F_1"/>
  <anchor x="1375" y="0" name="m.uni0328_4"/>
  <outline>
    <contour>
      <point x="443" y="-14" type="curve" smooth="yes"/>
      <point x="368" y="-14"/>
      <point x="305" y="1"/>
      <point x="254" y="32" type="curve" smooth="yes"/>
      <point x="150" y="93"/>
      <point x="103" y="219"/>
      <point x="134" y="408" type="curve" smooth="yes"/>
      <point x="251" y="1118" type="line"/>
      <point x="431" y="1118" type="line"/>
      <point x="317" y="423" type="line" smooth="yes"/>
      <point x="303" y="338"/>
      <point x="314" y="271"/>
      <point x="351" y="222" type="curve" smooth="yes"/>
      <point x="387" y="173"/>
      <point x="444" y="148"/>
      <point x="523" y="148" type="curve" smooth="yes"/>
      <point x="576" y="148"/>
      <point x="625" y="160"/>
      <point x="672" y="183" type="curve" smooth="yes"/>
      <point x="764" y="229"/>
      <point x="834" y="319"/>
      <point x="855" y="448" type="curve" smooth="yes"/>
      <point x="965" y="1118" type="line"/>
      <point x="1146" y="1118" type="line"/>
      <point x="961" y="0" type="line"/>
      <point x="787" y="0" type="line"/>
      <point x="832" y="271" type="line"/>
      <point x="856" y="271" type="line"/>
      <point x="805" y="166"/>
      <point x="744" y="93"/>
      <point x="673" y="50" type="curve" smooth="yes"/>
      <point x="602" y="7"/>
      <point x="526" y="-14"/>
    </contour>
  </outline>
</glyph>
<glyph name="v" format="2">
  <advance width="1140"/>
  <unicode hex="0076"/>
  <anchor x="652" y="0" name="m.uni0326"/>
  <anchor x="836" y="1180" name="m.uni030F_1"/>
  <outline>
    <contour>
      <point x="390" y="0" type="line"/>
      <point x="147" y="1118" type="line"/>
      <point x="325" y="1118" type="line"/>
      <point x="457" y="448" type="line" smooth="yes"/>
      <point x="477" y="345"/>
      <point x="498" y="142"/>
      <point x="511" y="48" type="qcurve"/>
      <point x="445" y="48" type="line"/>
      <point x="490" y="142"/>
      <point x="576" y="345"/>
      <point x="631" y="448" type="qcurve" smooth="yes"/>
      <point x="985" y="1118" type="line"/>
      <point x="1179" y="1118" type="line"/>
      <point x="566" y="0" type="line"/>
    </contour>
  </outline>
</glyph>
<glyph name="w" format="2">
  <advance width="1676"/>
  <unicode hex="0077"/>
  <anchor x="986" y="0" name="m.uni0326"/>
  <anchor x="1189" y="1180" name="m.uni030F_1"/>
  <outline>
    <contour>
      <point x="317" y="0" type="line"/>
      <point x="163" y="1118" type="line"/>
      <point x="354" y="1118" type="line"/>
      <point x="409" y="630" type="line" smooth="yes"/>
      <point x="424" y="497"/>
      <point x="440" y="332"/>
      <point x="448" y="117" type="curve"/>
      <point x="417" y="117" type="line"/>
      <point x="490" y="321"/>
      <point x="559" y="487"/>
      <point x="622" y="630" type="curve" smooth="yes"/>
      <point x="837" y="1118" type="line"/>
      <point x="1029" y="1118" type="line"/>
      <point x="1080" y="630" type="line" smooth="yes"/>
      <point x="1095" y="497"/>
      <point x="1108" y="332"/>
      <point x="1115" y="117" type="curve"/>
      <point x="1083" y="117" type="line"/>
      <point x="1158" y="322"/>
      <point x="1227" y="486"/>
      <point x="1291" y="630" type="curve" smooth="yes"/>
      <point x="1508" y="1118" type="line"/>
      <point x="1699" y="1118" type="line"/>
      <point x="1175" y="0" type="line"/>
      <point x="996" y="0" type="line"/>
      <point x="935" y="506" type="line" smooth="yes"/>
      <point x="930" y="553"/>
      <point x="924" y="603"/>
      <point x="919" y="656" type="curve" smooth="yes"/>
      <point x="914" y="709"/>
      <point x="909" y="764"/>
      <point x="905" y="822" type="curve" smooth="yes"/>
      <point x="900" y="879"/>
      <point x="896" y="938"/>
      <point x="892" y="998" type="curve"/>
      <point x="931" y="998" type="line"/>
      <point x="908" y="939"/>
      <point x="884" y="881"/>
      <point x="861" y="824" type="curve" smooth="yes"/>
      <point x="837" y="767"/>
      <point x="814" y="711"/>
      <point x="791" y="658" type="curve" smooth="yes"/>
      <point x="768" y="605"/>
      <point x="746" y="554"/>
      <point x="724" y="505" type="curve" smooth="yes"/>
      <point x="496" y="0" type="line"/>
    </contour>
  </outline>
</glyph>
<glyph name="x" format="2">
  <advance width="1118"/>
  <unicode hex="0078"/>
  <anchor x="621" y="0" name="m.uni0326"/>
  <anchor x="816" y="1180" name="m.uni030F_1"/>
  <outline>
    <contour>
      <point x="-28" y="0" type="line"/>
      <point x="520" y="643" type="line"/>
      <point x="496" y="505" type="line"/>
      <point x="180" y="1118" type="line"/>
      <point x="382" y="1118" type="line"/>
      <point x="486" y="901" type="line" smooth="yes"/>
      <point x="541" y="789"/>
      <point x="570" y="694"/>
      <point x="611" y="603" type="curve"/>
      <point x="517" y="603" type="line"/>
      <point x="553" y="648"/>
      <point x="587" y="695"/>
      <point x="619" y="744" type="curve" smooth="yes"/>
      <point x="651" y="793"/>
      <point x="690" y="845"/>
      <point x="735" y="901" type="curve" smooth="yes"/>
      <point x="913" y="1118" type="line"/>
      <point x="1127" y="1118" type="line"/>
      <point x="606" y="497" type="line"/>
      <point x="627" y="630" type="line"/>
      <point x="960" y="0" type="line"/>
      <point x="756" y="0" type="line"/>
      <point x="633" y="251" type="line" smooth="yes"/>
      <point x="580" y="360"/>
      <point x="551" y="452"/>
      <point x="510" y="539" type="curve"/>
      <point x="605" y="539" type="line"/>
      <point x="570" y="496"/>
      <point x="538" y="451"/>
      <point x="507" y="404" type="curve" smooth="yes"/>
      <point x="476" y="357"/>
      <point x="437" y="306"/>
      <point x="392" y="251" type="curve" smooth="yes"/>
      <point x="185" y="0" type="line"/>
    </contour>
  </outline>
</glyph>
<glyph name="y" format="2">
  <advance width="1151"/>
  <unicode hex="0079"/>
  <anchor x="1182" y="0" name="m.uni0326"/>
  <anchor x="869" y="1180" name="m.uni030F_1"/>
  <anchor x="1038" y="0" name="m.uni0328_4"/>
  <outline>
    <contour>
      <point x="-19" y="-405" type="curve"/>
      <point x="53" y="-249" type="line"/>
      <point x="70" y="-253" type="line" smooth="yes"/>
      <point x="107" y="-262"/>
      <point x="141" y="-264"/>
      <point x="172" y="-260" type="curve" smooth="yes"/>
      <point x="234" y="-251"/>
      <point x="288" y="-204"/>
      <point x="341" y="-99" type="curve" smooth="yes"/>
      <point x="388" y="-6" type="line"/>
      <point x="147" y="1118" type="line"/>
      <point x="335" y="1118" type="line"/>
      <point x="464" y="455" type="line" smooth="yes"/>
      <point x="477" y="386"/>
      <point x="487" y="318"/>
      <point x="494" y="250" type="curve" smooth="yes"/>
      <point x="500" y="181"/>
      <point x="507" y="115"/>
      <point x="516" y="51" type="curve"/>
      <point x="450" y="51" type="line"/>
      <point x="510" y="179"/>
      <point x="563" y="318"/>
      <point x="636" y="455" type="curve" smooth="yes"/>
      <point x="985" y="1118" type="line"/>
      <point x="1190" y="1118" type="line"/>
      <point x="486" y="-167" type="line" smooth="yes"/>
      <point x="454" y="-226"/>
      <point x="419" y="-274"/>
      <point x="381" y="-313" type="curve" smooth="yes"/>
      <point x="304" y="-389"/>
      <point x="215" y="-426"/>
      <point x="108" y="-426" type="curve" smooth="yes"/>
      <point x="49" y="-426"/>
      <point x="0" y="-414"/>
    </contour>
  </outline>
</glyph>
<glyph name="z" format="2">
  <advance width="1131"/>
  <unicode hex="007A"/>
  <anchor x="656" y="0" name="m.uni0326"/>
  <anchor x="853" y="1180" name="m.uni030F_1"/>
  <outline>
    <contour>
      <point x="33" y="0" type="line"/>
      <point x="56" y="134" type="line"/>
      <point x="808" y="940" type="line"/>
      <point x="810" y="951" type="line"/>
      <point x="211" y="951" type="line"/>
      <point x="238" y="1118" type="line"/>
      <point x="1077" y="1118" type="line"/>
      <point x="1053" y="975" type="line"/>
      <point x="321" y="178" type="line"/>
      <point x="319" y="167" type="line"/>
      <point x="939" y="167" type="line"/>
      <point x="912" y="0" type="line"/>
    </contour>
  </outline>
</glyph>
<glyph name="braceleft" format="2">
  <advance width="862"/>
  <unicode hex="007B"/>
  <outline>
    <contour>
      <point x="159" y="647" type="qcurve"/>
      <point x="173" y="737" type="line"/>
      <point x="295" y="737"/>
      <point x="409" y="838"/>
      <point x="428" y="957" type="qcurve" smooth="yes"/>
      <point x="467" y="1191" type="line" smooth="yes"/>
      <point x="484" y="1291"/>
      <point x="546" y="1438"/>
      <point x="649" y="1534"/>
      <point x="802" y="1581"/>
      <point x="909" y="1581" type="qcurve"/>
      <point x="885" y="1437" type="line"/>
      <point x="759" y="1438"/>
      <point x="644" y="1319"/>
      <point x="623" y="1191" type="qcurve" smooth="yes"/>
      <point x="574" y="899" type="line" smooth="yes"/>
      <point x="565" y="842"/>
      <point x="520" y="750"/>
      <point x="430" y="683"/>
      <point x="277" y="647"/>
    </contour>
    <contour>
      <point x="601" y="-279" type="line"/>
      <point x="494" y="-279"/>
      <point x="356" y="-232"/>
      <point x="285" y="-137"/>
      <point x="271" y="11"/>
      <point x="288" y="111" type="qcurve" smooth="yes"/>
      <point x="326" y="343" type="line" smooth="yes"/>
      <point x="346" y="462"/>
      <point x="267" y="564"/>
      <point x="145" y="565" type="qcurve"/>
      <point x="160" y="655" type="line"/>
      <point x="278" y="655"/>
      <point x="419" y="618"/>
      <point x="487" y="550"/>
      <point x="501" y="457"/>
      <point x="492" y="401" type="qcurve" smooth="yes"/>
      <point x="444" y="111" type="line" smooth="yes"/>
      <point x="423" y="-17"/>
      <point x="498" y="-137"/>
      <point x="625" y="-137" type="qcurve"/>
    </contour>
    <contour>
      <point x="145" y="564" type="line"/>
      <point x="174" y="738" type="line"/>
      <point x="346" y="738" type="line"/>
      <point x="317" y="564" type="line"/>
    </contour>
  </outline>
</glyph>
<glyph name="bar" format="2">
  <advance width="670"/>
  <unicode hex="007C"/>
  <outline>
    <contour>
      <point x="640" y="1970" type="line"/>
      <point x="236" y="-480" type="line"/>
      <point x="90" y="-480" type="line"/>
      <point x="494" y="1970" type="line"/>
    </contour>
  </outline>
</glyph>
<glyph name="braceright" format="2">
  <advance width="862"/>
  <unicode hex="007D"/>
  <outline>
    <contour>
      <point x="732" y="647" type="line"/>
      <point x="614" y="647"/>
      <point x="473" y="683"/>
      <point x="405" y="750"/>
      <point x="391" y="842"/>
      <point x="400" y="899" type="qcurve" smooth="yes"/>
      <point x="449" y="1191" type="line" smooth="yes"/>
      <point x="471" y="1319"/>
      <point x="395" y="1438"/>
      <point x="267" y="1437" type="qcurve"/>
      <point x="291" y="1581" type="line"/>
      <point x="398" y="1581"/>
      <point x="536" y="1534"/>
      <point x="607" y="1438"/>
      <point x="622" y="1291"/>
      <point x="605" y="1191" type="qcurve" smooth="yes"/>
      <point x="566" y="957" type="line" smooth="yes"/>
      <point x="547" y="838"/>
      <point x="626" y="737"/>
      <point x="747" y="737" type="qcurve"/>
    </contour>
    <contour>
      <point x="-17" y="-279" type="qcurve"/>
      <point x="7" y="-137" type="line"/>
      <point x="134" y="-137"/>
      <point x="249" y="-17"/>
      <point x="270" y="111" type="qcurve" smooth="yes"/>
      <point x="318" y="401" type="line" smooth="yes"/>
      <point x="327" y="457"/>
      <point x="372" y="550"/>
      <point x="462" y="618"/>
      <point x="615" y="655"/>
      <point x="733" y="655" type="qcurve"/>
      <point x="719" y="565" type="line"/>
      <point x="598" y="564"/>
      <point x="484" y="462"/>
      <point x="464" y="343" type="qcurve" smooth="yes"/>
      <point x="426" y="111" type="line" smooth="yes"/>
      <point x="410" y="11"/>
      <point x="347" y="-137"/>
      <point x="243" y="-232"/>
      <point x="90" y="-279"/>
    </contour>
    <contour>
      <point x="719" y="565" type="line"/>
      <point x="547" y="564" type="line"/>
      <point x="576" y="738" type="line"/>
      <point x="747" y="737" type="line"/>
    </contour>
  </outline>
</glyph>
<glyph name="asciitilde" format="2">
  <advance width="1356"/>
  <unicode hex="007E"/>
  <outline>
    <contour>
      <point x="148" y="439" type="line"/>
      <point x="161" y="521"/>
      <point x="184" y="587"/>
      <point x="219" y="637" type="curve" smooth="yes"/>
      <point x="288" y="737"/>
      <point x="388" y="780"/>
      <point x="489" y="780" type="curve" smooth="yes"/>
      <point x="538" y="780"/>
      <point x="582" y="770"/>
      <point x="619" y="749" type="curve" smooth="yes"/>
      <point x="656" y="728"/>
      <point x="698" y="694"/>
      <point x="745" y="647" type="curve" smooth="yes"/>
      <point x="776" y="616"/>
      <point x="801" y="595"/>
      <point x="822" y="582" type="curve" smooth="yes"/>
      <point x="843" y="569"/>
      <point x="866" y="563"/>
      <point x="891" y="563" type="curve" smooth="yes"/>
      <point x="933" y="563"/>
      <point x="969" y="578"/>
      <point x="998" y="608" type="curve" smooth="yes"/>
      <point x="1027" y="638"/>
      <point x="1045" y="682"/>
      <point x="1054" y="740" type="curve"/>
      <point x="1216" y="740" type="line"/>
      <point x="1205" y="659"/>
      <point x="1182" y="595"/>
      <point x="1148" y="546" type="curve" smooth="yes"/>
      <point x="1079" y="448"/>
      <point x="980" y="405"/>
      <point x="877" y="405" type="curve" smooth="yes"/>
      <point x="827" y="405"/>
      <point x="784" y="416"/>
      <point x="747" y="439" type="curve" smooth="yes"/>
      <point x="710" y="461"/>
      <point x="669" y="494"/>
      <point x="624" y="539" type="curve" smooth="yes"/>
      <point x="593" y="570"/>
      <point x="567" y="590"/>
      <point x="545" y="601" type="curve"/>
      <point x="523" y="611"/>
      <point x="499" y="616"/>
      <point x="473" y="616" type="curve" smooth="yes"/>
      <point x="434" y="616"/>
      <point x="400" y="603"/>
      <point x="371" y="576" type="curve" smooth="yes"/>
      <point x="342" y="549"/>
      <point x="322" y="503"/>
      <point x="312" y="439" type="curve"/>
    </contour>
  </outline>
</glyph>
<glyph name="exclamdown" format="2">
  <advance width="555"/>
  <unicode hex="00A1"/>
  <outline>
    <contour>
      <point x="172" y="479" type="line"/>
      <point x="328" y="1490" type="line"/>
      <point x="532" y="1490" type="line"/>
      <point x="351" y="479" type="line"/>
    </contour>
    <contour>
      <point x="67" y="0" type="line"/>
      <point x="105" y="232" type="line"/>
      <point x="339" y="232" type="line"/>
      <point x="301" y="0" type="line"/>
    </contour>
  </outline>
</glyph>
<glyph name="cent" format="2">
  <advance width="1165"/>
  <unicode hex="00A2"/>
  <outline>
    <contour>
      <point x="451" y="0" type="line"/>
      <point x="698" y="1490" type="line"/>
      <point x="816" y="1490" type="line"/>
      <point x="569" y="0" type="line"/>
    </contour>
    <contour>
      <point x="556" y="166" type="qcurve" smooth="yes"/>
      <point x="423" y="166"/>
      <point x="230" y="279"/>
      <point x="126" y="484"/>
      <point x="126" y="622" type="qcurve" smooth="yes"/>
      <point x="126" y="755"/>
      <point x="209" y="1005"/>
      <point x="365" y="1205"/>
      <point x="587" y="1322"/>
      <point x="726" y="1322" type="qcurve" smooth="yes"/>
      <point x="809" y="1322"/>
      <point x="947" y="1279"/>
      <point x="1053" y="1198"/>
      <point x="1121" y="1084"/>
      <point x="1133" y="1013" type="qcurve"/>
      <point x="966" y="975" type="line"/>
      <point x="960" y="1019"/>
      <point x="923" y="1090"/>
      <point x="861" y="1141"/>
      <point x="775" y="1168"/>
      <point x="722" y="1168" type="qcurve" smooth="yes"/>
      <point x="619" y="1168"/>
      <point x="460" y="1071"/>
      <point x="352" y="912"/>
      <point x="296" y="720"/>
      <point x="296" y="625" type="qcurve" smooth="yes"/>
      <point x="296" y="540"/>
      <point x="351" y="401"/>
      <point x="467" y="320"/>
      <point x="560" y="320" type="qcurve" smooth="yes"/>
      <point x="619" y="320"/>
      <point x="723" y="352"/>
      <point x="809" y="409"/>
      <point x="874" y="486"/>
      <point x="894" y="532" type="qcurve"/>
      <point x="1051" y="474" type="line"/>
      <point x="1016" y="401"/>
      <point x="913" y="287"/>
      <point x="784" y="208"/>
      <point x="636" y="166"/>
    </contour>
  </outline>
</glyph>
<glyph name="sterling" format="2">
  <advance width="1243"/>
  <unicode hex="00A3"/>
  <outline>
    <contour>
      <point x="37" y="112" type="curve"/>
      <point x="44" y="160" type="line"/>
      <point x="97" y="160"/>
      <point x="141" y="176"/>
      <point x="175" y="207" type="curve" smooth="yes"/>
      <point x="209" y="238"/>
      <point x="231" y="289"/>
      <point x="241" y="362" type="curve" smooth="yes"/>
      <point x="334" y="1054" type="line" smooth="yes"/>
      <point x="346" y="1143"/>
      <point x="375" y="1222"/>
      <point x="422" y="1291" type="curve" smooth="yes"/>
      <point x="468" y="1360"/>
      <point x="527" y="1413"/>
      <point x="600" y="1452" type="curve" smooth="yes"/>
      <point x="672" y="1491"/>
      <point x="753" y="1510"/>
      <point x="844" y="1510" type="curve" smooth="yes"/>
      <point x="920" y="1510"/>
      <point x="987" y="1495"/>
      <point x="1045" y="1464" type="curve" smooth="yes"/>
      <point x="1160" y="1402"/>
      <point x="1228" y="1288"/>
      <point x="1227" y="1140" type="curve"/>
      <point x="1059" y="1114" type="line"/>
      <point x="1058" y="1187"/>
      <point x="1039" y="1245"/>
      <point x="1000" y="1287" type="curve" smooth="yes"/>
      <point x="961" y="1329"/>
      <point x="905" y="1350"/>
      <point x="833" y="1350" type="curve" smooth="yes"/>
      <point x="774" y="1350"/>
      <point x="721" y="1338"/>
      <point x="675" y="1315" type="curve" smooth="yes"/>
      <point x="582" y="1267"/>
      <point x="521" y="1178"/>
      <point x="505" y="1058" type="curve" smooth="yes"/>
      <point x="412" y="366" type="line" smooth="yes"/>
      <point x="406" y="322"/>
      <point x="392" y="285"/>
      <point x="371" y="255" type="curve" smooth="yes"/>
      <point x="349" y="225"/>
      <point x="323" y="201"/>
      <point x="293" y="182" type="curve" smooth="yes"/>
      <point x="262" y="163"/>
      <point x="231" y="148"/>
      <point x="198" y="138" type="curve" smooth="yes"/>
      <point x="165" y="128"/>
      <point x="135" y="121"/>
      <point x="106" y="118" type="curve"/>
      <point x="77" y="114"/>
      <point x="54" y="112"/>
    </contour>
    <contour>
      <point x="129" y="672" type="line"/>
      <point x="153" y="818" type="line"/>
      <point x="963" y="818" type="line"/>
      <point x="939" y="672" type="line"/>
    </contour>
    <contour>
      <point x="18" y="0" type="line"/>
      <point x="44" y="160" type="line"/>
      <point x="1083" y="160" type="line"/>
      <point x="1057" y="0" type="line"/>
    </contour>
  </outline>
</glyph>
<glyph name="currency" format="2">
  <advance width="1480"/>
  <unicode hex="00A4"/>
  <outline>
    <contour>
      <point x="640" y="-20" type="qcurve" smooth="yes"/>
      <point x="517" y="-20"/>
      <point x="318" y="75"/>
      <point x="183" y="246"/>
      <point x="130" y="475"/>
      <point x="152" y="608" type="qcurve" smooth="yes"/>
      <point x="173" y="741"/>
      <point x="302" y="969"/>
      <point x="493" y="1139"/>
      <point x="723" y="1234"/>
      <point x="846" y="1234" type="qcurve" smooth="yes"/>
      <point x="969" y="1234"/>
      <point x="1170" y="1139"/>
      <point x="1307" y="969"/>
      <point x="1363" y="741"/>
      <point x="1342" y="608" type="qcurve" smooth="yes"/>
      <point x="1320" y="475"/>
      <point x="1189" y="246"/>
      <point x="996" y="75"/>
      <point x="763" y="-20"/>
    </contour>
    <contour>
      <point x="666" y="140" type="qcurve" smooth="yes"/>
      <point x="756" y="140"/>
      <point x="924" y="213"/>
      <point x="1064" y="343"/>
      <point x="1160" y="512"/>
      <point x="1176" y="608" type="qcurve" smooth="yes"/>
      <point x="1198" y="738"/>
      <point x="1116" y="950"/>
      <point x="940" y="1076"/>
      <point x="820" y="1076" type="qcurve" smooth="yes"/>
      <point x="701" y="1076"/>
      <point x="485" y="950"/>
      <point x="334" y="738"/>
      <point x="312" y="608" type="qcurve" smooth="yes"/>
      <point x="290" y="480"/>
      <point x="372" y="267"/>
      <point x="547" y="140"/>
    </contour>
    <contour>
      <point x="1218" y="926" type="line"/>
      <point x="1122" y="1048" type="line"/>
      <point x="1358" y="1254" type="line"/>
      <point x="1458" y="1132" type="line"/>
    </contour>
    <contour>
      <point x="1146" y="-14" type="line"/>
      <point x="980" y="192" type="line"/>
      <point x="1118" y="312" type="line"/>
      <point x="1286" y="108" type="line"/>
    </contour>
    <contour>
      <point x="140" y="-14" type="line"/>
      <point x="44" y="108" type="line"/>
      <point x="280" y="312" type="line"/>
      <point x="378" y="192" type="line"/>
    </contour>
    <contour>
      <point x="382" y="926" type="line"/>
      <point x="216" y="1132" type="line"/>
      <point x="352" y="1254" type="line"/>
      <point x="520" y="1048" type="line"/>
    </contour>
  </outline>
</glyph>
<glyph name="yen" format="2">
  <advance width="1122"/>
  <unicode hex="00A5"/>
  <outline>
    <contour>
      <point x="384" y="1490" type="line"/>
      <point x="628" y="660" type="line"/>
      <point x="478" y="602" type="line"/>
      <point x="184" y="1490" type="line"/>
    </contour>
    <contour>
      <point x="530" y="660" type="line"/>
      <point x="1048" y="1490" type="line"/>
      <point x="1248" y="1490" type="line"/>
      <point x="658" y="602" type="line"/>
    </contour>
    <contour>
      <point x="690" y="782" type="line"/>
      <point x="558" y="0" type="line"/>
      <point x="378" y="0" type="line"/>
      <point x="510" y="782" type="line"/>
    </contour>
    <contour>
      <point x="1006" y="742" type="line"/>
      <point x="986" y="610" type="line"/>
      <point x="154" y="610" type="line"/>
      <point x="174" y="742" type="line"/>
    </contour>
    <contour>
      <point x="960" y="454" type="line"/>
      <point x="940" y="322" type="line"/>
      <point x="108" y="322" type="line"/>
      <point x="128" y="454" type="line"/>
    </contour>
  </outline>
</glyph>
<glyph name="brokenbar" format="2">
  <advance width="544"/>
  <unicode hex="00A6"/>
  <outline>
    <contour>
      <point x="166" y="402" type="line"/>
      <point x="326" y="402" type="line"/>
      <point x="212" y="-280" type="line"/>
      <point x="52" y="-280" type="line"/>
    </contour>
    <contour>
      <point x="506" y="1490" type="line"/>
      <point x="392" y="812" type="line"/>
      <point x="232" y="812" type="line"/>
      <point x="346" y="1490" type="line"/>
    </contour>
  </outline>
</glyph>
<glyph name="section" format="2">
  <advance width="1128"/>
  <unicode hex="00A7"/>
  <outline>
    <contour>
      <point x="1022" y="1138" type="qcurve"/>
      <point x="856" y="1138" type="line"/>
      <point x="871" y="1232"/>
      <point x="795" y="1356"/>
      <point x="692" y="1356" type="qcurve" smooth="yes"/>
      <point x="627" y="1356"/>
      <point x="536" y="1307"/>
      <point x="485" y="1235"/>
      <point x="478" y="1198" type="qcurve" smooth="yes"/>
      <point x="471" y="1155"/>
      <point x="507" y="1079"/>
      <point x="570" y="1019"/>
      <point x="602" y="998" type="qcurve" smooth="yes"/>
      <point x="858" y="832" type="line" smooth="yes"/>
      <point x="883" y="816"/>
      <point x="946" y="762"/>
      <point x="1001" y="684"/>
      <point x="1028" y="580"/>
      <point x="1016" y="512" type="qcurve" smooth="yes"/>
      <point x="1007" y="458"/>
      <point x="933" y="351"/>
      <point x="826" y="268"/>
      <point x="768" y="250" type="qcurve"/>
      <point x="768" y="248" type="line"/>
      <point x="814" y="202"/>
      <point x="843" y="82"/>
      <point x="832" y="12" type="qcurve" smooth="yes"/>
      <point x="815" y="-96"/>
      <point x="686" y="-235"/>
      <point x="506" y="-302"/>
      <point x="410" y="-302" type="qcurve" smooth="yes"/>
      <point x="295" y="-302"/>
      <point x="131" y="-212"/>
      <point x="57" y="-44"/>
      <point x="76" y="72" type="qcurve"/>
      <point x="244" y="72" type="line"/>
      <point x="227" y="-34"/>
      <point x="338" y="-148"/>
      <point x="436" y="-148" type="qcurve" smooth="yes"/>
      <point x="517" y="-148"/>
      <point x="653" y="-69"/>
      <point x="666" y="12" type="qcurve" smooth="yes"/>
      <point x="675" y="67"/>
      <point x="638" y="141"/>
      <point x="574" y="192"/>
      <point x="542" y="212" type="qcurve" smooth="yes"/>
      <point x="288" y="376" type="line" smooth="yes"/>
      <point x="262" y="392"/>
      <point x="198" y="446"/>
      <point x="144" y="525"/>
      <point x="117" y="631"/>
      <point x="128" y="698" type="qcurve" smooth="yes"/>
      <point x="137" y="751"/>
      <point x="207" y="860"/>
      <point x="313" y="945"/>
      <point x="376" y="962" type="qcurve"/>
      <point x="376" y="968" type="line"/>
      <point x="339" y="1015"/>
      <point x="301" y="1128"/>
      <point x="312" y="1198" type="qcurve"/>
      <point x="328" y="1289"/>
      <point x="442" y="1429"/>
      <point x="615" y="1510"/>
      <point x="718" y="1510" type="qcurve" smooth="yes"/>
      <point x="831" y="1510"/>
      <point x="978" y="1415"/>
      <point x="1039" y="1247"/>
    </contour>
    <contour>
      <point x="856" y="512" type="qcurve" smooth="yes"/>
      <point x="863" y="554"/>
      <point x="836" y="625"/>
      <point x="783" y="681"/>
      <point x="750" y="702" type="qcurve" smooth="yes"/>
      <point x="494" y="866" type="line"/>
      <point x="465" y="886"/>
      <point x="375" y="849"/>
      <point x="298" y="759"/>
      <point x="288" y="698" type="qcurve" smooth="yes"/>
      <point x="277" y="628"/>
      <point x="348" y="539"/>
      <point x="396" y="506" type="qcurve"/>
      <point x="640" y="350" type="line" smooth="yes"/>
      <point x="668" y="332"/>
      <point x="763" y="366"/>
      <point x="847" y="453"/>
    </contour>
  </outline>
</glyph>
<glyph name="copyright" format="2">
  <advance width="1874"/>
  <unicode hex="00A9"/>
  <outline>
    <contour>
      <point x="543" y="744" type="qcurve" smooth="yes"/>
      <point x="562" y="864"/>
      <point x="711" y="1060"/>
      <point x="927" y="1177"/>
      <point x="1046" y="1176" type="qcurve"/>
      <point x="1149" y="1177"/>
      <point x="1310" y="1088"/>
      <point x="1400" y="935"/>
      <point x="1398" y="838" type="qcurve"/>
      <point x="1222" y="838" type="line"/>
      <point x="1220" y="913"/>
      <point x="1119" y="1008"/>
      <point x="1032" y="1008" type="qcurve" smooth="yes"/>
      <point x="961" y="1008"/>
      <point x="823" y="941"/>
      <point x="724" y="822"/>
      <point x="712" y="744" type="qcurve" smooth="yes"/>
      <point x="701" y="677"/>
      <point x="744" y="556"/>
      <point x="844" y="482"/>
      <point x="916" y="482" type="qcurve"/>
      <point x="1001" y="481"/>
      <point x="1148" y="578"/>
      <point x="1176" y="652" type="qcurve"/>
      <point x="1352" y="652" type="line"/>
      <point x="1323" y="555"/>
      <point x="1189" y="402"/>
      <point x="1007" y="313"/>
      <point x="904" y="312" type="qcurve"/>
      <point x="785" y="313"/>
      <point x="607" y="429"/>
      <point x="523" y="625"/>
    </contour>
    <contour>
      <point x="847" y="-24" type="qcurve" smooth="yes"/>
      <point x="689" y="-24"/>
      <point x="430" y="96"/>
      <point x="253" y="307"/>
      <point x="180" y="585"/>
      <point x="206" y="744" type="qcurve" smooth="yes"/>
      <point x="233" y="903"/>
      <point x="400" y="1182"/>
      <point x="646" y="1393"/>
      <point x="943" y="1512"/>
      <point x="1101" y="1512" type="qcurve" smooth="yes"/>
      <point x="1261" y="1512"/>
      <point x="1520" y="1393"/>
      <point x="1695" y="1182"/>
      <point x="1768" y="903"/>
      <point x="1742" y="744" type="qcurve" smooth="yes"/>
      <point x="1717" y="585"/>
      <point x="1552" y="307"/>
      <point x="1306" y="96"/>
      <point x="1007" y="-24"/>
    </contour>
    <contour>
      <point x="875" y="146" type="qcurve" smooth="yes"/>
      <point x="1000" y="146"/>
      <point x="1233" y="239"/>
      <point x="1425" y="403"/>
      <point x="1554" y="620"/>
      <point x="1574" y="744" type="qcurve" smooth="yes"/>
      <point x="1594" y="869"/>
      <point x="1537" y="1086"/>
      <point x="1400" y="1251"/>
      <point x="1198" y="1344"/>
      <point x="1073" y="1344" type="qcurve" smooth="yes"/>
      <point x="950" y="1344"/>
      <point x="718" y="1251"/>
      <point x="526" y="1086"/>
      <point x="397" y="868"/>
      <point x="376" y="744" type="qcurve" smooth="yes"/>
      <point x="355" y="621"/>
      <point x="412" y="404"/>
      <point x="550" y="239"/>
      <point x="751" y="146"/>
    </contour>
  </outline>
</glyph>
<glyph name="ordfeminine" format="2">
  <advance width="921"/>
  <unicode hex="00AA"/>
  <outline>
    <contour>
      <point x="633" y="862" type="qcurve" smooth="yes"/>
      <point x="691" y="1202" type="line"/>
      <point x="699" y="1267"/>
      <point x="652" y="1330"/>
      <point x="595" y="1330" type="qcurve" smooth="yes"/>
      <point x="528" y="1330"/>
      <point x="445" y="1279"/>
      <point x="436" y="1230" type="qcurve"/>
      <point x="268" y="1246" type="line"/>
      <point x="285" y="1345"/>
      <point x="475" y="1478"/>
      <point x="617" y="1478" type="qcurve" smooth="yes"/>
      <point x="748" y="1478"/>
      <point x="887" y="1339"/>
      <point x="865" y="1202" type="qcurve" smooth="yes"/>
      <point x="813" y="888" type="line" smooth="yes"/>
      <point x="804" y="833"/>
      <point x="802" y="748"/>
      <point x="807" y="706" type="qcurve"/>
      <point x="629" y="706" type="line"/>
      <point x="625" y="741"/>
      <point x="626" y="822"/>
    </contour>
    <contour>
      <point x="725" y="1152" type="line"/>
      <point x="705" y="1036" type="line"/>
      <point x="559" y="1036" type="line" smooth="yes"/>
      <point x="474" y="1036"/>
      <point x="383" y="970"/>
      <point x="376" y="926" type="qcurve" smooth="yes"/>
      <point x="369" y="882"/>
      <point x="420" y="838"/>
      <point x="479" y="838" type="qcurve" smooth="yes"/>
      <point x="519" y="838"/>
      <point x="608" y="874"/>
      <point x="673" y="927"/>
      <point x="675" y="952" type="qcurve"/>
      <point x="675" y="834" type="line"/>
      <point x="645" y="787"/>
      <point x="514" y="692"/>
      <point x="410" y="692" type="qcurve" smooth="yes"/>
      <point x="292" y="692"/>
      <point x="182" y="815"/>
      <point x="197" y="916" type="qcurve" smooth="yes"/>
      <point x="213" y="1023"/>
      <point x="397" y="1152"/>
      <point x="579" y="1152" type="qcurve" smooth="yes"/>
    </contour>
  </outline>
</glyph>
<glyph name="logicalnot" format="2">
  <advance width="1108"/>
  <unicode hex="00AC"/>
  <outline>
    <contour>
      <point x="1014" y="806" type="line"/>
      <point x="986" y="634" type="line"/>
      <point x="148" y="634" type="line"/>
      <point x="178" y="806" type="line"/>
    </contour>
    <contour>
      <point x="1002" y="728" type="line"/>
      <point x="944" y="376" type="line"/>
      <point x="743" y="376" type="line"/>
      <point x="801" y="728" type="line"/>
    </contour>
  </outline>
</glyph>
<glyph name="registered" format="2">
  <advance width="1374"/>
  <unicode hex="00AE"/>
  <outline>
    <contour>
      <point x="503" y="666" type="line"/>
      <point x="591" y="1202" type="line"/>
      <point x="863" y="1202" type="line" smooth="yes"/>
      <point x="886" y="1202"/>
      <point x="910" y="1196"/>
      <point x="934" y="1183" type="curve" smooth="yes"/>
      <point x="981" y="1158"/>
      <point x="1014" y="1108"/>
      <point x="1001" y="1032" type="curve" smooth="yes"/>
      <point x="994" y="993"/>
      <point x="979" y="959"/>
      <point x="956" y="932" type="curve" smooth="yes"/>
      <point x="909" y="876"/>
      <point x="846" y="848"/>
      <point x="797" y="848" type="curve" smooth="yes"/>
      <point x="600" y="848" type="line"/>
      <point x="616" y="937" type="line"/>
      <point x="776" y="937" type="line" smooth="yes"/>
      <point x="791" y="937"/>
      <point x="810" y="945"/>
      <point x="832" y="961" type="curve" smooth="yes"/>
      <point x="853" y="976"/>
      <point x="866" y="1000"/>
      <point x="871" y="1033" type="curve" smooth="yes"/>
      <point x="876" y="1066"/>
      <point x="869" y="1088"/>
      <point x="851" y="1099" type="curve" smooth="yes"/>
      <point x="833" y="1110"/>
      <point x="818" y="1115"/>
      <point x="807" y="1115" type="curve" smooth="yes"/>
      <point x="697" y="1115" type="line"/>
      <point x="623" y="666" type="line"/>
    </contour>
    <contour>
      <point x="871" y="920" type="line"/>
      <point x="962" y="666" type="line"/>
      <point x="830" y="666" type="line"/>
      <point x="743" y="920" type="line"/>
    </contour>
    <contour>
      <point x="748" y="346" type="curve" smooth="yes"/>
      <point x="587" y="346"/>
      <point x="443" y="410"/>
      <point x="337" y="517" type="curve" smooth="yes"/>
      <point x="231" y="624"/>
      <point x="166" y="768"/>
      <point x="166" y="928" type="curve" smooth="yes"/>
      <point x="166" y="1088"/>
      <point x="230" y="1232"/>
      <point x="336" y="1339" type="curve" smooth="yes"/>
      <point x="442" y="1446"/>
      <point x="587" y="1510"/>
      <point x="748" y="1510" type="curve" smooth="yes"/>
      <point x="908" y="1510"/>
      <point x="1052" y="1446"/>
      <point x="1159" y="1339" type="curve" smooth="yes"/>
      <point x="1266" y="1232"/>
      <point x="1330" y="1088"/>
      <point x="1330" y="928" type="curve" smooth="yes"/>
      <point x="1330" y="768"/>
      <point x="1266" y="624"/>
      <point x="1159" y="517" type="curve" smooth="yes"/>
      <point x="1052" y="410"/>
      <point x="908" y="346"/>
    </contour>
    <contour>
      <point x="748" y="487" type="curve" smooth="yes"/>
      <point x="869" y="487"/>
      <point x="979" y="535"/>
      <point x="1060" y="616" type="curve" smooth="yes"/>
      <point x="1141" y="697"/>
      <point x="1189" y="807"/>
      <point x="1189" y="928" type="curve" smooth="yes"/>
      <point x="1189" y="1009"/>
      <point x="1169" y="1083"/>
      <point x="1129" y="1150" type="curve" smooth="yes"/>
      <point x="1089" y="1217"/>
      <point x="1036" y="1270"/>
      <point x="969" y="1310" type="curve" smooth="yes"/>
      <point x="902" y="1349"/>
      <point x="829" y="1369"/>
      <point x="748" y="1369" type="curve" smooth="yes"/>
      <point x="627" y="1369"/>
      <point x="517" y="1321"/>
      <point x="436" y="1240" type="curve" smooth="yes"/>
      <point x="355" y="1159"/>
      <point x="307" y="1051"/>
      <point x="307" y="928" type="curve" smooth="yes"/>
      <point x="307" y="847"/>
      <point x="327" y="773"/>
      <point x="367" y="706" type="curve" smooth="yes"/>
      <point x="406" y="639"/>
      <point x="459" y="585"/>
      <point x="526" y="546" type="curve" smooth="yes"/>
      <point x="593" y="507"/>
      <point x="667" y="487"/>
    </contour>
  </outline>
</glyph>
<glyph name="degree" format="2">
  <advance width="933"/>
  <unicode hex="00B0"/>
  <outline>
    <contour>
      <point x="568" y="829" type="curve" smooth="yes"/>
      <point x="506" y="829"/>
      <point x="450" y="844"/>
      <point x="399" y="875" type="curve" smooth="yes"/>
      <point x="298" y="935"/>
      <point x="232" y="1041"/>
      <point x="232" y="1164" type="curve" smooth="yes"/>
      <point x="232" y="1226"/>
      <point x="247" y="1283"/>
      <point x="278" y="1334" type="curve" smooth="yes"/>
      <point x="308" y="1385"/>
      <point x="348" y="1426"/>
      <point x="399" y="1457" type="curve" smooth="yes"/>
      <point x="450" y="1487"/>
      <point x="506" y="1502"/>
      <point x="568" y="1502" type="curve" smooth="yes"/>
      <point x="630" y="1502"/>
      <point x="686" y="1487"/>
      <point x="737" y="1457" type="curve" smooth="yes"/>
      <point x="788" y="1426"/>
      <point x="828" y="1385"/>
      <point x="858" y="1334" type="curve" smooth="yes"/>
      <point x="888" y="1283"/>
      <point x="903" y="1226"/>
      <point x="903" y="1164" type="curve" smooth="yes"/>
      <point x="903" y="1103"/>
      <point x="888" y="1047"/>
      <point x="858" y="996" type="curve" smooth="yes"/>
      <point x="798" y="894"/>
      <point x="692" y="829"/>
    </contour>
    <contour>
      <point x="568" y="979" type="curve" smooth="yes"/>
      <point x="603" y="979"/>
      <point x="634" y="987"/>
      <point x="662" y="1004" type="curve" smooth="yes"/>
      <point x="717" y="1037"/>
      <point x="753" y="1096"/>
      <point x="753" y="1164" type="curve" smooth="yes"/>
      <point x="753" y="1199"/>
      <point x="745" y="1230"/>
      <point x="728" y="1258" type="curve" smooth="yes"/>
      <point x="695" y="1314"/>
      <point x="637" y="1351"/>
      <point x="568" y="1351" type="curve" smooth="yes"/>
      <point x="534" y="1351"/>
      <point x="503" y="1343"/>
      <point x="475" y="1326" type="curve" smooth="yes"/>
      <point x="418" y="1293"/>
      <point x="381" y="1233"/>
      <point x="381" y="1164" type="curve" smooth="yes"/>
      <point x="381" y="1130"/>
      <point x="390" y="1099"/>
      <point x="407" y="1071" type="curve" smooth="yes"/>
      <point x="441" y="1015"/>
      <point x="500" y="979"/>
    </contour>
  </outline>
</glyph>
<glyph name="plusminus" format="2">
  <advance width="1350"/>
  <unicode hex="00B1"/>
  <outline>
    <contour>
      <point x="126" y="70" type="line"/>
      <point x="152" y="232" type="line"/>
      <point x="1088" y="232" type="line"/>
      <point x="1062" y="70" type="line"/>
    </contour>
    <contour>
      <point x="224" y="658" type="line"/>
      <point x="250" y="820" type="line"/>
      <point x="1186" y="820" type="line"/>
      <point x="1160" y="658" type="line"/>
    </contour>
    <contour>
      <point x="562" y="360" type="line"/>
      <point x="686" y="1118" type="line"/>
      <point x="850" y="1118" type="line"/>
      <point x="724" y="360" type="line"/>
    </contour>
  </outline>
</glyph>
<glyph name="two.sups" format="2">
  <advance width="907"/>
  <unicode hex="00B2"/>
  <anchor x="644" y="1710" name="t.uni030F_1"/>
  <outline>
    <contour>
      <point x="174" y="898" type="line"/>
      <point x="194" y="1021" type="line"/>
      <point x="579" y="1290" type="line" smooth="yes"/>
      <point x="632" y="1327"/>
      <point x="707" y="1387"/>
      <point x="750" y="1444"/>
      <point x="755" y="1475" type="qcurve" smooth="yes"/>
      <point x="763" y="1528"/>
      <point x="683" y="1586"/>
      <point x="615" y="1586" type="qcurve" smooth="yes"/>
      <point x="543" y="1586"/>
      <point x="439" y="1523"/>
      <point x="429" y="1469" type="qcurve"/>
      <point x="263" y="1469" type="line"/>
      <point x="283" y="1584"/>
      <point x="478" y="1720"/>
      <point x="623" y="1720" type="qcurve" smooth="yes"/>
      <point x="770" y="1720"/>
      <point x="941" y="1588"/>
      <point x="924" y="1483" type="qcurve" smooth="yes"/>
      <point x="918" y="1449"/>
      <point x="888" y="1382"/>
      <point x="822" y="1306"/>
      <point x="707" y="1214"/>
      <point x="616" y="1155" type="qcurve" smooth="yes"/>
      <point x="445" y="1044" type="line"/>
      <point x="444" y="1037" type="line"/>
      <point x="876" y="1037" type="line"/>
      <point x="853" y="898" type="line"/>
    </contour>
  </outline>
</glyph>
<glyph name="twosuperior" format="2">
  <advance width="906"/>
  <unicode hex="00B2"/>
  <anchor x="582" y="1690" name="m.uni030F_1"/>
  <outline>
    <contour>
      <point x="175" y="898" type="line"/>
      <point x="195" y="1021" type="line"/>
      <point x="580" y="1290" type="line" smooth="yes"/>
      <point x="616" y="1315"/>
      <point x="646" y="1338"/>
      <point x="671" y="1357" type="curve"/>
      <point x="719" y="1396"/>
      <point x="745" y="1429"/>
      <point x="752" y="1469" type="curve" smooth="yes"/>
      <point x="758" y="1505"/>
      <point x="747" y="1534"/>
      <point x="720" y="1555" type="curve" smooth="yes"/>
      <point x="692" y="1576"/>
      <point x="655" y="1586"/>
      <point x="609" y="1586" type="curve" smooth="yes"/>
      <point x="562" y="1586"/>
      <point x="521" y="1576"/>
      <point x="488" y="1555" type="curve" smooth="yes"/>
      <point x="455" y="1534"/>
      <point x="435" y="1505"/>
      <point x="429" y="1469" type="curve"/>
      <point x="263" y="1469" type="line"/>
      <point x="276" y="1545"/>
      <point x="316" y="1606"/>
      <point x="385" y="1652" type="curve" smooth="yes"/>
      <point x="454" y="1697"/>
      <point x="536" y="1720"/>
      <point x="632" y="1720" type="curve" smooth="yes"/>
      <point x="733" y="1720"/>
      <point x="810" y="1698"/>
      <point x="863" y="1654" type="curve" smooth="yes"/>
      <point x="916" y="1609"/>
      <point x="936" y="1552"/>
      <point x="925" y="1483" type="curve" smooth="yes"/>
      <point x="917" y="1439"/>
      <point x="900" y="1396"/>
      <point x="856" y="1345" type="curve" smooth="yes"/>
      <point x="811" y="1294"/>
      <point x="735" y="1235"/>
      <point x="612" y="1155" type="curve" smooth="yes"/>
      <point x="441" y="1044" type="line"/>
      <point x="440" y="1037" type="line"/>
      <point x="877" y="1037" type="line"/>
      <point x="854" y="898" type="line"/>
    </contour>
  </outline>
</glyph>
<glyph name="three.sups.ss01" format="2">
  <advance width="922"/>
  <unicode hex="00B3"/>
  <anchor x="659" y="1710" name="t.uni030F_1"/>
  <outline>
    <contour>
      <point x="528" y="888" type="qcurve" smooth="yes"/>
      <point x="427" y="888"/>
      <point x="273" y="946"/>
      <point x="192" y="1051"/>
      <point x="200" y="1121" type="qcurve"/>
      <point x="377" y="1121" type="line"/>
      <point x="375" y="1081"/>
      <point x="467" y="1030"/>
      <point x="540" y="1030" type="qcurve" smooth="yes"/>
      <point x="621" y="1030"/>
      <point x="731" y="1094"/>
      <point x="741" y="1148" type="qcurve" smooth="yes"/>
      <point x="750" y="1198"/>
      <point x="665" y="1274"/>
      <point x="564" y="1274" type="qcurve" smooth="yes"/>
      <point x="461" y="1274" type="line"/>
      <point x="480" y="1387" type="line"/>
      <point x="744" y="1565" type="line"/>
      <point x="745" y="1570" type="line"/>
      <point x="323" y="1570" type="line"/>
      <point x="347" y="1710" type="line"/>
      <point x="985" y="1710" type="line"/>
      <point x="964" y="1588" type="line"/>
      <point x="594" y="1328" type="line"/>
      <point x="587" y="1367" type="line"/>
      <point x="699" y="1381"/>
      <point x="858" y="1323"/>
      <point x="936" y="1208"/>
      <point x="923" y="1134" type="qcurve" smooth="yes"/>
      <point x="911" y="1060"/>
      <point x="803" y="949"/>
      <point x="634" y="888"/>
    </contour>
  </outline>
</glyph>
<glyph name="threesuperior" format="2">
  <advance width="917"/>
  <unicode hex="00B3"/>
  <anchor x="630" y="1690" name="m.uni030F_1"/>
  <outline>
    <contour>
      <point x="514" y="888" type="curve" smooth="yes"/>
      <point x="447" y="888"/>
      <point x="389" y="898"/>
      <point x="339" y="917" type="curve" smooth="yes"/>
      <point x="239" y="955"/>
      <point x="184" y="1026"/>
      <point x="196" y="1121" type="curve"/>
      <point x="373" y="1121" type="line"/>
      <point x="371" y="1094"/>
      <point x="386" y="1072"/>
      <point x="419" y="1055" type="curve" smooth="yes"/>
      <point x="451" y="1038"/>
      <point x="491" y="1030"/>
      <point x="540" y="1030" type="curve" smooth="yes"/>
      <point x="593" y="1030"/>
      <point x="638" y="1041"/>
      <point x="674" y="1062" type="curve" smooth="yes"/>
      <point x="710" y="1083"/>
      <point x="731" y="1112"/>
      <point x="737" y="1149" type="curve" smooth="yes"/>
      <point x="742" y="1183"/>
      <point x="729" y="1212"/>
      <point x="697" y="1237" type="curve" smooth="yes"/>
      <point x="665" y="1262"/>
      <point x="616" y="1274"/>
      <point x="549" y="1274" type="curve" smooth="yes"/>
      <point x="463" y="1274" type="line"/>
      <point x="482" y="1387" type="line"/>
      <point x="746" y="1565" type="line"/>
      <point x="747" y="1570" type="line"/>
      <point x="316" y="1570" type="line"/>
      <point x="339" y="1710" type="line"/>
      <point x="980" y="1710" type="line"/>
      <point x="960" y="1588" type="line"/>
      <point x="583" y="1328" type="line"/>
      <point x="589" y="1367" type="line"/>
      <point x="662" y="1376"/>
      <point x="725" y="1372"/>
      <point x="778" y="1353" type="curve" smooth="yes"/>
      <point x="882" y="1315"/>
      <point x="936" y="1235"/>
      <point x="919" y="1135" type="curve" smooth="yes"/>
      <point x="911" y="1084"/>
      <point x="888" y="1041"/>
      <point x="850" y="1004" type="curve" smooth="yes"/>
      <point x="773" y="930"/>
      <point x="653" y="888"/>
    </contour>
  </outline>
</glyph>
<glyph name="micro" format="2">
  <advance width="1202"/>
  <unicode hex="00B5"/>
  <outline>
    <contour>
      <point x="-3" y="-418" type="line"/>
      <point x="251" y="1118" type="line"/>
      <point x="431" y="1118" type="line"/>
      <point x="319" y="440" type="line" smooth="yes"/>
      <point x="302" y="334"/>
      <point x="354" y="203"/>
      <point x="467" y="143"/>
      <point x="541" y="143" type="qcurve" smooth="yes"/>
      <point x="619" y="143"/>
      <point x="748" y="206"/>
      <point x="837" y="337"/>
      <point x="854" y="440" type="qcurve" smooth="yes"/>
      <point x="966" y="1118" type="line"/>
      <point x="1146" y="1118" type="line"/>
      <point x="1003" y="253" type="line" smooth="yes"/>
      <point x="994" y="198"/>
      <point x="1034" y="155"/>
      <point x="1095" y="155" type="qcurve" smooth="yes"/>
      <point x="1124" y="155" type="line"/>
      <point x="1098" y="0" type="line"/>
      <point x="1062" y="0" type="line" smooth="yes"/>
      <point x="925" y="0"/>
      <point x="806" y="127"/>
      <point x="827" y="251" type="qcurve" smooth="yes"/>
      <point x="844" y="352" type="line"/>
      <point x="885" y="352" type="line"/>
      <point x="867" y="241"/>
      <point x="781" y="97"/>
      <point x="670" y="17"/>
      <point x="558" y="-16"/>
      <point x="513" y="-16" type="qcurve" smooth="yes"/>
      <point x="468" y="-16"/>
      <point x="367" y="17"/>
      <point x="284" y="98"/>
      <point x="246" y="241"/>
      <point x="264" y="352" type="qcurve"/>
      <point x="305" y="352" type="line"/>
      <point x="177" y="-418" type="line"/>
    </contour>
  </outline>
</glyph>
<glyph name="uni00B5" format="2">
  <advance width="1191"/>
  <unicode hex="00B5"/>
  <outline>
    <contour>
      <point x="-3" y="-418" type="line"/>
      <point x="251" y="1118" type="line"/>
      <point x="421" y="1118" type="line"/>
      <point x="309" y="438" type="line" smooth="yes"/>
      <point x="291" y="332"/>
      <point x="343" y="198"/>
      <point x="458" y="136"/>
      <point x="535" y="136" type="qcurve" smooth="yes"/>
      <point x="612" y="136"/>
      <point x="743" y="198"/>
      <point x="835" y="332"/>
      <point x="853" y="438" type="qcurve" smooth="yes"/>
      <point x="965" y="1118" type="line"/>
      <point x="1135" y="1118" type="line"/>
      <point x="991" y="248" type="line" smooth="yes"/>
      <point x="982" y="192"/>
      <point x="1024" y="148"/>
      <point x="1085" y="148" type="qcurve" smooth="yes"/>
      <point x="1113" y="148" type="line"/>
      <point x="1088" y="0" type="line"/>
      <point x="1060" y="0" type="line" smooth="yes"/>
      <point x="921" y="0"/>
      <point x="805" y="127"/>
      <point x="825" y="248" type="qcurve" smooth="yes"/>
      <point x="842" y="349" type="line"/>
      <point x="883" y="349" type="line"/>
      <point x="865" y="238"/>
      <point x="778" y="95"/>
      <point x="666" y="15"/>
      <point x="552" y="-18"/>
      <point x="507" y="-18" type="qcurve" smooth="yes"/>
      <point x="462" y="-18"/>
      <point x="359" y="15"/>
      <point x="275" y="95"/>
      <point x="236" y="238"/>
      <point x="254" y="349" type="qcurve"/>
      <point x="294" y="349" type="line"/>
      <point x="167" y="-418" type="line"/>
    </contour>
  </outline>
</glyph>
<glyph name="paragraph" format="2">
  <advance width="1234"/>
  <unicode hex="00B6"/>
  <outline>
    <contour>
      <point x="1168" y="1324" type="line"/>
      <point x="814" y="1324" type="line"/>
      <point x="687" y="552" type="line"/>
      <point x="603" y="552" type="line" smooth="yes"/>
      <point x="496" y="552"/>
      <point x="410" y="573"/>
      <point x="343" y="614" type="curve" smooth="yes"/>
      <point x="210" y="696"/>
      <point x="158" y="843"/>
      <point x="187" y="1022" type="curve" smooth="yes"/>
      <point x="202" y="1112"/>
      <point x="235" y="1192"/>
      <point x="285" y="1263" type="curve" smooth="yes"/>
      <point x="384" y="1403"/>
      <point x="546" y="1490"/>
      <point x="757" y="1490" type="curve" smooth="yes"/>
      <point x="1195" y="1490" type="line"/>
    </contour>
    <contour>
      <point x="775" y="0" type="line"/>
      <point x="1023" y="1490" type="line"/>
      <point x="1208" y="1490" type="line"/>
      <point x="960" y="0" type="line"/>
    </contour>
  </outline>
</glyph>
<glyph name="one.sups" format="2">
  <advance width="642"/>
  <unicode hex="00B9"/>
  <outline>
    <contour>
      <point x="350" y="744" type="line"/>
      <point x="472" y="1480" type="line"/>
      <point x="464" y="1480" type="line"/>
      <point x="208" y="1326" type="line"/>
      <point x="234" y="1480" type="line"/>
      <point x="498" y="1638" type="line"/>
      <point x="648" y="1638" type="line"/>
      <point x="500" y="744" type="line"/>
    </contour>
  </outline>
</glyph>
<glyph name="one.sups.ss01" format="2">
  <advance width="616"/>
  <unicode hex="00B9"/>
  <outline>
    <contour>
      <point x="365" y="874" type="line"/>
      <point x="459" y="1441" type="line"/>
      <point x="469" y="1428" type="line"/>
      <point x="440" y="1428"/>
      <point x="383" y="1428"/>
      <point x="319" y="1428"/>
      <point x="256" y="1428" type="qcurve"/>
      <point x="277" y="1557" type="line"/>
      <point x="329" y="1557" type="line" smooth="yes"/>
      <point x="406" y="1557"/>
      <point x="500" y="1620"/>
      <point x="519" y="1685" type="qcurve"/>
      <point x="667" y="1685" type="line"/>
      <point x="532" y="874" type="line"/>
    </contour>
  </outline>
</glyph>
<glyph name="ordmasculine" format="2">
  <advance width="920"/>
  <unicode hex="00BA"/>
  <outline>
    <contour>
      <point x="194" y="1044" type="qcurve" smooth="yes"/>
      <point x="206" y="1122" type="line"/>
      <point x="224" y="1226"/>
      <point x="335" y="1386"/>
      <point x="504" y="1478"/>
      <point x="610" y="1478" type="qcurve" smooth="yes"/>
      <point x="772" y="1478"/>
      <point x="925" y="1277"/>
      <point x="898" y="1122" type="qcurve"/>
      <point x="888" y="1044" type="line"/>
      <point x="870" y="941"/>
      <point x="760" y="782"/>
      <point x="592" y="692"/>
      <point x="486" y="692" type="qcurve" smooth="yes"/>
      <point x="325" y="692"/>
      <point x="169" y="890"/>
    </contour>
    <contour>
      <point x="382" y="1122" type="qcurve" smooth="yes"/>
      <point x="370" y="1044" type="line"/>
      <point x="354" y="955"/>
      <point x="422" y="838"/>
      <point x="510" y="838" type="qcurve" smooth="yes"/>
      <point x="595" y="838"/>
      <point x="697" y="955"/>
      <point x="712" y="1044" type="qcurve"/>
      <point x="724" y="1122" type="line"/>
      <point x="740" y="1210"/>
      <point x="675" y="1329"/>
      <point x="588" y="1330" type="qcurve"/>
      <point x="503" y="1329"/>
      <point x="396" y="1210"/>
    </contour>
  </outline>
</glyph>
<glyph name="questiondown" format="2">
  <advance width="1038"/>
  <unicode hex="00BF"/>
  <outline>
    <contour>
      <point x="674" y="665" type="line"/>
      <point x="672" y="654" type="line" smooth="yes"/>
      <point x="648" y="518"/>
      <point x="569" y="368"/>
      <point x="457" y="282"/>
      <point x="381" y="240" type="qcurve" smooth="yes"/>
      <point x="309" y="200"/>
      <point x="198" y="77"/>
      <point x="184" y="-10" type="qcurve" smooth="yes"/>
      <point x="173" y="-79"/>
      <point x="221" y="-181"/>
      <point x="322" y="-237"/>
      <point x="389" y="-237" type="qcurve" smooth="yes"/>
      <point x="448" y="-237"/>
      <point x="565" y="-188"/>
      <point x="655" y="-84"/>
      <point x="674" y="-1" type="qcurve"/>
      <point x="864" y="-1" type="line"/>
      <point x="839" y="-126"/>
      <point x="699" y="-303"/>
      <point x="497" y="-396"/>
      <point x="379" y="-396" type="qcurve" smooth="yes"/>
      <point x="250" y="-396"/>
      <point x="66" y="-294"/>
      <point x="-18" y="-117"/>
      <point x="1" y="-3" type="qcurve" smooth="yes"/>
      <point x="21" y="118"/>
      <point x="156" y="290"/>
      <point x="262" y="349" type="qcurve" smooth="yes"/>
      <point x="333" y="389"/>
      <point x="422" y="461"/>
      <point x="475" y="566"/>
      <point x="491" y="654" type="qcurve" smooth="yes"/>
      <point x="493" y="665" type="line"/>
    </contour>
    <contour>
      <point x="657" y="1127" type="qcurve" smooth="yes"/>
      <point x="713" y="1127"/>
      <point x="779" y="1049"/>
      <point x="770" y="993" type="qcurve" smooth="yes"/>
      <point x="761" y="937"/>
      <point x="669" y="858"/>
      <point x="613" y="858" type="qcurve" smooth="yes"/>
      <point x="558" y="858"/>
      <point x="492" y="937"/>
      <point x="501" y="993" type="qcurve" smooth="yes"/>
      <point x="510" y="1049"/>
      <point x="602" y="1127"/>
    </contour>
  </outline>
</glyph>
<glyph name="AE" format="2">
  <advance width="2028"/>
  <unicode hex="00C6"/>
  <outline>
    <contour>
      <point x="-41" y="0" type="line"/>
      <point x="928" y="1490" type="line"/>
      <point x="2036" y="1490" type="line"/>
      <point x="2009" y="1330" type="line"/>
      <point x="1291" y="1330" type="line"/>
      <point x="1208" y="826" type="line"/>
      <point x="1880" y="826" type="line"/>
      <point x="1853" y="666" type="line"/>
      <point x="1181" y="666" type="line"/>
      <point x="1097" y="160" type="line"/>
      <point x="1827" y="160" type="line"/>
      <point x="1801" y="0" type="line"/>
      <point x="891" y="0" type="line"/>
      <point x="1111" y="1330" type="line"/>
      <point x="1003" y="1330" type="line"/>
      <point x="157" y="0" type="line"/>
    </contour>
    <contour>
      <point x="371" y="422" type="line"/>
      <point x="397" y="582" type="line"/>
      <point x="1077" y="582" type="line"/>
      <point x="1051" y="422" type="line"/>
    </contour>
  </outline>
</glyph>
<glyph name="multiply" format="2">
  <advance width="1350"/>
  <unicode hex="00D7"/>
  <outline>
    <contour>
      <point x="958" y="116" type="line"/>
      <point x="274" y="936" type="line"/>
      <point x="392" y="1038" type="line"/>
      <point x="1076" y="218" type="line"/>
    </contour>
    <contour>
      <point x="264" y="120" type="line"/>
      <point x="162" y="238" type="line"/>
      <point x="1096" y="1036" type="line"/>
      <point x="1198" y="916" type="line"/>
    </contour>
  </outline>
</glyph>
<glyph name="Thorn" format="2">
  <advance width="1292"/>
  <unicode hex="00DE"/>
  <outline>
    <contour>
      <point x="322" y="1490" type="line"/>
      <point x="504" y="1490" type="line"/>
      <point x="256" y="0" type="line"/>
      <point x="76" y="0" type="line"/>
    </contour>
    <contour>
      <point x="354" y="1182" type="line"/>
      <point x="738" y="1182" type="line" smooth="yes"/>
      <point x="897" y="1182"/>
      <point x="1099" y="1066"/>
      <point x="1181" y="872"/>
      <point x="1160" y="754" type="qcurve"/>
      <point x="1142" y="636"/>
      <point x="996" y="442"/>
      <point x="758" y="326"/>
      <point x="600" y="326" type="qcurve" smooth="yes"/>
      <point x="216" y="326" type="line"/>
      <point x="242" y="486" type="line"/>
      <point x="626" y="486" type="line" smooth="yes"/>
      <point x="729" y="486"/>
      <point x="881" y="548"/>
      <point x="975" y="666"/>
      <point x="990" y="750" type="qcurve" smooth="yes"/>
      <point x="1004" y="835"/>
      <point x="949" y="956"/>
      <point x="816" y="1022"/>
      <point x="712" y="1022" type="qcurve" smooth="yes"/>
      <point x="328" y="1022" type="line"/>
    </contour>
  </outline>
</glyph>
<glyph name="germandbls" format="2">
  <advance width="1262"/>
  <unicode hex="00DF"/>
  <outline>
    <contour>
      <point x="87" y="0" type="line"/>
      <point x="271" y="1107" type="line" smooth="yes"/>
      <point x="285" y="1190"/>
      <point x="315" y="1261"/>
      <point x="362" y="1321" type="curve" smooth="yes"/>
      <point x="454" y="1441"/>
      <point x="601" y="1510"/>
      <point x="773" y="1510" type="curve" smooth="yes"/>
      <point x="856" y="1510"/>
      <point x="929" y="1495"/>
      <point x="991" y="1464" type="curve" smooth="yes"/>
      <point x="1052" y="1433"/>
      <point x="1098" y="1389"/>
      <point x="1127" y="1332" type="curve" smooth="yes"/>
      <point x="1156" y="1274"/>
      <point x="1164" y="1205"/>
      <point x="1151" y="1124" type="curve" smooth="yes"/>
      <point x="1137" y="1039"/>
      <point x="1104" y="968"/>
      <point x="1051" y="911" type="curve" smooth="yes"/>
      <point x="998" y="854"/>
      <point x="934" y="813"/>
      <point x="861" y="789" type="curve"/>
      <point x="859" y="775" type="line"/>
      <point x="953" y="766"/>
      <point x="1025" y="728"/>
      <point x="1074" y="662" type="curve" smooth="yes"/>
      <point x="1123" y="596"/>
      <point x="1139" y="511"/>
      <point x="1121" y="407" type="curve" smooth="yes"/>
      <point x="1108" y="328"/>
      <point x="1078" y="258"/>
      <point x="1031" y="197" type="curve" smooth="yes"/>
      <point x="938" y="74"/>
      <point x="791" y="0"/>
      <point x="616" y="0" type="curve" smooth="yes"/>
      <point x="451" y="0" type="line"/>
      <point x="480" y="167" type="line"/>
      <point x="644" y="167" type="line" smooth="yes"/>
      <point x="695" y="167"/>
      <point x="742" y="177"/>
      <point x="783" y="198" type="curve" smooth="yes"/>
      <point x="866" y="239"/>
      <point x="923" y="314"/>
      <point x="939" y="410" type="curve" smooth="yes"/>
      <point x="952" y="485"/>
      <point x="938" y="548"/>
      <point x="896" y="597" type="curve" smooth="yes"/>
      <point x="853" y="646"/>
      <point x="787" y="671"/>
      <point x="698" y="671" type="curve" smooth="yes"/>
      <point x="569" y="671" type="line"/>
      <point x="597" y="841" type="line"/>
      <point x="688" y="841" type="line" smooth="yes"/>
      <point x="737" y="841"/>
      <point x="780" y="853"/>
      <point x="819" y="878" type="curve" smooth="yes"/>
      <point x="896" y="926"/>
      <point x="949" y="1010"/>
      <point x="964" y="1097" type="curve" smooth="yes"/>
      <point x="975" y="1166"/>
      <point x="962" y="1224"/>
      <point x="925" y="1272" type="curve" smooth="yes"/>
      <point x="888" y="1319"/>
      <point x="829" y="1343"/>
      <point x="750" y="1343" type="curve" smooth="yes"/>
      <point x="677" y="1343"/>
      <point x="613" y="1321"/>
      <point x="556" y="1278" type="curve" smooth="yes"/>
      <point x="499" y="1234"/>
      <point x="465" y="1176"/>
      <point x="453" y="1104" type="curve" smooth="yes"/>
      <point x="269" y="0" type="line"/>
    </contour>
  </outline>
</glyph>
<glyph name="ae" format="2">
  <advance width="1879"/>
  <unicode hex="00E6"/>
  <anchor x="1124" y="1180" name="m.uni030F_1"/>
  <anchor x="1221" y="0" name="m.uniF6C3"/>
  <outline>
    <contour>
      <point x="391" y="-16" type="curve" smooth="yes"/>
      <point x="219" y="-16"/>
      <point x="59" y="64"/>
      <point x="59" y="257" type="curve" smooth="yes"/>
      <point x="59" y="640"/>
      <point x="437" y="625"/>
      <point x="717" y="625" type="curve" smooth="yes"/>
      <point x="1615" y="625" type="line"/>
      <point x="1619" y="654"/>
      <point x="1622" y="684"/>
      <point x="1622" y="713" type="curve" smooth="yes"/>
      <point x="1622" y="875"/>
      <point x="1529" y="977"/>
      <point x="1365" y="977" type="curve" smooth="yes"/>
      <point x="1185" y="977"/>
      <point x="1003" y="811"/>
      <point x="975" y="634" type="curve" smooth="yes"/>
      <point x="963" y="556"/>
      <point x="945" y="475"/>
      <point x="945" y="396" type="curve" smooth="yes"/>
      <point x="945" y="201"/>
      <point x="1062" y="131"/>
      <point x="1243" y="131" type="curve" smooth="yes"/>
      <point x="1376" y="131"/>
      <point x="1487" y="185"/>
      <point x="1551" y="305" type="curve"/>
      <point x="1708" y="259" type="line"/>
      <point x="1618" y="69"/>
      <point x="1419" y="-23"/>
      <point x="1216" y="-23" type="curve" smooth="yes"/>
      <point x="944" y="-23"/>
      <point x="780" y="143"/>
      <point x="780" y="416" type="curve" smooth="yes"/>
      <point x="780" y="766"/>
      <point x="1009" y="1132"/>
      <point x="1391" y="1132" type="curve" smooth="yes"/>
      <point x="1649" y="1132"/>
      <point x="1789" y="972"/>
      <point x="1789" y="720" type="curve" smooth="yes"/>
      <point x="1789" y="642"/>
      <point x="1777" y="565"/>
      <point x="1766" y="487" type="curve"/>
      <point x="521" y="485" type="line" smooth="yes"/>
      <point x="386" y="485"/>
      <point x="239" y="441"/>
      <point x="239" y="279" type="curve" smooth="yes"/>
      <point x="239" y="171"/>
      <point x="329" y="140"/>
      <point x="422" y="140" type="curve" smooth="yes"/>
      <point x="592" y="140"/>
      <point x="732" y="232"/>
      <point x="764" y="406" type="curve" smooth="yes"/>
      <point x="831" y="765" type="line" smooth="yes"/>
      <point x="835" y="786"/>
      <point x="837" y="807"/>
      <point x="837" y="829" type="curve" smooth="yes"/>
      <point x="837" y="960"/>
      <point x="737" y="985"/>
      <point x="626" y="985" type="curve" smooth="yes"/>
      <point x="503" y="985"/>
      <point x="383" y="928"/>
      <point x="350" y="801" type="curve"/>
      <point x="168" y="803" type="line"/>
      <point x="215" y="1030"/>
      <point x="431" y="1141"/>
      <point x="648" y="1141" type="curve" smooth="yes"/>
      <point x="829" y="1141"/>
      <point x="1008" y="1058"/>
      <point x="1008" y="851" type="curve" smooth="yes"/>
      <point x="1008" y="829"/>
      <point x="1006" y="808"/>
      <point x="1002" y="786" type="curve" smooth="yes"/>
      <point x="897" y="253" type="line"/>
      <point x="798" y="60"/>
      <point x="598" y="-16"/>
    </contour>
  </outline>
</glyph>
<glyph name="eth" format="2">
  <advance width="1192"/>
  <unicode hex="00F0"/>
  <outline>
    <contour>
      <point x="1109" y="1415" type="line"/>
      <point x="456" y="1123" type="line"/>
      <point x="428" y="1233" type="line"/>
      <point x="1079" y="1525" type="line"/>
    </contour>
    <contour>
      <point x="499" y="-24" type="curve" smooth="yes"/>
      <point x="399" y="-24"/>
      <point x="316" y="-1"/>
      <point x="250" y="45" type="curve" smooth="yes"/>
      <point x="184" y="91"/>
      <point x="138" y="154"/>
      <point x="111" y="235" type="curve" smooth="yes"/>
      <point x="84" y="316"/>
      <point x="79" y="408"/>
      <point x="96" y="511" type="curve" smooth="yes"/>
      <point x="113" y="616"/>
      <point x="149" y="709"/>
      <point x="202" y="790" type="curve" smooth="yes"/>
      <point x="255" y="871"/>
      <point x="319" y="934"/>
      <point x="394" y="979" type="curve" smooth="yes"/>
      <point x="469" y="1024"/>
      <point x="547" y="1047"/>
      <point x="630" y="1047" type="curve" smooth="yes"/>
      <point x="686" y="1047"/>
      <point x="733" y="1038"/>
      <point x="772" y="1019" type="curve" smooth="yes"/>
      <point x="849" y="981"/>
      <point x="897" y="918"/>
      <point x="921" y="861" type="curve"/>
      <point x="935" y="861" type="line"/>
      <point x="923" y="922"/>
      <point x="901" y="988"/>
      <point x="869" y="1058" type="curve" smooth="yes"/>
      <point x="836" y="1128"/>
      <point x="789" y="1198"/>
      <point x="726" y="1267" type="curve" smooth="yes"/>
      <point x="663" y="1336"/>
      <point x="580" y="1399"/>
      <point x="476" y="1456" type="curve"/>
      <point x="569" y="1581" type="line"/>
      <point x="644" y="1541"/>
      <point x="717" y="1489"/>
      <point x="788" y="1426" type="curve" smooth="yes"/>
      <point x="858" y="1362"/>
      <point x="919" y="1287"/>
      <point x="972" y="1201" type="curve" smooth="yes"/>
      <point x="1024" y="1114"/>
      <point x="1061" y="1017"/>
      <point x="1084" y="909" type="curve" smooth="yes"/>
      <point x="1106" y="801"/>
      <point x="1107" y="683"/>
      <point x="1087" y="554" type="curve" smooth="yes"/>
      <point x="1068" y="431"/>
      <point x="1030" y="327"/>
      <point x="975" y="241" type="curve" smooth="yes"/>
      <point x="864" y="69"/>
      <point x="696" y="-24"/>
    </contour>
    <contour>
      <point x="529" y="136" type="curve" smooth="yes"/>
      <point x="598" y="136"/>
      <point x="659" y="152"/>
      <point x="712" y="185" type="curve" smooth="yes"/>
      <point x="764" y="218"/>
      <point x="807" y="262"/>
      <point x="840" y="318" type="curve" smooth="yes"/>
      <point x="873" y="373"/>
      <point x="894" y="435"/>
      <point x="905" y="502" type="curve" smooth="yes"/>
      <point x="916" y="566"/>
      <point x="915" y="628"/>
      <point x="903" y="689" type="curve" smooth="yes"/>
      <point x="891" y="750"/>
      <point x="865" y="800"/>
      <point x="826" y="840" type="curve" smooth="yes"/>
      <point x="786" y="879"/>
      <point x="729" y="899"/>
      <point x="655" y="899" type="curve" smooth="yes"/>
      <point x="584" y="899"/>
      <point x="523" y="881"/>
      <point x="470" y="845" type="curve" smooth="yes"/>
      <point x="417" y="808"/>
      <point x="375" y="761"/>
      <point x="343" y="702" type="curve" smooth="yes"/>
      <point x="310" y="643"/>
      <point x="288" y="580"/>
      <point x="277" y="512" type="curve" smooth="yes"/>
      <point x="266" y="447"/>
      <point x="267" y="385"/>
      <point x="280" y="328" type="curve" smooth="yes"/>
      <point x="304" y="213"/>
      <point x="382" y="136"/>
    </contour>
  </outline>
</glyph>
<glyph name="divide" format="2">
  <advance width="1350"/>
  <unicode hex="00F7"/>
  <outline>
    <contour>
      <point x="1158" y="664" type="line"/>
      <point x="1132" y="500" type="line"/>
      <point x="200" y="500" type="line"/>
      <point x="226" y="664" type="line"/>
    </contour>
    <contour>
      <point x="606" y="76" type="qcurve" smooth="yes"/>
      <point x="547" y="76"/>
      <point x="481" y="159"/>
      <point x="488" y="218" type="qcurve"/>
      <point x="493" y="250"/>
      <point x="533" y="303"/>
      <point x="594" y="335"/>
      <point x="628" y="334" type="qcurve"/>
      <point x="683" y="335"/>
      <point x="750" y="252"/>
      <point x="742" y="194" type="qcurve" smooth="yes"/>
      <point x="735" y="145"/>
      <point x="653" y="76"/>
    </contour>
    <contour>
      <point x="730" y="830" type="qcurve"/>
      <point x="691" y="830"/>
      <point x="632" y="868"/>
      <point x="604" y="933"/>
      <point x="610" y="972" type="qcurve"/>
      <point x="620" y="1020"/>
      <point x="702" y="1088"/>
      <point x="754" y="1088" type="qcurve" smooth="yes"/>
      <point x="808" y="1088"/>
      <point x="877" y="1005"/>
      <point x="866" y="948" type="qcurve"/>
      <point x="858" y="898"/>
      <point x="778" y="829"/>
    </contour>
  </outline>
</glyph>
<glyph name="thorn" format="2">
  <advance width="1246"/>
  <unicode hex="00FE"/>
  <outline>
    <contour>
      <point x="571" y="-24" type="qcurve" smooth="yes"/>
      <point x="464" y="-24"/>
      <point x="347" y="49"/>
      <point x="292" y="142"/>
      <point x="278" y="172" type="qcurve"/>
      <point x="264" y="172" type="line"/>
      <point x="166" y="-418" type="line"/>
      <point x="-4" y="-418" type="line"/>
      <point x="312" y="1490" type="line"/>
      <point x="482" y="1490" type="line"/>
      <point x="391" y="940" type="line"/>
      <point x="405" y="940" type="line"/>
      <point x="429" y="969"/>
      <point x="512" y="1060"/>
      <point x="652" y="1132"/>
      <point x="761" y="1132" type="qcurve" smooth="yes"/>
      <point x="902" y="1132"/>
      <point x="1093" y="991"/>
      <point x="1171" y="732"/>
      <point x="1142" y="556" type="qcurve" smooth="yes"/>
      <point x="1113" y="379"/>
      <point x="949" y="118"/>
      <point x="711" y="-24"/>
    </contour>
    <contour>
      <point x="575" y="130" type="qcurve" smooth="yes"/>
      <point x="682" y="130"/>
      <point x="845" y="245"/>
      <point x="950" y="439"/>
      <point x="970" y="558" type="qcurve" smooth="yes"/>
      <point x="990" y="676"/>
      <point x="949" y="866"/>
      <point x="824" y="978"/>
      <point x="715" y="978" type="qcurve" smooth="yes"/>
      <point x="610" y="978"/>
      <point x="450" y="873"/>
      <point x="347" y="684"/>
      <point x="326" y="558" type="qcurve" smooth="yes"/>
      <point x="305" y="432"/>
      <point x="347" y="239"/>
      <point x="472" y="130"/>
    </contour>
  </outline>
</glyph>
<glyph name="Hbar" format="2">
  <advance width="1593"/>
  <unicode hex="0126"/>
  <anchor x="887" y="0" name="m.uni0326"/>
  <anchor x="1134" y="1490" name="m.uni030F_1"/>
  <anchor x="447" y="0" name="m.uni0327_3"/>
  <outline>
    <contour>
      <point x="1596" y="1176" type="line"/>
      <point x="1572" y="1024" type="line"/>
      <point x="180" y="1024" type="line"/>
      <point x="202" y="1176" type="line"/>
    </contour>
    <contour>
      <point x="127" y="0" type="line"/>
      <point x="374" y="1490" type="line"/>
      <point x="564" y="1490" type="line"/>
      <point x="457" y="846" type="line"/>
      <point x="1239" y="846" type="line"/>
      <point x="1346" y="1490" type="line"/>
      <point x="1536" y="1490" type="line"/>
      <point x="1289" y="0" type="line"/>
      <point x="1099" y="0" type="line"/>
      <point x="1212" y="678" type="line"/>
      <point x="429" y="678" type="line"/>
      <point x="317" y="0" type="line"/>
    </contour>
  </outline>
</glyph>
<glyph name="dotlessi" format="2">
  <advance width="487"/>
  <unicode hex="0131"/>
  <anchor x="263" y="0" name="m.uni0326"/>
  <anchor x="454" y="1180" name="m.uni030F_1"/>
  <anchor x="513" y="0" name="m.uni0328_4"/>
  <outline>
    <contour>
      <point x="66" y="0" type="line"/>
      <point x="251" y="1118" type="line"/>
      <point x="421" y="1118" type="line"/>
      <point x="236" y="0" type="line"/>
    </contour>
  </outline>
</glyph>
<glyph name="kgreenlandic" format="2">
  <advance width="1061"/>
  <unicode hex="0138"/>
  <outline>
    <contour>
      <point x="421" y="1118" type="line"/>
      <point x="236" y="0" type="line"/>
      <point x="66" y="0" type="line"/>
      <point x="251" y="1118" type="line"/>
    </contour>
    <contour>
      <point x="1126" y="1118" type="line"/>
      <point x="478" y="478" type="line"/>
      <point x="247" y="478" type="line"/>
      <point x="274" y="638" type="line"/>
      <point x="442" y="638" type="line"/>
      <point x="919" y="1118" type="line"/>
    </contour>
    <contour>
      <point x="724" y="0" type="line"/>
      <point x="388" y="486" type="line"/>
      <point x="497" y="628" type="line"/>
      <point x="935" y="0" type="line"/>
    </contour>
  </outline>
</glyph>
<glyph name="Eng" format="2">
  <advance width="1543"/>
  <unicode hex="014A"/>
  <anchor x="765" y="0" name="m.uni0326"/>
  <anchor x="1012" y="1490" name="m.uni030F_1"/>
  <outline>
    <contour>
      <point x="817" y="-418" type="qcurve"/>
      <point x="843" y="-259" type="line"/>
      <point x="859" y="-262"/>
      <point x="890" y="-264"/>
      <point x="901" y="-264" type="qcurve" smooth="yes"/>
      <point x="987" y="-264"/>
      <point x="1056" y="-213"/>
      <point x="1064" y="-163" type="qcurve" smooth="yes"/>
      <point x="1112" y="128" type="line"/>
      <point x="1302" y="128" type="line"/>
      <point x="1252" y="-171" type="line" smooth="yes"/>
      <point x="1231" y="-296"/>
      <point x="1060" y="-427"/>
      <point x="919" y="-427" type="qcurve" smooth="yes"/>
      <point x="886" y="-427"/>
      <point x="831" y="-422"/>
    </contour>
    <contour>
      <point x="87" y="0" type="line"/>
      <point x="334" y="1490" type="line"/>
      <point x="552" y="1490" type="line"/>
      <point x="1000" y="537" type="line" smooth="yes"/>
      <point x="1014" y="507"/>
      <point x="1063" y="394"/>
      <point x="1120" y="243"/>
      <point x="1146" y="155" type="qcurve"/>
      <point x="1125" y="155" type="line"/>
      <point x="1130" y="241"/>
      <point x="1148" y="396"/>
      <point x="1168" y="528"/>
      <point x="1176" y="576" type="qcurve" smooth="yes"/>
      <point x="1327" y="1490" type="line"/>
      <point x="1517" y="1490" type="line"/>
      <point x="1270" y="0" type="line"/>
      <point x="1051" y="0" type="line"/>
      <point x="651" y="848" type="line" smooth="yes"/>
      <point x="626" y="902"/>
      <point x="573" y="1025"/>
      <point x="504" y="1199"/>
      <point x="452" y="1329" type="qcurve"/>
      <point x="480" y="1329" type="line"/>
      <point x="465" y="1208"/>
      <point x="442" y="1022"/>
      <point x="425" y="890"/>
      <point x="418" y="850" type="qcurve" smooth="yes"/>
      <point x="278" y="0" type="line"/>
    </contour>
  </outline>
</glyph>
<glyph name="eng" format="2">
  <advance width="1200"/>
  <unicode hex="014B"/>
  <anchor x="651" y="0" name="m.uni0326"/>
  <anchor x="851" y="1180" name="m.uni030F_1"/>
  <outline>
    <contour>
      <point x="496" y="-418" type="qcurve"/>
      <point x="521" y="-266" type="line"/>
      <point x="535" y="-268"/>
      <point x="574" y="-270"/>
      <point x="586" y="-270" type="qcurve" smooth="yes"/>
      <point x="671" y="-270"/>
      <point x="743" y="-220"/>
      <point x="751" y="-168" type="qcurve" smooth="yes"/>
      <point x="779" y="0" type="line"/>
      <point x="949" y="0" type="line"/>
      <point x="920" y="-176" type="line" smooth="yes"/>
      <point x="900" y="-297"/>
      <point x="733" y="-426"/>
      <point x="594" y="-426" type="qcurve" smooth="yes"/>
      <point x="560" y="-426"/>
      <point x="508" y="-421"/>
    </contour>
    <contour>
      <point x="346" y="666" type="qcurve" smooth="yes"/>
      <point x="235" y="0" type="line"/>
      <point x="65" y="0" type="line"/>
      <point x="251" y="1118" type="line"/>
      <point x="415" y="1118" type="line"/>
      <point x="370" y="848" type="line"/>
      <point x="344" y="853" type="line"/>
      <point x="421" y="1008"/>
      <point x="626" y="1132"/>
      <point x="748" y="1132" type="qcurve" smooth="yes"/>
      <point x="864" y="1132"/>
      <point x="1023" y="1037"/>
      <point x="1090" y="847"/>
      <point x="1066" y="704" type="qcurve" smooth="yes"/>
      <point x="949" y="0" type="line"/>
      <point x="779" y="0" type="line"/>
      <point x="896" y="704" type="line" smooth="yes"/>
      <point x="918" y="835"/>
      <point x="811" y="978"/>
      <point x="695" y="978" type="qcurve" smooth="yes"/>
      <point x="611" y="978"/>
      <point x="464" y="903"/>
      <point x="362" y="764"/>
    </contour>
  </outline>
</glyph>
<glyph name="OE" format="2">
  <advance width="1956"/>
  <unicode hex="0152"/>
  <anchor x="1378" y="0" name="m.uni0326"/>
  <anchor x="1625" y="1490" name="m.uni030F_1"/>
  <anchor x="1356" y="0" name="m.uni0327_3"/>
  <anchor x="1976" y="0" name="m.uni0328_4"/>
  <outline>
    <contour>
      <point x="684" y="0" type="line" smooth="yes"/>
      <point x="553" y="0"/>
      <point x="444" y="31"/>
      <point x="356" y="94" type="curve" smooth="yes"/>
      <point x="267" y="156"/>
      <point x="205" y="243"/>
      <point x="169" y="355" type="curve" smooth="yes"/>
      <point x="133" y="466"/>
      <point x="127" y="596"/>
      <point x="152" y="744" type="curve" smooth="yes"/>
      <point x="177" y="894"/>
      <point x="226" y="1025"/>
      <point x="299" y="1137" type="curve" smooth="yes"/>
      <point x="372" y="1248"/>
      <point x="463" y="1335"/>
      <point x="572" y="1397" type="curve" smooth="yes"/>
      <point x="681" y="1459"/>
      <point x="800" y="1490"/>
      <point x="930" y="1490" type="curve" smooth="yes"/>
      <point x="1132" y="1490" type="line"/>
      <point x="1106" y="1330" type="line"/>
      <point x="904" y="1330" type="line" smooth="yes"/>
      <point x="809" y="1330"/>
      <point x="721" y="1306"/>
      <point x="641" y="1257" type="curve" smooth="yes"/>
      <point x="560" y="1208"/>
      <point x="493" y="1140"/>
      <point x="438" y="1053" type="curve" smooth="yes"/>
      <point x="383" y="965"/>
      <point x="345" y="862"/>
      <point x="326" y="744" type="curve" smooth="yes"/>
      <point x="307" y="628"/>
      <point x="310" y="526"/>
      <point x="336" y="439" type="curve" smooth="yes"/>
      <point x="361" y="351"/>
      <point x="406" y="283"/>
      <point x="471" y="234" type="curve" smooth="yes"/>
      <point x="536" y="185"/>
      <point x="616" y="160"/>
      <point x="712" y="160" type="curve" smooth="yes"/>
      <point x="914" y="160" type="line"/>
      <point x="884" y="0" type="line"/>
    </contour>
    <contour>
      <point x="811" y="0" type="line"/>
      <point x="1058" y="1490" type="line"/>
      <point x="1966" y="1490" type="line"/>
      <point x="1938" y="1323" type="line"/>
      <point x="1220" y="1323" type="line"/>
      <point x="1140" y="836" type="line"/>
      <point x="1809" y="836" type="line"/>
      <point x="1781" y="669" type="line"/>
      <point x="1111" y="669" type="line"/>
      <point x="1028" y="167" type="line"/>
      <point x="1755" y="167" type="line"/>
      <point x="1728" y="0" type="line"/>
    </contour>
  </outline>
</glyph>
<glyph name="tbar" format="2">
  <advance width="673"/>
  <unicode hex="0167"/>
  <anchor x="449" y="0" name="m.uni0326"/>
  <anchor x="605" y="1424" name="m.uni030F_1"/>
  <anchor x="571" y="0" name="m.uni0327_3"/>
  <outline>
    <contour>
      <point x="631" y="753" type="line"/>
      <point x="605" y="599" type="line"/>
      <point x="27" y="599" type="line"/>
      <point x="53" y="753" type="line"/>
    </contour>
    <contour>
      <point x="327" y="1384" type="line"/>
      <point x="507" y="1384" type="line"/>
      <point x="326" y="290" type="line" smooth="yes"/>
      <point x="313" y="213"/>
      <point x="365" y="146"/>
      <point x="434" y="146" type="qcurve" smooth="yes"/>
      <point x="451" y="146"/>
      <point x="505" y="154"/>
      <point x="528" y="158" type="qcurve"/>
      <point x="539" y="6" type="line"/>
      <point x="512" y="-3"/>
      <point x="440" y="-14"/>
      <point x="403" y="-14" type="qcurve" smooth="yes"/>
      <point x="256" y="-14"/>
      <point x="121" y="140"/>
      <point x="143" y="276" type="qcurve" smooth="yes"/>
    </contour>
    <contour>
      <point x="692" y="1118" type="line"/>
      <point x="667" y="964" type="line"/>
      <point x="89" y="964" type="line"/>
      <point x="114" y="1118" type="line"/>
    </contour>
  </outline>
</glyph>
<glyph name="longs" format="2">
  <advance width="737"/>
  <unicode hex="017F"/>
  <anchor x="815" y="1597" name="m.uni030F_1"/>
  <outline>
    <contour>
      <point x="-77" y="-448" type="qcurve" smooth="yes"/>
      <point x="-97" y="-448"/>
      <point x="-136" y="-444"/>
      <point x="-172" y="-436"/>
      <point x="-190" y="-430" type="qcurve"/>
      <point x="-147" y="-276" type="line"/>
      <point x="-133" y="-281"/>
      <point x="-64" y="-288"/>
      <point x="-51" y="-288" type="qcurve" smooth="yes"/>
      <point x="23" y="-288"/>
      <point x="105" y="-207"/>
      <point x="119" y="-122" type="qcurve" smooth="yes"/>
      <point x="338" y="1200" type="line" smooth="yes"/>
      <point x="357" y="1316"/>
      <point x="460" y="1477"/>
      <point x="621" y="1560"/>
      <point x="727" y="1560" type="qcurve" smooth="yes"/>
      <point x="765" y="1560"/>
      <point x="833" y="1548"/>
      <point x="869" y="1540" type="qcurve"/>
      <point x="821" y="1392" type="line"/>
      <point x="805" y="1396"/>
      <point x="729" y="1400"/>
      <point x="700" y="1400" type="qcurve" smooth="yes"/>
      <point x="619" y="1400"/>
      <point x="525" y="1303"/>
      <point x="508" y="1200" type="qcurve" smooth="yes"/>
      <point x="289" y="-122" type="line" smooth="yes"/>
      <point x="272" y="-227"/>
      <point x="176" y="-373"/>
      <point x="25" y="-448"/>
    </contour>
  </outline>
</glyph>
<glyph name="Bhook" format="2">
  <advance width="1620"/>
  <unicode hex="0181"/>
  <anchor x="1272" y="0" name="m.uni0326"/>
  <anchor x="1532" y="1490" name="m.uni030F_1"/>
  <outline>
    <contour>
      <point x="151" y="1114" type="line"/>
      <point x="163" y="1188" type="line" smooth="yes"/>
      <point x="179" y="1287"/>
      <point x="216" y="1362"/>
      <point x="275" y="1413" type="curve" smooth="yes"/>
      <point x="334" y="1464"/>
      <point x="416" y="1490"/>
      <point x="521" y="1490" type="curve" smooth="yes"/>
      <point x="614" y="1490" type="line"/>
      <point x="586" y="1323" type="line"/>
      <point x="494" y="1323" type="line" smooth="yes"/>
      <point x="405" y="1323"/>
      <point x="357" y="1282"/>
      <point x="341" y="1186" type="curve" smooth="yes"/>
      <point x="329" y="1114" type="line"/>
    </contour>
    <contour>
      <point x="367" y="0" type="line"/>
      <point x="614" y="1490" type="line"/>
      <point x="1136" y="1490" type="line" smooth="yes"/>
      <point x="1240" y="1490"/>
      <point x="1323" y="1472"/>
      <point x="1386" y="1436" type="curve" smooth="yes"/>
      <point x="1510" y="1363"/>
      <point x="1558" y="1235"/>
      <point x="1534" y="1087" type="curve" smooth="yes"/>
      <point x="1525" y="1026"/>
      <point x="1505" y="975"/>
      <point x="1476" y="934" type="curve" smooth="yes"/>
      <point x="1416" y="851"/>
      <point x="1329" y="803"/>
      <point x="1234" y="778" type="curve"/>
      <point x="1234" y="768" type="line"/>
      <point x="1281" y="765"/>
      <point x="1325" y="749"/>
      <point x="1367" y="719" type="curve"/>
      <point x="1408" y="688"/>
      <point x="1440" y="645"/>
      <point x="1462" y="590" type="curve" smooth="yes"/>
      <point x="1484" y="534"/>
      <point x="1489" y="467"/>
      <point x="1476" y="388" type="curve" smooth="yes"/>
      <point x="1464" y="313"/>
      <point x="1436" y="247"/>
      <point x="1393" y="189" type="curve" smooth="yes"/>
      <point x="1306" y="72"/>
      <point x="1152" y="0"/>
      <point x="919" y="0" type="curve" smooth="yes"/>
    </contour>
    <contour>
      <point x="585" y="167" type="line"/>
      <point x="930" y="167" type="line" smooth="yes"/>
      <point x="1048" y="167"/>
      <point x="1136" y="192"/>
      <point x="1194" y="241" type="curve" smooth="yes"/>
      <point x="1252" y="290"/>
      <point x="1286" y="347"/>
      <point x="1297" y="414" type="curve" smooth="yes"/>
      <point x="1305" y="463"/>
      <point x="1300" y="508"/>
      <point x="1281" y="547" type="curve" smooth="yes"/>
      <point x="1243" y="626"/>
      <point x="1158" y="676"/>
      <point x="1035" y="676" type="curve" smooth="yes"/>
      <point x="670" y="676" type="line"/>
    </contour>
    <contour>
      <point x="696" y="836" type="line"/>
      <point x="1019" y="836" type="line" smooth="yes"/>
      <point x="1072" y="836"/>
      <point x="1122" y="847"/>
      <point x="1169" y="869" type="curve" smooth="yes"/>
      <point x="1264" y="913"/>
      <point x="1336" y="994"/>
      <point x="1353" y="1101" type="curve" smooth="yes"/>
      <point x="1364" y="1163"/>
      <point x="1351" y="1216"/>
      <point x="1316" y="1259" type="curve" smooth="yes"/>
      <point x="1280" y="1302"/>
      <point x="1213" y="1323"/>
      <point x="1116" y="1323" type="curve" smooth="yes"/>
      <point x="777" y="1323" type="line"/>
    </contour>
  </outline>
</glyph>
